<?xml version="1.0" encoding="utf-8" standalone="no"?>
<!DOCTYPE svg PUBLIC "-//W3C//DTD SVG 1.1//EN"
  "http://www.w3.org/Graphics/SVG/1.1/DTD/svg11.dtd">
<!-- Created with matplotlib (http://matplotlib.org/) -->
<svg height="581pt" version="1.1" viewBox="0 0 738 581" width="738pt" xmlns="http://www.w3.org/2000/svg" xmlns:xlink="http://www.w3.org/1999/xlink">
 <defs>
  <style type="text/css">
*{stroke-linecap:butt;stroke-linejoin:round;}
  </style>
 </defs>
 <g id="figure_1">
  <g id="patch_1">
   <path d="
M0 581.702
L738.994 581.702
L738.994 0
L0 0
z
" style="fill:#ffffff;"/>
  </g>
  <g id="axes_1">
   <g id="patch_2">
    <path d="
M245.571 175.103
L580.371 175.103
L580.371 27.3969
L245.571 27.3969
z
" style="fill:none;"/>
   </g>
   <g id="matplotlib.axis_1">
    <g id="xtick_1">
     <g id="line2d_1">
      <path clip-path="url(#p8bc3404f5a)" d="
M245.571 175.103
L245.571 27.3969" style="fill:none;stroke:#262626;stroke-dasharray:3.000000,5.000000,1.000000,5.000000;stroke-dashoffset:0.0;"/>
     </g>
     <g id="line2d_2">
      <defs>
       <path d="
M0 0
L0 0" id="m219da94a98" style="stroke:#262626;"/>
      </defs>
      <g>
       <use style="fill:#262626;stroke:#262626;" x="245.5709375" xlink:href="#m219da94a98" y="175.102757353"/>
      </g>
     </g>
     <g id="line2d_3">
      <g>
       <use style="fill:#262626;stroke:#262626;" x="245.5709375" xlink:href="#m219da94a98" y="27.396875"/>
      </g>
     </g>
    </g>
    <g id="xtick_2">
     <g id="line2d_4">
      <path clip-path="url(#p8bc3404f5a)" d="
M287.421 175.103
L287.421 27.3969" style="fill:none;stroke:#262626;stroke-dasharray:3.000000,5.000000,1.000000,5.000000;stroke-dashoffset:0.0;"/>
     </g>
     <g id="line2d_5">
      <g>
       <use style="fill:#262626;stroke:#262626;" x="287.4209375" xlink:href="#m219da94a98" y="175.102757353"/>
      </g>
     </g>
     <g id="line2d_6">
      <g>
       <use style="fill:#262626;stroke:#262626;" x="287.4209375" xlink:href="#m219da94a98" y="27.396875"/>
      </g>
     </g>
    </g>
    <g id="xtick_3">
     <g id="line2d_7">
      <path clip-path="url(#p8bc3404f5a)" d="
M329.271 175.103
L329.271 27.3969" style="fill:none;stroke:#262626;stroke-dasharray:3.000000,5.000000,1.000000,5.000000;stroke-dashoffset:0.0;"/>
     </g>
     <g id="line2d_8">
      <g>
       <use style="fill:#262626;stroke:#262626;" x="329.2709375" xlink:href="#m219da94a98" y="175.102757353"/>
      </g>
     </g>
     <g id="line2d_9">
      <g>
       <use style="fill:#262626;stroke:#262626;" x="329.2709375" xlink:href="#m219da94a98" y="27.396875"/>
      </g>
     </g>
    </g>
    <g id="xtick_4">
     <g id="line2d_10">
      <path clip-path="url(#p8bc3404f5a)" d="
M371.121 175.103
L371.121 27.3969" style="fill:none;stroke:#262626;stroke-dasharray:3.000000,5.000000,1.000000,5.000000;stroke-dashoffset:0.0;"/>
     </g>
     <g id="line2d_11">
      <g>
       <use style="fill:#262626;stroke:#262626;" x="371.1209375" xlink:href="#m219da94a98" y="175.102757353"/>
      </g>
     </g>
     <g id="line2d_12">
      <g>
       <use style="fill:#262626;stroke:#262626;" x="371.1209375" xlink:href="#m219da94a98" y="27.396875"/>
      </g>
     </g>
    </g>
    <g id="xtick_5">
     <g id="line2d_13">
      <path clip-path="url(#p8bc3404f5a)" d="
M412.971 175.103
L412.971 27.3969" style="fill:none;stroke:#262626;stroke-dasharray:3.000000,5.000000,1.000000,5.000000;stroke-dashoffset:0.0;"/>
     </g>
     <g id="line2d_14">
      <g>
       <use style="fill:#262626;stroke:#262626;" x="412.9709375" xlink:href="#m219da94a98" y="175.102757353"/>
      </g>
     </g>
     <g id="line2d_15">
      <g>
       <use style="fill:#262626;stroke:#262626;" x="412.9709375" xlink:href="#m219da94a98" y="27.396875"/>
      </g>
     </g>
    </g>
    <g id="xtick_6">
     <g id="line2d_16">
      <path clip-path="url(#p8bc3404f5a)" d="
M454.821 175.103
L454.821 27.3969" style="fill:none;stroke:#262626;stroke-dasharray:3.000000,5.000000,1.000000,5.000000;stroke-dashoffset:0.0;"/>
     </g>
     <g id="line2d_17">
      <g>
       <use style="fill:#262626;stroke:#262626;" x="454.8209375" xlink:href="#m219da94a98" y="175.102757353"/>
      </g>
     </g>
     <g id="line2d_18">
      <g>
       <use style="fill:#262626;stroke:#262626;" x="454.8209375" xlink:href="#m219da94a98" y="27.396875"/>
      </g>
     </g>
    </g>
    <g id="xtick_7">
     <g id="line2d_19">
      <path clip-path="url(#p8bc3404f5a)" d="
M496.671 175.103
L496.671 27.3969" style="fill:none;stroke:#262626;stroke-dasharray:3.000000,5.000000,1.000000,5.000000;stroke-dashoffset:0.0;"/>
     </g>
     <g id="line2d_20">
      <g>
       <use style="fill:#262626;stroke:#262626;" x="496.6709375" xlink:href="#m219da94a98" y="175.102757353"/>
      </g>
     </g>
     <g id="line2d_21">
      <g>
       <use style="fill:#262626;stroke:#262626;" x="496.6709375" xlink:href="#m219da94a98" y="27.396875"/>
      </g>
     </g>
    </g>
    <g id="xtick_8">
     <g id="line2d_22">
      <path clip-path="url(#p8bc3404f5a)" d="
M538.521 175.103
L538.521 27.3969" style="fill:none;stroke:#262626;stroke-dasharray:3.000000,5.000000,1.000000,5.000000;stroke-dashoffset:0.0;"/>
     </g>
     <g id="line2d_23">
      <g>
       <use style="fill:#262626;stroke:#262626;" x="538.5209375" xlink:href="#m219da94a98" y="175.102757353"/>
      </g>
     </g>
     <g id="line2d_24">
      <g>
       <use style="fill:#262626;stroke:#262626;" x="538.5209375" xlink:href="#m219da94a98" y="27.396875"/>
      </g>
     </g>
    </g>
    <g id="xtick_9">
     <g id="line2d_25">
      <path clip-path="url(#p8bc3404f5a)" d="
M580.371 175.103
L580.371 27.3969" style="fill:none;stroke:#262626;stroke-dasharray:3.000000,5.000000,1.000000,5.000000;stroke-dashoffset:0.0;"/>
     </g>
     <g id="line2d_26">
      <g>
       <use style="fill:#262626;stroke:#262626;" x="580.3709375" xlink:href="#m219da94a98" y="175.102757353"/>
      </g>
     </g>
     <g id="line2d_27">
      <g>
       <use style="fill:#262626;stroke:#262626;" x="580.3709375" xlink:href="#m219da94a98" y="27.396875"/>
      </g>
     </g>
    </g>
   </g>
   <g id="matplotlib.axis_2">
    <g id="ytick_1">
     <g id="line2d_28">
      <path clip-path="url(#p8bc3404f5a)" d="
M245.571 138.176
L580.371 138.176" style="fill:none;stroke:#262626;stroke-dasharray:3.000000,5.000000,1.000000,5.000000;stroke-dashoffset:0.0;"/>
     </g>
     <g id="line2d_29">
      <g>
       <use style="fill:#262626;stroke:#262626;" x="245.5709375" xlink:href="#m219da94a98" y="138.176286765"/>
      </g>
     </g>
     <g id="line2d_30">
      <g>
       <use style="fill:#262626;stroke:#262626;" x="580.3709375" xlink:href="#m219da94a98" y="138.176286765"/>
      </g>
     </g>
     <g id="text_1">
      <!-- Adj. R-squared -->
      <defs>
       <path id="BitstreamVeraSans-Roman-20"/>
       <path d="
M41.1094 46.2969
Q39.5938 47.1719 37.8125 47.5781
Q36.0312 48 33.8906 48
Q26.2656 48 22.1875 43.0469
Q18.1094 38.0938 18.1094 28.8125
L18.1094 0
L9.07812 0
L9.07812 54.6875
L18.1094 54.6875
L18.1094 46.1875
Q20.9531 51.1719 25.4844 53.5781
Q30.0312 56 36.5312 56
Q37.4531 56 38.5781 55.875
Q39.7031 55.7656 41.0625 55.5156
z
" id="BitstreamVeraSans-Roman-72"/>
       <path d="
M9.42188 54.6875
L18.4062 54.6875
L18.4062 -0.984375
Q18.4062 -11.4219 14.4219 -16.1094
Q10.4531 -20.7969 1.60938 -20.7969
L-1.8125 -20.7969
L-1.8125 -13.1875
L0.59375 -13.1875
Q5.71875 -13.1875 7.5625 -10.8125
Q9.42188 -8.45312 9.42188 -0.984375
z

M9.42188 75.9844
L18.4062 75.9844
L18.4062 64.5938
L9.42188 64.5938
z
" id="BitstreamVeraSans-Roman-6a"/>
       <path d="
M44.3906 34.1875
Q47.5625 33.1094 50.5625 29.5938
Q53.5625 26.0781 56.5938 19.9219
L66.6094 0
L56 0
L46.6875 18.7031
Q43.0625 26.0312 39.6719 28.4219
Q36.2812 30.8125 30.4219 30.8125
L19.6719 30.8125
L19.6719 0
L9.8125 0
L9.8125 72.9062
L32.0781 72.9062
Q44.5781 72.9062 50.7344 67.6719
Q56.8906 62.4531 56.8906 51.9062
Q56.8906 45.0156 53.6875 40.4688
Q50.4844 35.9375 44.3906 34.1875
M19.6719 64.7969
L19.6719 38.9219
L32.0781 38.9219
Q39.2031 38.9219 42.8438 42.2188
Q46.4844 45.5156 46.4844 51.9062
Q46.4844 58.2969 42.8438 61.5469
Q39.2031 64.7969 32.0781 64.7969
z
" id="BitstreamVeraSans-Roman-52"/>
       <path d="
M10.6875 12.4062
L21 12.4062
L21 0
L10.6875 0
z
" id="BitstreamVeraSans-Roman-2e"/>
       <path d="
M4.89062 31.3906
L31.2031 31.3906
L31.2031 23.3906
L4.89062 23.3906
z
" id="BitstreamVeraSans-Roman-2d"/>
       <path d="
M34.1875 63.1875
L20.7969 26.9062
L47.6094 26.9062
z

M28.6094 72.9062
L39.7969 72.9062
L67.5781 0
L57.3281 0
L50.6875 18.7031
L17.8281 18.7031
L11.1875 0
L0.78125 0
z
" id="BitstreamVeraSans-Roman-41"/>
       <path d="
M56.2031 29.5938
L56.2031 25.2031
L14.8906 25.2031
Q15.4844 15.9219 20.4844 11.0625
Q25.4844 6.20312 34.4219 6.20312
Q39.5938 6.20312 44.4531 7.46875
Q49.3125 8.73438 54.1094 11.2812
L54.1094 2.78125
Q49.2656 0.734375 44.1875 -0.34375
Q39.1094 -1.42188 33.8906 -1.42188
Q20.7969 -1.42188 13.1562 6.1875
Q5.51562 13.8125 5.51562 26.8125
Q5.51562 40.2344 12.7656 48.1094
Q20.0156 56 32.3281 56
Q43.3594 56 49.7812 48.8906
Q56.2031 41.7969 56.2031 29.5938
M47.2188 32.2344
Q47.125 39.5938 43.0938 43.9844
Q39.0625 48.3906 32.4219 48.3906
Q24.9062 48.3906 20.3906 44.1406
Q15.875 39.8906 15.1875 32.1719
z
" id="BitstreamVeraSans-Roman-65"/>
       <path d="
M45.4062 46.3906
L45.4062 75.9844
L54.3906 75.9844
L54.3906 0
L45.4062 0
L45.4062 8.20312
Q42.5781 3.32812 38.25 0.953125
Q33.9375 -1.42188 27.875 -1.42188
Q17.9688 -1.42188 11.7344 6.48438
Q5.51562 14.4062 5.51562 27.2969
Q5.51562 40.1875 11.7344 48.0938
Q17.9688 56 27.875 56
Q33.9375 56 38.25 53.625
Q42.5781 51.2656 45.4062 46.3906
M14.7969 27.2969
Q14.7969 17.3906 18.875 11.75
Q22.9531 6.10938 30.0781 6.10938
Q37.2031 6.10938 41.2969 11.75
Q45.4062 17.3906 45.4062 27.2969
Q45.4062 37.2031 41.2969 42.8438
Q37.2031 48.4844 30.0781 48.4844
Q22.9531 48.4844 18.875 42.8438
Q14.7969 37.2031 14.7969 27.2969" id="BitstreamVeraSans-Roman-64"/>
       <path d="
M8.5 21.5781
L8.5 54.6875
L17.4844 54.6875
L17.4844 21.9219
Q17.4844 14.1562 20.5 10.2656
Q23.5312 6.39062 29.5938 6.39062
Q36.8594 6.39062 41.0781 11.0312
Q45.3125 15.6719 45.3125 23.6875
L45.3125 54.6875
L54.2969 54.6875
L54.2969 0
L45.3125 0
L45.3125 8.40625
Q42.0469 3.42188 37.7188 1
Q33.4062 -1.42188 27.6875 -1.42188
Q18.2656 -1.42188 13.375 4.4375
Q8.5 10.2969 8.5 21.5781" id="BitstreamVeraSans-Roman-75"/>
       <path d="
M34.2812 27.4844
Q23.3906 27.4844 19.1875 25
Q14.9844 22.5156 14.9844 16.5
Q14.9844 11.7188 18.1406 8.90625
Q21.2969 6.10938 26.7031 6.10938
Q34.1875 6.10938 38.7031 11.4062
Q43.2188 16.7031 43.2188 25.4844
L43.2188 27.4844
z

M52.2031 31.2031
L52.2031 0
L43.2188 0
L43.2188 8.29688
Q40.1406 3.32812 35.5469 0.953125
Q30.9531 -1.42188 24.3125 -1.42188
Q15.9219 -1.42188 10.9531 3.29688
Q6 8.01562 6 15.9219
Q6 25.1406 12.1719 29.8281
Q18.3594 34.5156 30.6094 34.5156
L43.2188 34.5156
L43.2188 35.4062
Q43.2188 41.6094 39.1406 45
Q35.0625 48.3906 27.6875 48.3906
Q23 48.3906 18.5469 47.2656
Q14.1094 46.1406 10.0156 43.8906
L10.0156 52.2031
Q14.9375 54.1094 19.5781 55.0469
Q24.2188 56 28.6094 56
Q40.4844 56 46.3438 49.8438
Q52.2031 43.7031 52.2031 31.2031" id="BitstreamVeraSans-Roman-61"/>
       <path d="
M44.2812 53.0781
L44.2812 44.5781
Q40.4844 46.5312 36.375 47.5
Q32.2812 48.4844 27.875 48.4844
Q21.1875 48.4844 17.8438 46.4375
Q14.5 44.3906 14.5 40.2812
Q14.5 37.1562 16.8906 35.375
Q19.2812 33.5938 26.5156 31.9844
L29.5938 31.2969
Q39.1562 29.25 43.1875 25.5156
Q47.2188 21.7812 47.2188 15.0938
Q47.2188 7.46875 41.1875 3.01562
Q35.1562 -1.42188 24.6094 -1.42188
Q20.2188 -1.42188 15.4531 -0.5625
Q10.6875 0.296875 5.42188 2
L5.42188 11.2812
Q10.4062 8.6875 15.2344 7.39062
Q20.0625 6.10938 24.8125 6.10938
Q31.1562 6.10938 34.5625 8.28125
Q37.9844 10.4531 37.9844 14.4062
Q37.9844 18.0625 35.5156 20.0156
Q33.0625 21.9688 24.7031 23.7812
L21.5781 24.5156
Q13.2344 26.2656 9.51562 29.9062
Q5.8125 33.5469 5.8125 39.8906
Q5.8125 47.6094 11.2812 51.7969
Q16.75 56 26.8125 56
Q31.7812 56 36.1719 55.2656
Q40.5781 54.5469 44.2812 53.0781" id="BitstreamVeraSans-Roman-73"/>
       <path d="
M14.7969 27.2969
Q14.7969 17.3906 18.875 11.75
Q22.9531 6.10938 30.0781 6.10938
Q37.2031 6.10938 41.2969 11.75
Q45.4062 17.3906 45.4062 27.2969
Q45.4062 37.2031 41.2969 42.8438
Q37.2031 48.4844 30.0781 48.4844
Q22.9531 48.4844 18.875 42.8438
Q14.7969 37.2031 14.7969 27.2969
M45.4062 8.20312
Q42.5781 3.32812 38.25 0.953125
Q33.9375 -1.42188 27.875 -1.42188
Q17.9688 -1.42188 11.7344 6.48438
Q5.51562 14.4062 5.51562 27.2969
Q5.51562 40.1875 11.7344 48.0938
Q17.9688 56 27.875 56
Q33.9375 56 38.25 53.625
Q42.5781 51.2656 45.4062 46.3906
L45.4062 54.6875
L54.3906 54.6875
L54.3906 -20.7969
L45.4062 -20.7969
z
" id="BitstreamVeraSans-Roman-71"/>
      </defs>
      <g style="fill:#262626;" transform="translate(123.6809375 142.591286765)scale(0.16 -0.16)">
       <use xlink:href="#BitstreamVeraSans-Roman-41"/>
       <use x="66.658203125" xlink:href="#BitstreamVeraSans-Roman-64"/>
       <use x="130.134765625" xlink:href="#BitstreamVeraSans-Roman-6a"/>
       <use x="157.91796875" xlink:href="#BitstreamVeraSans-Roman-2e"/>
       <use x="189.705078125" xlink:href="#BitstreamVeraSans-Roman-20"/>
       <use x="221.4921875" xlink:href="#BitstreamVeraSans-Roman-52"/>
       <use x="286.974609375" xlink:href="#BitstreamVeraSans-Roman-2d"/>
       <use x="323.05859375" xlink:href="#BitstreamVeraSans-Roman-73"/>
       <use x="375.158203125" xlink:href="#BitstreamVeraSans-Roman-71"/>
       <use x="438.634765625" xlink:href="#BitstreamVeraSans-Roman-75"/>
       <use x="502.013671875" xlink:href="#BitstreamVeraSans-Roman-61"/>
       <use x="563.29296875" xlink:href="#BitstreamVeraSans-Roman-72"/>
       <use x="602.15625" xlink:href="#BitstreamVeraSans-Roman-65"/>
       <use x="663.6796875" xlink:href="#BitstreamVeraSans-Roman-64"/>
      </g>
     </g>
    </g>
    <g id="ytick_2">
     <g id="line2d_31">
      <path clip-path="url(#p8bc3404f5a)" d="
M245.571 64.3233
L580.371 64.3233" style="fill:none;stroke:#262626;stroke-dasharray:3.000000,5.000000,1.000000,5.000000;stroke-dashoffset:0.0;"/>
     </g>
     <g id="line2d_32">
      <g>
       <use style="fill:#262626;stroke:#262626;" x="245.5709375" xlink:href="#m219da94a98" y="64.3233455882"/>
      </g>
     </g>
     <g id="line2d_33">
      <g>
       <use style="fill:#262626;stroke:#262626;" x="580.3709375" xlink:href="#m219da94a98" y="64.3233455882"/>
      </g>
     </g>
     <g id="text_2">
      <!-- R-squared -->
      <g style="fill:#262626;" transform="translate(160.6884375 68.7383455882)scale(0.16 -0.16)">
       <use xlink:href="#BitstreamVeraSans-Roman-52"/>
       <use x="65.482421875" xlink:href="#BitstreamVeraSans-Roman-2d"/>
       <use x="101.56640625" xlink:href="#BitstreamVeraSans-Roman-73"/>
       <use x="153.666015625" xlink:href="#BitstreamVeraSans-Roman-71"/>
       <use x="217.142578125" xlink:href="#BitstreamVeraSans-Roman-75"/>
       <use x="280.521484375" xlink:href="#BitstreamVeraSans-Roman-61"/>
       <use x="341.80078125" xlink:href="#BitstreamVeraSans-Roman-72"/>
       <use x="380.6640625" xlink:href="#BitstreamVeraSans-Roman-65"/>
       <use x="442.1875" xlink:href="#BitstreamVeraSans-Roman-64"/>
      </g>
     </g>
    </g>
    <g id="text_3">
     <!-- Model Fit -->
     <defs>
      <path d="
M9.8125 72.9062
L24.5156 72.9062
L43.1094 23.2969
L61.8125 72.9062
L76.5156 72.9062
L76.5156 0
L66.8906 0
L66.8906 64.0156
L48.0938 14.0156
L38.1875 14.0156
L19.3906 64.0156
L19.3906 0
L9.8125 0
z
" id="BitstreamVeraSans-Roman-4d"/>
      <path d="
M30.6094 48.3906
Q23.3906 48.3906 19.1875 42.75
Q14.9844 37.1094 14.9844 27.2969
Q14.9844 17.4844 19.1562 11.8438
Q23.3438 6.20312 30.6094 6.20312
Q37.7969 6.20312 41.9844 11.8594
Q46.1875 17.5312 46.1875 27.2969
Q46.1875 37.0156 41.9844 42.7031
Q37.7969 48.3906 30.6094 48.3906
M30.6094 56
Q42.3281 56 49.0156 48.375
Q55.7188 40.7656 55.7188 27.2969
Q55.7188 13.875 49.0156 6.21875
Q42.3281 -1.42188 30.6094 -1.42188
Q18.8438 -1.42188 12.1719 6.21875
Q5.51562 13.875 5.51562 27.2969
Q5.51562 40.7656 12.1719 48.375
Q18.8438 56 30.6094 56" id="BitstreamVeraSans-Roman-6f"/>
      <path d="
M9.42188 75.9844
L18.4062 75.9844
L18.4062 0
L9.42188 0
z
" id="BitstreamVeraSans-Roman-6c"/>
      <path d="
M9.8125 72.9062
L51.7031 72.9062
L51.7031 64.5938
L19.6719 64.5938
L19.6719 43.1094
L48.5781 43.1094
L48.5781 34.8125
L19.6719 34.8125
L19.6719 0
L9.8125 0
z
" id="BitstreamVeraSans-Roman-46"/>
      <path d="
M9.42188 54.6875
L18.4062 54.6875
L18.4062 0
L9.42188 0
z

M9.42188 75.9844
L18.4062 75.9844
L18.4062 64.5938
L9.42188 64.5938
z
" id="BitstreamVeraSans-Roman-69"/>
      <path d="
M18.3125 70.2188
L18.3125 54.6875
L36.8125 54.6875
L36.8125 47.7031
L18.3125 47.7031
L18.3125 18.0156
Q18.3125 11.3281 20.1406 9.42188
Q21.9688 7.51562 27.5938 7.51562
L36.8125 7.51562
L36.8125 0
L27.5938 0
Q17.1875 0 13.2344 3.875
Q9.28125 7.76562 9.28125 18.0156
L9.28125 47.7031
L2.6875 47.7031
L2.6875 54.6875
L9.28125 54.6875
L9.28125 70.2188
z
" id="BitstreamVeraSans-Roman-74"/>
     </defs>
     <g style="fill:#262626;" transform="translate(114.72953125 143.705909926)rotate(-90.0)scale(0.19 -0.19)">
      <use xlink:href="#BitstreamVeraSans-Roman-4d"/>
      <use x="86.279296875" xlink:href="#BitstreamVeraSans-Roman-6f"/>
      <use x="147.4609375" xlink:href="#BitstreamVeraSans-Roman-64"/>
      <use x="210.9375" xlink:href="#BitstreamVeraSans-Roman-65"/>
      <use x="272.4609375" xlink:href="#BitstreamVeraSans-Roman-6c"/>
      <use x="300.244140625" xlink:href="#BitstreamVeraSans-Roman-20"/>
      <use x="332.03125" xlink:href="#BitstreamVeraSans-Roman-46"/>
      <use x="382.30078125" xlink:href="#BitstreamVeraSans-Roman-69"/>
      <use x="410.083984375" xlink:href="#BitstreamVeraSans-Roman-74"/>
     </g>
    </g>
   </g>
   <g id="patch_3">
    <path clip-path="url(#p8bc3404f5a)" d="
M263.831 167.717
L580.371 167.717
L580.371 108.635
L263.831 108.635
z
" style="fill:#808080;stroke:#000000;stroke-width:0.3;"/>
   </g>
   <g id="patch_4">
    <path clip-path="url(#p8bc3404f5a)" d="
M288.648 93.8645
L580.371 93.8645
L580.371 34.7822
L288.648 34.7822
z
" style="fill:#808080;stroke:#000000;stroke-width:0.3;"/>
   </g>
   <g id="LineCollection_1">
    <defs>
     <path d="
M264.603 -443.526
L263.06 -443.526" id="C0_0_5a315dd569"/>
     <path d="
M289.471 -517.379
L287.824 -517.379" id="C0_1_15d4902261"/>
    </defs>
    <g clip-path="url(#p8bc3404f5a)">
     <use style="fill:none;stroke:#000000;stroke-width:2.0;" x="0.0" xlink:href="#C0_0_5a315dd569" y="581.7025"/>
    </g>
    <g clip-path="url(#p8bc3404f5a)">
     <use style="fill:none;stroke:#000000;stroke-width:2.0;" x="0.0" xlink:href="#C0_1_15d4902261" y="581.7025"/>
    </g>
   </g>
   <g id="line2d_34">
    <defs>
     <path d="
M0 5
L0 -5" id="md9f6e4198b" style="stroke:#000000;stroke-width:2;"/>
    </defs>
    <g clip-path="url(#p8bc3404f5a)">
     <use style="stroke:#000000;stroke-width:2;" x="264.602702846" xlink:href="#md9f6e4198b" y="138.176286765"/>
     <use style="stroke:#000000;stroke-width:2;" x="289.4705462" xlink:href="#md9f6e4198b" y="64.3233455882"/>
    </g>
   </g>
   <g id="line2d_35">
    <g clip-path="url(#p8bc3404f5a)">
     <use style="stroke:#000000;stroke-width:2;" x="263.060278768" xlink:href="#md9f6e4198b" y="138.176286765"/>
     <use style="stroke:#000000;stroke-width:2;" x="287.824454052" xlink:href="#md9f6e4198b" y="64.3233455882"/>
    </g>
   </g>
   <g id="line2d_36">
    <path clip-path="url(#p8bc3404f5a)" d="
M580.371 175.103
L580.371 27.3969" style="fill:none;opacity:0.75;stroke:#000000;stroke-linecap:round;stroke-width:2;"/>
   </g>
   <g id="patch_5">
    <path d="
M245.571 27.3969
L580.371 27.3969" style="fill:none;"/>
   </g>
   <g id="patch_6">
    <path d="
M580.371 175.103
L580.371 27.3969" style="fill:none;"/>
   </g>
   <g id="patch_7">
    <path d="
M245.571 175.103
L580.371 175.103" style="fill:none;"/>
   </g>
   <g id="patch_8">
    <path d="
M245.571 175.103
L245.571 27.3969" style="fill:none;"/>
   </g>
   <g id="text_4">
    <g id="patch_9">
     <path d="
M599.296 146.702
L694.287 146.702
L694.287 129.651
L599.296 129.651
z
" style="fill:#ffffff;stroke:#000000;stroke-width:0.3;"/>
    </g>
    <!-- (0.076 - 0.071) -->
    <defs>
     <path d="
M5.125 22.6562
L6.64062 30.4688
L31.0625 30.4688
L29.5469 22.6562
z
" id="LiberationSans-Italic-2d"/>
     <path d="
M3.90625 0
L6 10.6875
L15.5312 10.6875
L13.4219 0
z
" id="LiberationSans-Italic-2e"/>
     <path id="LiberationSans-Italic-20"/>
     <path d="
M57.3281 61.6719
Q52.8281 56.3906 48.75 51.5312
Q44.6719 46.6875 41.0781 41.9375
Q37.5 37.2031 34.3906 32.4219
Q31.2969 27.6406 28.7812 22.5312
Q26.2656 17.4375 24.3594 11.8594
Q22.4688 6.29688 21.2344 0
L12.0625 0
Q13.9219 9.32812 17.4375 17.375
Q20.9531 25.4375 25.6562 32.8125
Q30.375 40.1875 36.1094 47.1719
Q41.8438 54.1562 48.1406 61.3281
L10.3594 61.3281
L11.7656 68.7969
L58.6875 68.7969
z
" id="LiberationSans-Italic-37"/>
     <path d="
M26.0781 -0.984375
Q21.2344 -0.984375 17.4219 0.78125
Q13.625 2.54688 11.0156 5.6875
Q8.40625 8.84375 7 13.1875
Q5.60938 17.5312 5.60938 22.6562
Q5.60938 25.3438 5.875 28.5938
Q6.15625 31.8438 6.73438 34.9062
Q8.54688 44.0938 11.625 50.7031
Q14.7031 57.3281 18.7031 61.5781
Q22.7031 65.8281 27.4062 67.8281
Q32.125 69.8281 37.1562 69.8281
Q40.4844 69.8281 43.4062 69.0625
Q46.3438 68.3125 48.75 66.6406
Q51.1719 64.9844 52.9219 62.4219
Q54.6875 59.8594 55.6094 56.2031
L47.5156 54.4375
Q46.2969 58.4062 43.5 60.5469
Q40.7188 62.7031 36.7656 62.7031
Q32.9531 62.7031 29.5625 60.9844
Q26.1719 59.2812 23.3906 55.8594
Q20.6094 52.4375 18.4531 47.3281
Q16.3125 42.2344 14.9844 35.4531
Q17.9219 39.8438 22.3906 42.1562
Q26.8594 44.4844 32.375 44.4844
Q36.4219 44.4844 39.8594 43.1875
Q43.3125 41.8906 45.7969 39.4688
Q48.2969 37.0625 49.7031 33.6406
Q51.125 30.2188 51.125 26.0312
Q51.125 20.6094 49.3594 15.7188
Q47.6094 10.8438 44.3594 7.125
Q41.1094 3.42188 36.4688 1.21875
Q31.8438 -0.984375 26.0781 -0.984375
M14.0625 20.5625
Q14.0625 17.5781 14.8594 14.9375
Q15.6719 12.3125 17.2344 10.3281
Q18.7969 8.34375 21.0625 7.21875
Q23.3438 6.10938 26.2656 6.10938
Q29.7344 6.10938 32.6406 7.59375
Q35.5469 9.07812 37.6406 11.6875
Q39.75 14.3125 40.8906 17.8438
Q42.0469 21.3906 42.0469 25.4844
Q42.0469 31.1094 39.1406 34.4062
Q36.2344 37.7031 30.7656 37.7031
Q28.125 37.7031 25.1719 36.7969
Q22.2188 35.8906 19.75 33.8594
Q17.2812 31.8438 15.6719 28.5625
Q14.0625 25.2969 14.0625 20.5625" id="LiberationSans-Italic-36"/>
     <path d="
M2.59375 0
L4.04688 7.46875
L21.5781 7.46875
L31.7344 59.7188
L14.1094 48.8281
L15.8281 57.625
L34.2344 68.7969
L42.3281 68.7969
L30.4219 7.46875
L47.1719 7.46875
L45.7031 0
z
" id="LiberationSans-Italic-31"/>
     <path d="
M35.75 69.8281
Q39.7031 69.8281 43.1875 68.4844
Q46.6875 67.1406 49.25 64.3594
Q51.8125 61.5781 53.2969 57.2812
Q54.7812 52.9844 54.7812 47.0781
Q54.7812 44 54.5156 40.2656
Q54.25 36.5312 53.4219 32.4688
Q51.4688 22.5625 48.2344 16.0938
Q45.0156 9.625 40.9844 5.82812
Q36.9688 2.04688 32.3906 0.53125
Q27.8281 -0.984375 23.25 -0.984375
Q19.1875 -0.984375 15.7188 0.484375
Q12.25 1.95312 9.73438 4.875
Q7.23438 7.8125 5.78125 12.25
Q4.34375 16.7031 4.34375 22.7031
Q4.34375 24.3125 4.39062 25.8438
Q4.4375 27.3906 4.57812 29
Q4.73438 30.6094 4.96875 32.4219
Q5.21875 34.2344 5.60938 36.375
Q6.9375 43.3125 8.89062 48.4531
Q10.8438 53.6094 13.1875 57.3438
Q15.5312 61.0781 18.2656 63.5
Q21 65.9219 23.875 67.3125
Q26.7656 68.7031 29.7812 69.2656
Q32.8125 69.8281 35.75 69.8281
M23.9688 6.20312
Q27.6875 6.20312 30.8125 7.51562
Q33.9375 8.84375 36.5469 11.9844
Q39.1562 15.1406 41.2031 20.3594
Q43.2656 25.5938 44.7812 33.4531
Q45.6094 37.5938 45.9219 41.1094
Q46.2344 44.625 46.2344 47.5156
Q46.2344 55.0781 43.3281 58.8906
Q40.4375 62.7031 35.1562 62.7031
Q31.4531 62.7031 28.3281 61.375
Q25.2031 60.0625 22.5781 56.9062
Q19.9688 53.7656 17.9219 48.5312
Q15.875 43.3125 14.3594 35.4531
Q13.5312 31.2969 13.2031 27.7812
Q12.8906 24.2656 12.8906 21.3906
Q12.8906 13.8125 15.7969 10
Q18.7031 6.20312 23.9688 6.20312" id="LiberationSans-Italic-30"/>
     <path d="
M41.75 72.4688
Q27.875 60.25 20.7031 45.4531
Q13.5312 30.6719 13.5312 12.7969
Q13.5312 3.51562 15.9844 -4.875
Q18.4531 -13.2812 23.6406 -20.7031
L15.1406 -20.7031
Q9.76562 -13.2812 7.21875 -4.60938
Q4.6875 4.04688 4.6875 13.5781
Q4.6875 22.4062 6.46875 30.6562
Q8.25 38.9219 11.8438 46.3594
Q15.4375 53.8125 20.7812 60.375
Q26.125 66.9375 33.25 72.4688
z
" id="LiberationSans-Italic-28"/>
     <path d="
M-9.71875 -20.7031
Q4.15625 -8.5 11.3281 6.29688
Q18.5 21.0938 18.5 38.9688
Q18.5 48.25 16.0312 56.6406
Q13.5781 65.0469 8.40625 72.4688
L16.8906 72.4688
Q22.2656 65.0469 24.7969 56.375
Q27.3438 47.7031 27.3438 38.1875
Q27.3438 29.3438 25.5625 21.0938
Q23.7812 12.8438 20.1875 5.39062
Q16.6094 -2.04688 11.25 -8.60938
Q5.90625 -15.1875 -1.21875 -20.7031
z
" id="LiberationSans-Italic-29"/>
    </defs>
    <g style="fill:#262626;" transform="translate(601.2959375 141.796599265)scale(0.14 -0.14)">
     <use xlink:href="#LiberationSans-Italic-28"/>
     <use x="33.30078125" xlink:href="#LiberationSans-Italic-30"/>
     <use x="88.916015625" xlink:href="#LiberationSans-Italic-2e"/>
     <use x="116.69921875" xlink:href="#LiberationSans-Italic-30"/>
     <use x="172.314453125" xlink:href="#LiberationSans-Italic-37"/>
     <use x="227.9296875" xlink:href="#LiberationSans-Italic-36"/>
     <use x="283.544921875" xlink:href="#LiberationSans-Italic-20"/>
     <use x="311.328125" xlink:href="#LiberationSans-Italic-2d"/>
     <use x="344.62890625" xlink:href="#LiberationSans-Italic-20"/>
     <use x="372.412109375" xlink:href="#LiberationSans-Italic-30"/>
     <use x="428.02734375" xlink:href="#LiberationSans-Italic-2e"/>
     <use x="455.810546875" xlink:href="#LiberationSans-Italic-30"/>
     <use x="511.42578125" xlink:href="#LiberationSans-Italic-37"/>
     <use x="567.041015625" xlink:href="#LiberationSans-Italic-31"/>
     <use x="622.65625" xlink:href="#LiberationSans-Italic-29"/>
    </g>
   </g>
   <g id="text_5">
    <g id="patch_10">
     <path d="
M599.296 72.8487
L694.287 72.8487
L694.287 55.798
L599.296 55.798
z
" style="fill:#ffffff;stroke:#000000;stroke-width:0.3;"/>
    </g>
    <!-- (0.084 - 0.078) -->
    <defs>
     <path d="
M41.3125 15.5781
L38.2812 0
L29.5 0
L32.5156 15.5781
L0.640625 15.5781
L1.95312 22.4062
L41.9375 68.7969
L51.6562 68.7969
L42.6719 22.5156
L51.8594 22.5156
L50.4844 15.5781
z

M40.3281 56.5
L11.0781 22.5156
L33.8906 22.5156
z
" id="LiberationSans-Italic-34"/>
     <path d="
M34.375 69.7812
Q39.0625 69.7812 42.875 68.6094
Q46.6875 67.4375 49.3906 65.2812
Q52.0938 63.1406 53.5625 60.0781
Q55.0312 57.0312 55.0312 53.2656
Q55.0312 49.9062 53.9219 46.9219
Q52.8281 43.9531 50.7969 41.6562
Q48.7812 39.3594 45.8906 37.8438
Q43.0156 36.3281 39.4062 35.7969
L39.3594 35.5938
Q41.7969 34.8594 43.8438 33.5938
Q45.9062 32.3281 47.3594 30.4844
Q48.8281 28.6562 49.625 26.3125
Q50.4375 23.9688 50.4375 21.0938
Q50.4375 16.3594 48.7969 12.3281
Q47.1719 8.29688 43.9219 5.34375
Q40.6719 2.39062 35.7812 0.703125
Q30.9062 -0.984375 24.4219 -0.984375
Q18.8438 -0.984375 14.7344 0.40625
Q10.6406 1.8125 7.95312 4.29688
Q5.28125 6.78125 3.95312 10.1719
Q2.64062 13.5781 2.64062 17.5781
Q2.64062 22.3125 4.26562 25.6719
Q5.90625 29.0469 8.4375 31.3438
Q10.9844 33.6406 14.0781 34.9531
Q17.1875 36.2812 20.0625 36.9219
L20.0625 37.1094
Q15.625 38.9688 13.1875 42.6562
Q10.75 46.3438 10.75 51.375
Q10.75 55.6094 12.3594 59.0312
Q13.9688 62.4531 16.9844 64.8125
Q20.0156 67.1875 24.4062 68.4844
Q28.8125 69.7812 34.375 69.7812
M32.125 39.5938
Q36.375 39.5938 39.0625 40.8906
Q41.75 42.1875 43.2812 44.1562
Q44.8281 46.1406 45.3906 48.5
Q45.9531 50.875 45.9531 53.0781
Q45.9531 57.8594 42.75 60.5156
Q39.5469 63.1875 33.3438 63.1875
Q30.375 63.1875 27.8281 62.4219
Q25.2969 61.6719 23.4375 60.1094
Q21.5781 58.5469 20.5469 56.1562
Q19.5312 53.7656 19.5312 50.4375
Q19.5312 48.4844 20.1562 46.5469
Q20.7969 44.625 22.2656 43.0781
Q23.7344 41.5469 26.1406 40.5625
Q28.5625 39.5938 32.125 39.5938
M27.6406 32.8125
Q23.6406 32.8125 20.625 31.6875
Q17.625 30.5625 15.6406 28.5312
Q13.6719 26.5156 12.6719 23.6719
Q11.6719 20.8438 11.6719 17.3906
Q11.6719 14.8906 12.5 12.7344
Q13.3281 10.5938 15.0156 9.03125
Q16.7031 7.46875 19.2656 6.59375
Q21.8281 5.71875 25.3438 5.71875
Q28.7188 5.71875 31.6406 6.71875
Q34.5781 7.71875 36.7656 9.67188
Q38.9688 11.625 40.2344 14.5312
Q41.5 17.4375 41.5 21.2969
Q41.5 23.4375 40.7656 25.5156
Q40.0469 27.5938 38.4062 29.2031
Q36.7656 30.8125 34.1094 31.8125
Q31.4531 32.8125 27.6406 32.8125" id="LiberationSans-Italic-38"/>
    </defs>
    <g style="fill:#262626;" transform="translate(601.2959375 67.9436580882)scale(0.14 -0.14)">
     <use xlink:href="#LiberationSans-Italic-28"/>
     <use x="33.30078125" xlink:href="#LiberationSans-Italic-30"/>
     <use x="88.916015625" xlink:href="#LiberationSans-Italic-2e"/>
     <use x="116.69921875" xlink:href="#LiberationSans-Italic-30"/>
     <use x="172.314453125" xlink:href="#LiberationSans-Italic-38"/>
     <use x="227.9296875" xlink:href="#LiberationSans-Italic-34"/>
     <use x="283.544921875" xlink:href="#LiberationSans-Italic-20"/>
     <use x="311.328125" xlink:href="#LiberationSans-Italic-2d"/>
     <use x="344.62890625" xlink:href="#LiberationSans-Italic-20"/>
     <use x="372.412109375" xlink:href="#LiberationSans-Italic-30"/>
     <use x="428.02734375" xlink:href="#LiberationSans-Italic-2e"/>
     <use x="455.810546875" xlink:href="#LiberationSans-Italic-30"/>
     <use x="511.42578125" xlink:href="#LiberationSans-Italic-37"/>
     <use x="567.041015625" xlink:href="#LiberationSans-Italic-38"/>
     <use x="622.65625" xlink:href="#LiberationSans-Italic-29"/>
    </g>
   </g>
   <g id="text_6">
    <!-- Data Substitution, Last Year vs. Next Year: (Original - Perturbed) -->
    <defs>
     <path d="
M39.4062 66.2188
Q28.6562 66.2188 22.3281 58.2031
Q16.0156 50.2031 16.0156 36.375
Q16.0156 22.6094 22.3281 14.5938
Q28.6562 6.59375 39.4062 6.59375
Q50.1406 6.59375 56.4219 14.5938
Q62.7031 22.6094 62.7031 36.375
Q62.7031 50.2031 56.4219 58.2031
Q50.1406 66.2188 39.4062 66.2188
M39.4062 74.2188
Q54.7344 74.2188 63.9062 63.9375
Q73.0938 53.6562 73.0938 36.375
Q73.0938 19.1406 63.9062 8.85938
Q54.7344 -1.42188 39.4062 -1.42188
Q24.0312 -1.42188 14.8125 8.82812
Q5.60938 19.0938 5.60938 36.375
Q5.60938 53.6562 14.8125 63.9375
Q24.0312 74.2188 39.4062 74.2188" id="BitstreamVeraSans-Roman-4f"/>
     <path d="
M9.8125 72.9062
L23.0938 72.9062
L55.4219 11.9219
L55.4219 72.9062
L64.9844 72.9062
L64.9844 0
L51.7031 0
L19.3906 60.9844
L19.3906 0
L9.8125 0
z
" id="BitstreamVeraSans-Roman-4e"/>
     <path d="
M19.6719 64.7969
L19.6719 37.4062
L32.0781 37.4062
Q38.9688 37.4062 42.7188 40.9688
Q46.4844 44.5312 46.4844 51.125
Q46.4844 57.6719 42.7188 61.2344
Q38.9688 64.7969 32.0781 64.7969
z

M9.8125 72.9062
L32.0781 72.9062
Q44.3438 72.9062 50.6094 67.3594
Q56.8906 61.8125 56.8906 51.125
Q56.8906 40.3281 50.6094 34.8125
Q44.3438 29.2969 32.0781 29.2969
L19.6719 29.2969
L19.6719 0
L9.8125 0
z
" id="BitstreamVeraSans-Roman-50"/>
     <path d="
M9.8125 72.9062
L19.6719 72.9062
L19.6719 8.29688
L55.1719 8.29688
L55.1719 0
L9.8125 0
z
" id="BitstreamVeraSans-Roman-4c"/>
     <path d="
M54.8906 33.0156
L54.8906 0
L45.9062 0
L45.9062 32.7188
Q45.9062 40.4844 42.875 44.3281
Q39.8438 48.1875 33.7969 48.1875
Q26.5156 48.1875 22.3125 43.5469
Q18.1094 38.9219 18.1094 30.9062
L18.1094 0
L9.07812 0
L9.07812 54.6875
L18.1094 54.6875
L18.1094 46.1875
Q21.3438 51.125 25.7031 53.5625
Q30.0781 56 35.7969 56
Q45.2188 56 50.0469 50.1719
Q54.8906 44.3438 54.8906 33.0156" id="BitstreamVeraSans-Roman-6e"/>
     <path d="
M31 75.875
Q24.4688 64.6562 21.2812 53.6562
Q18.1094 42.6719 18.1094 31.3906
Q18.1094 20.125 21.3125 9.0625
Q24.5156 -2 31 -13.1875
L23.1875 -13.1875
Q15.875 -1.70312 12.2344 9.375
Q8.59375 20.4531 8.59375 31.3906
Q8.59375 42.2812 12.2031 53.3125
Q15.8281 64.3594 23.1875 75.875
z
" id="BitstreamVeraSans-Roman-28"/>
     <path d="
M11.7188 12.4062
L22.0156 12.4062
L22.0156 0
L11.7188 0
z

M11.7188 51.7031
L22.0156 51.7031
L22.0156 39.3125
L11.7188 39.3125
z
" id="BitstreamVeraSans-Roman-3a"/>
     <path d="
M8.01562 75.875
L15.8281 75.875
Q23.1406 64.3594 26.7812 53.3125
Q30.4219 42.2812 30.4219 31.3906
Q30.4219 20.4531 26.7812 9.375
Q23.1406 -1.70312 15.8281 -13.1875
L8.01562 -13.1875
Q14.5 -2 17.7031 9.0625
Q20.9062 20.125 20.9062 31.3906
Q20.9062 42.6719 17.7031 53.6562
Q14.5 64.6562 8.01562 75.875" id="BitstreamVeraSans-Roman-29"/>
     <path d="
M11.7188 12.4062
L22.0156 12.4062
L22.0156 4
L14.0156 -11.625
L7.71875 -11.625
L11.7188 4
z
" id="BitstreamVeraSans-Roman-2c"/>
     <path d="
M19.6719 64.7969
L19.6719 8.10938
L31.5938 8.10938
Q46.6875 8.10938 53.6875 14.9375
Q60.6875 21.7812 60.6875 36.5312
Q60.6875 51.1719 53.6875 57.9844
Q46.6875 64.7969 31.5938 64.7969
z

M9.8125 72.9062
L30.0781 72.9062
Q51.2656 72.9062 61.1719 64.0938
Q71.0938 55.2812 71.0938 36.5312
Q71.0938 17.6719 61.125 8.82812
Q51.1719 0 30.0781 0
L9.8125 0
z
" id="BitstreamVeraSans-Roman-44"/>
     <path d="
M54.8906 54.6875
L35.1094 28.0781
L55.9062 0
L45.3125 0
L29.3906 21.4844
L13.4844 0
L2.875 0
L24.125 28.6094
L4.6875 54.6875
L15.2812 54.6875
L29.7812 35.2031
L44.2812 54.6875
z
" id="BitstreamVeraSans-Roman-78"/>
     <path d="
M2.98438 54.6875
L12.5 54.6875
L29.5938 8.79688
L46.6875 54.6875
L56.2031 54.6875
L35.6875 0
L23.4844 0
z
" id="BitstreamVeraSans-Roman-76"/>
     <path d="
M-0.203125 72.9062
L10.4062 72.9062
L30.6094 42.9219
L50.6875 72.9062
L61.2812 72.9062
L35.5 34.7188
L35.5 0
L25.5938 0
L25.5938 34.7188
z
" id="BitstreamVeraSans-Roman-59"/>
     <path d="
M45.4062 27.9844
Q45.4062 37.75 41.375 43.1094
Q37.3594 48.4844 30.0781 48.4844
Q22.8594 48.4844 18.8281 43.1094
Q14.7969 37.75 14.7969 27.9844
Q14.7969 18.2656 18.8281 12.8906
Q22.8594 7.51562 30.0781 7.51562
Q37.3594 7.51562 41.375 12.8906
Q45.4062 18.2656 45.4062 27.9844
M54.3906 6.78125
Q54.3906 -7.17188 48.1875 -13.9844
Q42 -20.7969 29.2031 -20.7969
Q24.4688 -20.7969 20.2656 -20.0938
Q16.0625 -19.3906 12.1094 -17.9219
L12.1094 -9.1875
Q16.0625 -11.3281 19.9219 -12.3438
Q23.7812 -13.375 27.7812 -13.375
Q36.625 -13.375 41.0156 -8.76562
Q45.4062 -4.15625 45.4062 5.17188
L45.4062 9.625
Q42.625 4.78125 38.2812 2.39062
Q33.9375 0 27.875 0
Q17.8281 0 11.6719 7.65625
Q5.51562 15.3281 5.51562 27.9844
Q5.51562 40.6719 11.6719 48.3281
Q17.8281 56 27.875 56
Q33.9375 56 38.2812 53.6094
Q42.625 51.2188 45.4062 46.3906
L45.4062 54.6875
L54.3906 54.6875
z
" id="BitstreamVeraSans-Roman-67"/>
     <path d="
M53.5156 70.5156
L53.5156 60.8906
Q47.9062 63.5781 42.9219 64.8906
Q37.9375 66.2188 33.2969 66.2188
Q25.25 66.2188 20.875 63.0938
Q16.5 59.9688 16.5 54.2031
Q16.5 49.3594 19.4062 46.8906
Q22.3125 44.4375 30.4219 42.9219
L36.375 41.7031
Q47.4062 39.5938 52.6562 34.2969
Q57.9062 29 57.9062 20.125
Q57.9062 9.51562 50.7969 4.04688
Q43.7031 -1.42188 29.9844 -1.42188
Q24.8125 -1.42188 18.9688 -0.25
Q13.1406 0.921875 6.89062 3.21875
L6.89062 13.375
Q12.8906 10.0156 18.6562 8.29688
Q24.4219 6.59375 29.9844 6.59375
Q38.4219 6.59375 43.0156 9.90625
Q47.6094 13.2344 47.6094 19.3906
Q47.6094 24.75 44.3125 27.7812
Q41.0156 30.8125 33.5 32.3281
L27.4844 33.5
Q16.4531 35.6875 11.5156 40.375
Q6.59375 45.0625 6.59375 53.4219
Q6.59375 63.0938 13.4062 68.6562
Q20.2188 74.2188 32.1719 74.2188
Q37.3125 74.2188 42.625 73.2812
Q47.9531 72.3594 53.5156 70.5156" id="BitstreamVeraSans-Roman-53"/>
     <path d="
M48.6875 27.2969
Q48.6875 37.2031 44.6094 42.8438
Q40.5312 48.4844 33.4062 48.4844
Q26.2656 48.4844 22.1875 42.8438
Q18.1094 37.2031 18.1094 27.2969
Q18.1094 17.3906 22.1875 11.75
Q26.2656 6.10938 33.4062 6.10938
Q40.5312 6.10938 44.6094 11.75
Q48.6875 17.3906 48.6875 27.2969
M18.1094 46.3906
Q20.9531 51.2656 25.2656 53.625
Q29.5938 56 35.5938 56
Q45.5625 56 51.7812 48.0938
Q58.0156 40.1875 58.0156 27.2969
Q58.0156 14.4062 51.7812 6.48438
Q45.5625 -1.42188 35.5938 -1.42188
Q29.5938 -1.42188 25.2656 0.953125
Q20.9531 3.32812 18.1094 8.20312
L18.1094 0
L9.07812 0
L9.07812 75.9844
L18.1094 75.9844
z
" id="BitstreamVeraSans-Roman-62"/>
    </defs>
    <g style="fill:#262626;" transform="translate(94.1475 22.396875)scale(0.2 -0.2)">
     <use xlink:href="#BitstreamVeraSans-Roman-44"/>
     <use x="77.001953125" xlink:href="#BitstreamVeraSans-Roman-61"/>
     <use x="138.28125" xlink:href="#BitstreamVeraSans-Roman-74"/>
     <use x="177.490234375" xlink:href="#BitstreamVeraSans-Roman-61"/>
     <use x="238.76953125" xlink:href="#BitstreamVeraSans-Roman-20"/>
     <use x="270.556640625" xlink:href="#BitstreamVeraSans-Roman-53"/>
     <use x="334.033203125" xlink:href="#BitstreamVeraSans-Roman-75"/>
     <use x="397.412109375" xlink:href="#BitstreamVeraSans-Roman-62"/>
     <use x="460.888671875" xlink:href="#BitstreamVeraSans-Roman-73"/>
     <use x="512.98828125" xlink:href="#BitstreamVeraSans-Roman-74"/>
     <use x="552.197265625" xlink:href="#BitstreamVeraSans-Roman-69"/>
     <use x="579.98046875" xlink:href="#BitstreamVeraSans-Roman-74"/>
     <use x="619.189453125" xlink:href="#BitstreamVeraSans-Roman-75"/>
     <use x="682.568359375" xlink:href="#BitstreamVeraSans-Roman-74"/>
     <use x="721.77734375" xlink:href="#BitstreamVeraSans-Roman-69"/>
     <use x="749.560546875" xlink:href="#BitstreamVeraSans-Roman-6f"/>
     <use x="810.7421875" xlink:href="#BitstreamVeraSans-Roman-6e"/>
     <use x="874.12109375" xlink:href="#BitstreamVeraSans-Roman-2c"/>
     <use x="905.908203125" xlink:href="#BitstreamVeraSans-Roman-20"/>
     <use x="937.6953125" xlink:href="#BitstreamVeraSans-Roman-4c"/>
     <use x="993.408203125" xlink:href="#BitstreamVeraSans-Roman-61"/>
     <use x="1054.6875" xlink:href="#BitstreamVeraSans-Roman-73"/>
     <use x="1106.78710938" xlink:href="#BitstreamVeraSans-Roman-74"/>
     <use x="1145.99609375" xlink:href="#BitstreamVeraSans-Roman-20"/>
     <use x="1177.78320312" xlink:href="#BitstreamVeraSans-Roman-59"/>
     <use x="1225.6171875" xlink:href="#BitstreamVeraSans-Roman-65"/>
     <use x="1287.140625" xlink:href="#BitstreamVeraSans-Roman-61"/>
     <use x="1348.41992188" xlink:href="#BitstreamVeraSans-Roman-72"/>
     <use x="1389.53320312" xlink:href="#BitstreamVeraSans-Roman-20"/>
     <use x="1421.3203125" xlink:href="#BitstreamVeraSans-Roman-76"/>
     <use x="1480.5" xlink:href="#BitstreamVeraSans-Roman-73"/>
     <use x="1532.59960938" xlink:href="#BitstreamVeraSans-Roman-2e"/>
     <use x="1564.38671875" xlink:href="#BitstreamVeraSans-Roman-20"/>
     <use x="1596.17382812" xlink:href="#BitstreamVeraSans-Roman-4e"/>
     <use x="1670.97851562" xlink:href="#BitstreamVeraSans-Roman-65"/>
     <use x="1730.75195312" xlink:href="#BitstreamVeraSans-Roman-78"/>
     <use x="1789.93164062" xlink:href="#BitstreamVeraSans-Roman-74"/>
     <use x="1829.140625" xlink:href="#BitstreamVeraSans-Roman-20"/>
     <use x="1860.92773438" xlink:href="#BitstreamVeraSans-Roman-59"/>
     <use x="1908.76171875" xlink:href="#BitstreamVeraSans-Roman-65"/>
     <use x="1970.28515625" xlink:href="#BitstreamVeraSans-Roman-61"/>
     <use x="2031.56445312" xlink:href="#BitstreamVeraSans-Roman-72"/>
     <use x="2070.92773438" xlink:href="#BitstreamVeraSans-Roman-3a"/>
     <use x="2104.61914062" xlink:href="#BitstreamVeraSans-Roman-20"/>
     <use x="2136.40625" xlink:href="#BitstreamVeraSans-Roman-28"/>
     <use x="2175.41992188" xlink:href="#BitstreamVeraSans-Roman-4f"/>
     <use x="2254.13085938" xlink:href="#BitstreamVeraSans-Roman-72"/>
     <use x="2295.24414062" xlink:href="#BitstreamVeraSans-Roman-69"/>
     <use x="2323.02734375" xlink:href="#BitstreamVeraSans-Roman-67"/>
     <use x="2386.50390625" xlink:href="#BitstreamVeraSans-Roman-69"/>
     <use x="2414.28710938" xlink:href="#BitstreamVeraSans-Roman-6e"/>
     <use x="2477.66601562" xlink:href="#BitstreamVeraSans-Roman-61"/>
     <use x="2538.9453125" xlink:href="#BitstreamVeraSans-Roman-6c"/>
     <use x="2566.72851562" xlink:href="#BitstreamVeraSans-Roman-20"/>
     <use x="2598.515625" xlink:href="#BitstreamVeraSans-Roman-2d"/>
     <use x="2634.59960938" xlink:href="#BitstreamVeraSans-Roman-20"/>
     <use x="2666.38671875" xlink:href="#BitstreamVeraSans-Roman-50"/>
     <use x="2723.06445312" xlink:href="#BitstreamVeraSans-Roman-65"/>
     <use x="2784.58789062" xlink:href="#BitstreamVeraSans-Roman-72"/>
     <use x="2825.70117188" xlink:href="#BitstreamVeraSans-Roman-74"/>
     <use x="2864.91015625" xlink:href="#BitstreamVeraSans-Roman-75"/>
     <use x="2928.2890625" xlink:href="#BitstreamVeraSans-Roman-72"/>
     <use x="2969.40234375" xlink:href="#BitstreamVeraSans-Roman-62"/>
     <use x="3032.87890625" xlink:href="#BitstreamVeraSans-Roman-65"/>
     <use x="3094.40234375" xlink:href="#BitstreamVeraSans-Roman-64"/>
     <use x="3157.87890625" xlink:href="#BitstreamVeraSans-Roman-29"/>
    </g>
   </g>
  </g>
  <g id="axes_2">
   <g id="patch_11">
    <path d="
M245.571 352.35
L580.371 352.35
L580.371 204.644
L245.571 204.644
z
" style="fill:none;"/>
   </g>
   <g id="matplotlib.axis_3">
    <g id="xtick_10">
     <g id="line2d_37">
      <path clip-path="url(#p4428a9803f)" d="
M245.571 352.35
L245.571 204.644" style="fill:none;stroke:#262626;stroke-dasharray:3.000000,5.000000,1.000000,5.000000;stroke-dashoffset:0.0;"/>
     </g>
     <g id="line2d_38">
      <g>
       <use style="fill:#262626;stroke:#262626;" x="245.5709375" xlink:href="#m219da94a98" y="352.349816176"/>
      </g>
     </g>
     <g id="line2d_39">
      <g>
       <use style="fill:#262626;stroke:#262626;" x="245.5709375" xlink:href="#m219da94a98" y="204.643933824"/>
      </g>
     </g>
    </g>
    <g id="xtick_11">
     <g id="line2d_40">
      <path clip-path="url(#p4428a9803f)" d="
M287.421 352.35
L287.421 204.644" style="fill:none;stroke:#262626;stroke-dasharray:3.000000,5.000000,1.000000,5.000000;stroke-dashoffset:0.0;"/>
     </g>
     <g id="line2d_41">
      <g>
       <use style="fill:#262626;stroke:#262626;" x="287.4209375" xlink:href="#m219da94a98" y="352.349816176"/>
      </g>
     </g>
     <g id="line2d_42">
      <g>
       <use style="fill:#262626;stroke:#262626;" x="287.4209375" xlink:href="#m219da94a98" y="204.643933824"/>
      </g>
     </g>
    </g>
    <g id="xtick_12">
     <g id="line2d_43">
      <path clip-path="url(#p4428a9803f)" d="
M329.271 352.35
L329.271 204.644" style="fill:none;stroke:#262626;stroke-dasharray:3.000000,5.000000,1.000000,5.000000;stroke-dashoffset:0.0;"/>
     </g>
     <g id="line2d_44">
      <g>
       <use style="fill:#262626;stroke:#262626;" x="329.2709375" xlink:href="#m219da94a98" y="352.349816176"/>
      </g>
     </g>
     <g id="line2d_45">
      <g>
       <use style="fill:#262626;stroke:#262626;" x="329.2709375" xlink:href="#m219da94a98" y="204.643933824"/>
      </g>
     </g>
    </g>
    <g id="xtick_13">
     <g id="line2d_46">
      <path clip-path="url(#p4428a9803f)" d="
M371.121 352.35
L371.121 204.644" style="fill:none;stroke:#262626;stroke-dasharray:3.000000,5.000000,1.000000,5.000000;stroke-dashoffset:0.0;"/>
     </g>
     <g id="line2d_47">
      <g>
       <use style="fill:#262626;stroke:#262626;" x="371.1209375" xlink:href="#m219da94a98" y="352.349816176"/>
      </g>
     </g>
     <g id="line2d_48">
      <g>
       <use style="fill:#262626;stroke:#262626;" x="371.1209375" xlink:href="#m219da94a98" y="204.643933824"/>
      </g>
     </g>
    </g>
    <g id="xtick_14">
     <g id="line2d_49">
      <path clip-path="url(#p4428a9803f)" d="
M412.971 352.35
L412.971 204.644" style="fill:none;stroke:#262626;stroke-dasharray:3.000000,5.000000,1.000000,5.000000;stroke-dashoffset:0.0;"/>
     </g>
     <g id="line2d_50">
      <g>
       <use style="fill:#262626;stroke:#262626;" x="412.9709375" xlink:href="#m219da94a98" y="352.349816176"/>
      </g>
     </g>
     <g id="line2d_51">
      <g>
       <use style="fill:#262626;stroke:#262626;" x="412.9709375" xlink:href="#m219da94a98" y="204.643933824"/>
      </g>
     </g>
    </g>
    <g id="xtick_15">
     <g id="line2d_52">
      <path clip-path="url(#p4428a9803f)" d="
M454.821 352.35
L454.821 204.644" style="fill:none;stroke:#262626;stroke-dasharray:3.000000,5.000000,1.000000,5.000000;stroke-dashoffset:0.0;"/>
     </g>
     <g id="line2d_53">
      <g>
       <use style="fill:#262626;stroke:#262626;" x="454.8209375" xlink:href="#m219da94a98" y="352.349816176"/>
      </g>
     </g>
     <g id="line2d_54">
      <g>
       <use style="fill:#262626;stroke:#262626;" x="454.8209375" xlink:href="#m219da94a98" y="204.643933824"/>
      </g>
     </g>
    </g>
    <g id="xtick_16">
     <g id="line2d_55">
      <path clip-path="url(#p4428a9803f)" d="
M496.671 352.35
L496.671 204.644" style="fill:none;stroke:#262626;stroke-dasharray:3.000000,5.000000,1.000000,5.000000;stroke-dashoffset:0.0;"/>
     </g>
     <g id="line2d_56">
      <g>
       <use style="fill:#262626;stroke:#262626;" x="496.6709375" xlink:href="#m219da94a98" y="352.349816176"/>
      </g>
     </g>
     <g id="line2d_57">
      <g>
       <use style="fill:#262626;stroke:#262626;" x="496.6709375" xlink:href="#m219da94a98" y="204.643933824"/>
      </g>
     </g>
    </g>
    <g id="xtick_17">
     <g id="line2d_58">
      <path clip-path="url(#p4428a9803f)" d="
M538.521 352.35
L538.521 204.644" style="fill:none;stroke:#262626;stroke-dasharray:3.000000,5.000000,1.000000,5.000000;stroke-dashoffset:0.0;"/>
     </g>
     <g id="line2d_59">
      <g>
       <use style="fill:#262626;stroke:#262626;" x="538.5209375" xlink:href="#m219da94a98" y="352.349816176"/>
      </g>
     </g>
     <g id="line2d_60">
      <g>
       <use style="fill:#262626;stroke:#262626;" x="538.5209375" xlink:href="#m219da94a98" y="204.643933824"/>
      </g>
     </g>
    </g>
    <g id="xtick_18">
     <g id="line2d_61">
      <path clip-path="url(#p4428a9803f)" d="
M580.371 352.35
L580.371 204.644" style="fill:none;stroke:#262626;stroke-dasharray:3.000000,5.000000,1.000000,5.000000;stroke-dashoffset:0.0;"/>
     </g>
     <g id="line2d_62">
      <g>
       <use style="fill:#262626;stroke:#262626;" x="580.3709375" xlink:href="#m219da94a98" y="352.349816176"/>
      </g>
     </g>
     <g id="line2d_63">
      <g>
       <use style="fill:#262626;stroke:#262626;" x="580.3709375" xlink:href="#m219da94a98" y="204.643933824"/>
      </g>
     </g>
    </g>
   </g>
   <g id="matplotlib.axis_4">
    <g id="ytick_3">
     <g id="line2d_64">
      <path clip-path="url(#p4428a9803f)" d="
M245.571 315.423
L580.371 315.423" style="fill:none;stroke:#262626;stroke-dasharray:3.000000,5.000000,1.000000,5.000000;stroke-dashoffset:0.0;"/>
     </g>
     <g id="line2d_65">
      <g>
       <use style="fill:#262626;stroke:#262626;" x="245.5709375" xlink:href="#m219da94a98" y="315.423345588"/>
      </g>
     </g>
     <g id="line2d_66">
      <g>
       <use style="fill:#262626;stroke:#262626;" x="580.3709375" xlink:href="#m219da94a98" y="315.423345588"/>
      </g>
     </g>
     <g id="text_7">
      <!-- Standard. Size of Coeff's -->
      <defs>
       <path d="
M37.1094 75.9844
L37.1094 68.5
L28.5156 68.5
Q23.6875 68.5 21.7969 66.5469
Q19.9219 64.5938 19.9219 59.5156
L19.9219 54.6875
L34.7188 54.6875
L34.7188 47.7031
L19.9219 47.7031
L19.9219 0
L10.8906 0
L10.8906 47.7031
L2.29688 47.7031
L2.29688 54.6875
L10.8906 54.6875
L10.8906 58.5
Q10.8906 67.625 15.1406 71.7969
Q19.3906 75.9844 28.6094 75.9844
z
" id="BitstreamVeraSans-Roman-66"/>
       <path d="
M64.4062 67.2812
L64.4062 56.8906
Q59.4219 61.5312 53.7812 63.8125
Q48.1406 66.1094 41.7969 66.1094
Q29.2969 66.1094 22.6562 58.4688
Q16.0156 50.8281 16.0156 36.375
Q16.0156 21.9688 22.6562 14.3281
Q29.2969 6.6875 41.7969 6.6875
Q48.1406 6.6875 53.7812 8.98438
Q59.4219 11.2812 64.4062 15.9219
L64.4062 5.60938
Q59.2344 2.09375 53.4375 0.328125
Q47.6562 -1.42188 41.2188 -1.42188
Q24.6562 -1.42188 15.125 8.70312
Q5.60938 18.8438 5.60938 36.375
Q5.60938 53.9531 15.125 64.0781
Q24.6562 74.2188 41.2188 74.2188
Q47.75 74.2188 53.5312 72.4844
Q59.3281 70.75 64.4062 67.2812" id="BitstreamVeraSans-Roman-43"/>
       <path d="
M17.9219 72.9062
L17.9219 45.7969
L9.625 45.7969
L9.625 72.9062
z
" id="BitstreamVeraSans-Roman-27"/>
       <path d="
M5.51562 54.6875
L48.1875 54.6875
L48.1875 46.4844
L14.4062 7.17188
L48.1875 7.17188
L48.1875 0
L4.29688 0
L4.29688 8.20312
L38.0938 47.5156
L5.51562 47.5156
z
" id="BitstreamVeraSans-Roman-7a"/>
      </defs>
      <g style="fill:#262626;" transform="translate(43.1459375 319.838345588)scale(0.16 -0.16)">
       <use xlink:href="#BitstreamVeraSans-Roman-53"/>
       <use x="63.4765625" xlink:href="#BitstreamVeraSans-Roman-74"/>
       <use x="102.685546875" xlink:href="#BitstreamVeraSans-Roman-61"/>
       <use x="163.96484375" xlink:href="#BitstreamVeraSans-Roman-6e"/>
       <use x="227.34375" xlink:href="#BitstreamVeraSans-Roman-64"/>
       <use x="290.8203125" xlink:href="#BitstreamVeraSans-Roman-61"/>
       <use x="352.099609375" xlink:href="#BitstreamVeraSans-Roman-72"/>
       <use x="391.462890625" xlink:href="#BitstreamVeraSans-Roman-64"/>
       <use x="454.939453125" xlink:href="#BitstreamVeraSans-Roman-2e"/>
       <use x="486.7265625" xlink:href="#BitstreamVeraSans-Roman-20"/>
       <use x="518.513671875" xlink:href="#BitstreamVeraSans-Roman-53"/>
       <use x="581.990234375" xlink:href="#BitstreamVeraSans-Roman-69"/>
       <use x="609.7734375" xlink:href="#BitstreamVeraSans-Roman-7a"/>
       <use x="662.263671875" xlink:href="#BitstreamVeraSans-Roman-65"/>
       <use x="723.787109375" xlink:href="#BitstreamVeraSans-Roman-20"/>
       <use x="755.57421875" xlink:href="#BitstreamVeraSans-Roman-6f"/>
       <use x="816.755859375" xlink:href="#BitstreamVeraSans-Roman-66"/>
       <use x="851.9609375" xlink:href="#BitstreamVeraSans-Roman-20"/>
       <use x="883.748046875" xlink:href="#BitstreamVeraSans-Roman-43"/>
       <use x="953.572265625" xlink:href="#BitstreamVeraSans-Roman-6f"/>
       <use x="1014.75390625" xlink:href="#BitstreamVeraSans-Roman-65"/>
       <use x="1076.27734375" xlink:href="#BitstreamVeraSans-Roman-66"/>
       <use x="1111.48242188" xlink:href="#BitstreamVeraSans-Roman-66"/>
       <use x="1146.6875" xlink:href="#BitstreamVeraSans-Roman-27"/>
       <use x="1174.17773438" xlink:href="#BitstreamVeraSans-Roman-73"/>
      </g>
     </g>
    </g>
    <g id="ytick_4">
     <g id="line2d_67">
      <path clip-path="url(#p4428a9803f)" d="
M245.571 241.57
L580.371 241.57" style="fill:none;stroke:#262626;stroke-dasharray:3.000000,5.000000,1.000000,5.000000;stroke-dashoffset:0.0;"/>
     </g>
     <g id="line2d_68">
      <g>
       <use style="fill:#262626;stroke:#262626;" x="245.5709375" xlink:href="#m219da94a98" y="241.570404412"/>
      </g>
     </g>
     <g id="line2d_69">
      <g>
       <use style="fill:#262626;stroke:#262626;" x="580.3709375" xlink:href="#m219da94a98" y="241.570404412"/>
      </g>
     </g>
     <g id="text_8">
      <!-- Prop. of Stat. Sign. Coeff's -->
      <defs>
       <path d="
M18.1094 8.20312
L18.1094 -20.7969
L9.07812 -20.7969
L9.07812 54.6875
L18.1094 54.6875
L18.1094 46.3906
Q20.9531 51.2656 25.2656 53.625
Q29.5938 56 35.5938 56
Q45.5625 56 51.7812 48.0938
Q58.0156 40.1875 58.0156 27.2969
Q58.0156 14.4062 51.7812 6.48438
Q45.5625 -1.42188 35.5938 -1.42188
Q29.5938 -1.42188 25.2656 0.953125
Q20.9531 3.32812 18.1094 8.20312
M48.6875 27.2969
Q48.6875 37.2031 44.6094 42.8438
Q40.5312 48.4844 33.4062 48.4844
Q26.2656 48.4844 22.1875 42.8438
Q18.1094 37.2031 18.1094 27.2969
Q18.1094 17.3906 22.1875 11.75
Q26.2656 6.10938 33.4062 6.10938
Q40.5312 6.10938 44.6094 11.75
Q48.6875 17.3906 48.6875 27.2969" id="BitstreamVeraSans-Roman-70"/>
      </defs>
      <g style="fill:#262626;" transform="translate(30.5884375 245.985404412)scale(0.16 -0.16)">
       <use xlink:href="#BitstreamVeraSans-Roman-50"/>
       <use x="58.552734375" xlink:href="#BitstreamVeraSans-Roman-72"/>
       <use x="97.416015625" xlink:href="#BitstreamVeraSans-Roman-6f"/>
       <use x="158.59765625" xlink:href="#BitstreamVeraSans-Roman-70"/>
       <use x="222.07421875" xlink:href="#BitstreamVeraSans-Roman-2e"/>
       <use x="253.861328125" xlink:href="#BitstreamVeraSans-Roman-20"/>
       <use x="285.6484375" xlink:href="#BitstreamVeraSans-Roman-6f"/>
       <use x="346.830078125" xlink:href="#BitstreamVeraSans-Roman-66"/>
       <use x="382.03515625" xlink:href="#BitstreamVeraSans-Roman-20"/>
       <use x="413.822265625" xlink:href="#BitstreamVeraSans-Roman-53"/>
       <use x="477.298828125" xlink:href="#BitstreamVeraSans-Roman-74"/>
       <use x="516.5078125" xlink:href="#BitstreamVeraSans-Roman-61"/>
       <use x="577.787109375" xlink:href="#BitstreamVeraSans-Roman-74"/>
       <use x="616.99609375" xlink:href="#BitstreamVeraSans-Roman-2e"/>
       <use x="648.783203125" xlink:href="#BitstreamVeraSans-Roman-20"/>
       <use x="680.5703125" xlink:href="#BitstreamVeraSans-Roman-53"/>
       <use x="744.046875" xlink:href="#BitstreamVeraSans-Roman-69"/>
       <use x="771.830078125" xlink:href="#BitstreamVeraSans-Roman-67"/>
       <use x="835.306640625" xlink:href="#BitstreamVeraSans-Roman-6e"/>
       <use x="898.685546875" xlink:href="#BitstreamVeraSans-Roman-2e"/>
       <use x="930.47265625" xlink:href="#BitstreamVeraSans-Roman-20"/>
       <use x="962.259765625" xlink:href="#BitstreamVeraSans-Roman-43"/>
       <use x="1032.08398438" xlink:href="#BitstreamVeraSans-Roman-6f"/>
       <use x="1093.265625" xlink:href="#BitstreamVeraSans-Roman-65"/>
       <use x="1154.7890625" xlink:href="#BitstreamVeraSans-Roman-66"/>
       <use x="1189.99414062" xlink:href="#BitstreamVeraSans-Roman-66"/>
       <use x="1225.19921875" xlink:href="#BitstreamVeraSans-Roman-27"/>
       <use x="1252.68945312" xlink:href="#BitstreamVeraSans-Roman-73"/>
      </g>
     </g>
    </g>
    <g id="text_9">
     <!-- Central IVs -->
     <defs>
      <path d="
M28.6094 0
L0.78125 72.9062
L11.0781 72.9062
L34.1875 11.5312
L57.3281 72.9062
L67.5781 72.9062
L39.7969 0
z
" id="BitstreamVeraSans-Roman-56"/>
      <path d="
M9.8125 72.9062
L19.6719 72.9062
L19.6719 0
L9.8125 0
z
" id="BitstreamVeraSans-Roman-49"/>
     </defs>
     <g style="fill:#262626;" transform="translate(21.63703125 329.893359375)rotate(-90.0)scale(0.19 -0.19)">
      <use xlink:href="#BitstreamVeraSans-Roman-43"/>
      <use x="69.82421875" xlink:href="#BitstreamVeraSans-Roman-65"/>
      <use x="131.34765625" xlink:href="#BitstreamVeraSans-Roman-6e"/>
      <use x="194.7265625" xlink:href="#BitstreamVeraSans-Roman-74"/>
      <use x="233.935546875" xlink:href="#BitstreamVeraSans-Roman-72"/>
      <use x="275.048828125" xlink:href="#BitstreamVeraSans-Roman-61"/>
      <use x="336.328125" xlink:href="#BitstreamVeraSans-Roman-6c"/>
      <use x="364.111328125" xlink:href="#BitstreamVeraSans-Roman-20"/>
      <use x="395.8984375" xlink:href="#BitstreamVeraSans-Roman-49"/>
      <use x="425.390625" xlink:href="#BitstreamVeraSans-Roman-56"/>
      <use x="493.798828125" xlink:href="#BitstreamVeraSans-Roman-73"/>
     </g>
    </g>
   </g>
   <g id="patch_12">
    <path clip-path="url(#p4428a9803f)" d="
M374.954 344.965
L580.371 344.965
L580.371 285.882
L374.954 285.882
z
" style="fill:#808080;stroke:#000000;stroke-width:0.3;"/>
   </g>
   <g id="patch_13">
    <path clip-path="url(#p4428a9803f)" d="
M471.995 271.112
L580.371 271.112
L580.371 212.029
L471.995 212.029
z
" style="fill:#808080;stroke:#000000;stroke-width:0.3;"/>
   </g>
   <g id="LineCollection_2">
    <defs>
     <path d="
M377.666 -266.279
L372.241 -266.279" id="C1_0_969a0e27e5"/>
     <path d="
M493.939 -340.132
L450.051 -340.132" id="C1_1_5206afff76"/>
    </defs>
    <g clip-path="url(#p4428a9803f)">
     <use style="fill:none;stroke:#000000;stroke-width:2.0;" x="0.0" xlink:href="#C1_0_969a0e27e5" y="581.7025"/>
    </g>
    <g clip-path="url(#p4428a9803f)">
     <use style="fill:none;stroke:#000000;stroke-width:2.0;" x="0.0" xlink:href="#C1_1_5206afff76" y="581.7025"/>
    </g>
   </g>
   <g id="line2d_70">
    <g clip-path="url(#p4428a9803f)">
     <use style="stroke:#000000;stroke-width:2;" x="377.66608595" xlink:href="#md9f6e4198b" y="315.423345588"/>
     <use style="stroke:#000000;stroke-width:2;" x="493.939440554" xlink:href="#md9f6e4198b" y="241.570404412"/>
    </g>
   </g>
   <g id="line2d_71">
    <g clip-path="url(#p4428a9803f)">
     <use style="stroke:#000000;stroke-width:2;" x="372.241422385" xlink:href="#md9f6e4198b" y="315.423345588"/>
     <use style="stroke:#000000;stroke-width:2;" x="450.050915571" xlink:href="#md9f6e4198b" y="241.570404412"/>
    </g>
   </g>
   <g id="line2d_72">
    <path clip-path="url(#p4428a9803f)" d="
M580.371 352.35
L580.371 204.644" style="fill:none;opacity:0.75;stroke:#000000;stroke-linecap:round;stroke-width:2;"/>
   </g>
   <g id="patch_14">
    <path d="
M245.571 204.644
L580.371 204.644" style="fill:none;"/>
   </g>
   <g id="patch_15">
    <path d="
M580.371 352.35
L580.371 204.644" style="fill:none;"/>
   </g>
   <g id="patch_16">
    <path d="
M245.571 352.35
L580.371 352.35" style="fill:none;"/>
   </g>
   <g id="patch_17">
    <path d="
M245.571 352.35
L245.571 204.644" style="fill:none;"/>
   </g>
   <g id="text_10">
    <g id="patch_18">
     <path d="
M599.296 323.949
L694.287 323.949
L694.287 306.898
L599.296 306.898
z
" style="fill:#ffffff;stroke:#000000;stroke-width:0.3;"/>
    </g>
    <!-- (0.156 - 0.148) -->
    <defs>
     <path d="
M16.75 68.7969
L55.8594 68.7969
L54.4375 61.3281
L23.3438 61.3281
L17.7812 39.5
Q18.7031 40.2812 20.0156 41.0625
Q21.3438 41.8438 23.0469 42.4688
Q24.75 43.1094 26.8281 43.5
Q28.9062 43.8906 31.2969 43.8906
Q35.6406 43.8906 39.2969 42.5938
Q42.9688 41.3125 45.6562 38.8438
Q48.3438 36.375 49.8281 32.8125
Q51.3125 29.25 51.3125 24.7031
Q51.3125 18.8906 49.5781 14.1562
Q47.8594 9.42188 44.4844 6.04688
Q41.1094 2.6875 36.125 0.84375
Q31.1562 -0.984375 24.6562 -0.984375
Q19.4844 -0.984375 15.6719 0.234375
Q11.8594 1.46875 9.20312 3.60938
Q6.54688 5.76562 4.85938 8.6875
Q3.17188 11.625 2.25 15.0938
L10.2031 17.1875
Q10.75 15.2344 11.7656 13.25
Q12.7969 11.2812 14.5469 9.71875
Q16.3125 8.15625 18.9219 7.17188
Q21.5312 6.20312 25.1406 6.20312
Q28.9531 6.20312 32.0781 7.26562
Q35.2031 8.34375 37.4219 10.5469
Q39.6562 12.75 40.8438 16.0469
Q42.0469 19.3438 42.0469 23.7344
Q42.0469 27 41.0469 29.4375
Q40.0469 31.8906 38.3594 33.5
Q36.6719 35.1094 34.3906 35.9062
Q32.125 36.7188 29.6406 36.7188
Q24.9531 36.7188 21.6719 35.3281
Q18.4062 33.9375 15.875 31.7812
L7.28125 31.7812
z
" id="LiberationSans-Italic-35"/>
    </defs>
    <g style="fill:#262626;" transform="translate(601.2959375 319.043658088)scale(0.14 -0.14)">
     <use xlink:href="#LiberationSans-Italic-28"/>
     <use x="33.30078125" xlink:href="#LiberationSans-Italic-30"/>
     <use x="88.916015625" xlink:href="#LiberationSans-Italic-2e"/>
     <use x="116.69921875" xlink:href="#LiberationSans-Italic-31"/>
     <use x="172.314453125" xlink:href="#LiberationSans-Italic-35"/>
     <use x="227.9296875" xlink:href="#LiberationSans-Italic-36"/>
     <use x="283.544921875" xlink:href="#LiberationSans-Italic-20"/>
     <use x="311.328125" xlink:href="#LiberationSans-Italic-2d"/>
     <use x="344.62890625" xlink:href="#LiberationSans-Italic-20"/>
     <use x="372.412109375" xlink:href="#LiberationSans-Italic-30"/>
     <use x="428.02734375" xlink:href="#LiberationSans-Italic-2e"/>
     <use x="455.810546875" xlink:href="#LiberationSans-Italic-31"/>
     <use x="511.42578125" xlink:href="#LiberationSans-Italic-34"/>
     <use x="567.041015625" xlink:href="#LiberationSans-Italic-38"/>
     <use x="622.65625" xlink:href="#LiberationSans-Italic-29"/>
    </g>
   </g>
   <g id="text_11">
    <g id="patch_19">
     <path d="
M599.296 250.096
L694.287 250.096
L694.287 233.045
L599.296 233.045
z
" style="fill:#ffffff;stroke:#000000;stroke-width:0.3;"/>
    </g>
    <!-- (0.435 - 0.423) -->
    <defs>
     <path d="
M27.6406 38.8125
Q29.3906 38.8125 31.4219 39
Q33.4531 39.2031 35.4219 39.7188
Q37.4062 40.2344 39.2031 41.2031
Q41.0156 42.1875 42.375 43.7188
Q43.75 45.2656 44.5781 47.4844
Q45.4062 49.7031 45.4062 52.7812
Q45.4062 54.9375 44.7031 56.7344
Q44 58.5469 42.6094 59.8438
Q41.2188 61.1406 39.2031 61.8594
Q37.2031 62.5938 34.5781 62.5938
Q28.7656 62.5938 24.5781 59.6094
Q20.4062 56.6406 18.75 51.2188
L10.0625 51.9062
Q12.8906 60.9844 19.4062 65.4062
Q25.9219 69.8281 35.0625 69.8281
Q39.5938 69.8281 43.2344 68.6719
Q46.875 67.5312 49.4375 65.3594
Q52 63.1875 53.3594 60.0781
Q54.7344 56.9844 54.7344 53.0312
Q54.7344 49.2188 53.4844 46.1094
Q52.25 43.0156 49.9062 40.7188
Q47.5625 38.4219 44.2344 36.9844
Q40.9219 35.5469 36.7656 35.0156
L36.7188 34.8125
Q43.1094 33.5469 46.6719 29.7031
Q50.25 25.875 50.25 19.875
Q50.25 15.625 48.7031 11.8125
Q47.1719 8.01562 44.1094 5.17188
Q41.0625 2.34375 36.4531 0.671875
Q31.8438 -0.984375 25.6875 -0.984375
Q20.125 -0.984375 16.0156 0.609375
Q11.9219 2.20312 9.10938 4.73438
Q6.29688 7.28125 4.65625 10.375
Q3.03125 13.4844 2.34375 16.5
L10.3594 18.8438
Q10.9375 16.6094 12.1719 14.375
Q13.4219 12.1562 15.4062 10.3438
Q17.3906 8.54688 20.125 7.42188
Q22.8594 6.29688 26.4219 6.29688
Q30.0312 6.29688 32.7656 7.29688
Q35.5 8.29688 37.3281 10.0781
Q39.1562 11.8594 40.1094 14.3281
Q41.0625 16.7969 41.0625 19.7344
Q41.0625 22.6562 40.0312 24.7969
Q39.0156 26.9531 37.1875 28.3594
Q35.3594 29.7812 32.8594 30.4844
Q30.375 31.2031 27.4375 31.2031
L21.3906 31.2031
L22.8594 38.8125
z
" id="LiberationSans-Italic-33"/>
     <path d="
M-0.59375 0
L0.59375 6.20312
Q3.26562 10.75 6.57812 14.3125
Q9.90625 17.875 13.5156 20.7812
Q17.1406 23.6875 20.875 26.0781
Q24.6094 28.4688 28.0938 30.6875
Q31.5938 32.9062 34.6406 35.1094
Q37.7031 37.3125 39.9844 39.7969
Q42.2812 42.2812 43.5938 45.2344
Q44.9219 48.1875 44.9219 51.9062
Q44.9219 54.3906 44.0938 56.3594
Q43.2656 58.3438 41.7656 59.7344
Q40.2812 61.1406 38.2031 61.8594
Q36.1406 62.5938 33.6406 62.5938
Q28.3281 62.5938 24.3594 59.6875
Q20.4062 56.7812 18.6094 50.9844
L10.2969 52.7812
Q11.4688 56.5 13.4688 59.625
Q15.4844 62.75 18.4062 65.0156
Q21.3438 67.2812 25.2656 68.5469
Q29.2031 69.8281 34.1875 69.8281
Q38.5312 69.8281 42.1875 68.6094
Q45.8438 67.3906 48.5 65.1094
Q51.1719 62.8438 52.6562 59.6875
Q54.1562 56.5469 54.1562 52.6406
Q54.1562 48.4844 52.7031 44.9688
Q51.2656 41.4531 48.8281 38.4531
Q46.3906 35.4531 43.1562 32.8125
Q39.9375 30.1719 36.375 27.7344
Q32.8125 25.2969 29.0938 22.9531
Q25.3906 20.6094 21.9688 18.1562
Q18.5625 15.7188 15.6719 13.1094
Q12.7969 10.5 10.8438 7.46875
L46.3438 7.46875
L44.9219 0
z
" id="LiberationSans-Italic-32"/>
    </defs>
    <g style="fill:#262626;" transform="translate(601.2959375 245.190716912)scale(0.14 -0.14)">
     <use xlink:href="#LiberationSans-Italic-28"/>
     <use x="33.30078125" xlink:href="#LiberationSans-Italic-30"/>
     <use x="88.916015625" xlink:href="#LiberationSans-Italic-2e"/>
     <use x="116.69921875" xlink:href="#LiberationSans-Italic-34"/>
     <use x="172.314453125" xlink:href="#LiberationSans-Italic-33"/>
     <use x="227.9296875" xlink:href="#LiberationSans-Italic-35"/>
     <use x="283.544921875" xlink:href="#LiberationSans-Italic-20"/>
     <use x="311.328125" xlink:href="#LiberationSans-Italic-2d"/>
     <use x="344.62890625" xlink:href="#LiberationSans-Italic-20"/>
     <use x="372.412109375" xlink:href="#LiberationSans-Italic-30"/>
     <use x="428.02734375" xlink:href="#LiberationSans-Italic-2e"/>
     <use x="455.810546875" xlink:href="#LiberationSans-Italic-34"/>
     <use x="511.42578125" xlink:href="#LiberationSans-Italic-32"/>
     <use x="567.041015625" xlink:href="#LiberationSans-Italic-33"/>
     <use x="622.65625" xlink:href="#LiberationSans-Italic-29"/>
    </g>
   </g>
  </g>
  <g id="axes_3">
   <g id="patch_20">
    <path d="
M245.571 529.597
L580.371 529.597
L580.371 381.891
L245.571 381.891
z
" style="fill:none;"/>
   </g>
   <g id="matplotlib.axis_5">
    <g id="xtick_19">
     <g id="line2d_73">
      <path clip-path="url(#pa20e42c231)" d="
M245.571 529.597
L245.571 381.891" style="fill:none;stroke:#262626;stroke-dasharray:3.000000,5.000000,1.000000,5.000000;stroke-dashoffset:0.0;"/>
     </g>
     <g id="line2d_74">
      <g>
       <use style="fill:#262626;stroke:#262626;" x="245.5709375" xlink:href="#m219da94a98" y="529.596875"/>
      </g>
     </g>
     <g id="line2d_75">
      <g>
       <use style="fill:#262626;stroke:#262626;" x="245.5709375" xlink:href="#m219da94a98" y="381.890992647"/>
      </g>
     </g>
     <g id="text_12">
      <!-- 8 -->
      <defs>
       <path d="
M10.5938 35.5
L73.1875 35.5
L73.1875 27.2031
L10.5938 27.2031
z
" id="BitstreamVeraSans-Roman-2212"/>
       <path d="
M31.7812 34.625
Q24.75 34.625 20.7188 30.8594
Q16.7031 27.0938 16.7031 20.5156
Q16.7031 13.9219 20.7188 10.1562
Q24.75 6.39062 31.7812 6.39062
Q38.8125 6.39062 42.8594 10.1719
Q46.9219 13.9688 46.9219 20.5156
Q46.9219 27.0938 42.8906 30.8594
Q38.875 34.625 31.7812 34.625
M21.9219 38.8125
Q15.5781 40.375 12.0312 44.7188
Q8.5 49.0781 8.5 55.3281
Q8.5 64.0625 14.7188 69.1406
Q20.9531 74.2188 31.7812 74.2188
Q42.6719 74.2188 48.875 69.1406
Q55.0781 64.0625 55.0781 55.3281
Q55.0781 49.0781 51.5312 44.7188
Q48 40.375 41.7031 38.8125
Q48.8281 37.1562 52.7969 32.3125
Q56.7812 27.4844 56.7812 20.5156
Q56.7812 9.90625 50.3125 4.23438
Q43.8438 -1.42188 31.7812 -1.42188
Q19.7344 -1.42188 13.25 4.23438
Q6.78125 9.90625 6.78125 20.5156
Q6.78125 27.4844 10.7812 32.3125
Q14.7969 37.1562 21.9219 38.8125
M18.3125 54.3906
Q18.3125 48.7344 21.8438 45.5625
Q25.3906 42.3906 31.7812 42.3906
Q38.1406 42.3906 41.7188 45.5625
Q45.3125 48.7344 45.3125 54.3906
Q45.3125 60.0625 41.7188 63.2344
Q38.1406 66.4062 31.7812 66.4062
Q25.3906 66.4062 21.8438 63.2344
Q18.3125 60.0625 18.3125 54.3906" id="BitstreamVeraSans-Roman-38"/>
      </defs>
      <g style="fill:#262626;" transform="translate(235.1721875 548.754375)scale(0.16 -0.16)">
       <use xlink:href="#BitstreamVeraSans-Roman-2212"/>
       <use x="83.7890625" xlink:href="#BitstreamVeraSans-Roman-38"/>
      </g>
     </g>
    </g>
    <g id="xtick_20">
     <g id="line2d_76">
      <path clip-path="url(#pa20e42c231)" d="
M287.421 529.597
L287.421 381.891" style="fill:none;stroke:#262626;stroke-dasharray:3.000000,5.000000,1.000000,5.000000;stroke-dashoffset:0.0;"/>
     </g>
     <g id="line2d_77">
      <g>
       <use style="fill:#262626;stroke:#262626;" x="287.4209375" xlink:href="#m219da94a98" y="529.596875"/>
      </g>
     </g>
     <g id="line2d_78">
      <g>
       <use style="fill:#262626;stroke:#262626;" x="287.4209375" xlink:href="#m219da94a98" y="381.890992647"/>
      </g>
     </g>
     <g id="text_13">
      <!-- 7 -->
      <defs>
       <path d="
M8.20312 72.9062
L55.0781 72.9062
L55.0781 68.7031
L28.6094 0
L18.3125 0
L43.2188 64.5938
L8.20312 64.5938
z
" id="BitstreamVeraSans-Roman-37"/>
      </defs>
      <g style="fill:#262626;" transform="translate(277.1584375 548.754375)scale(0.16 -0.16)">
       <use xlink:href="#BitstreamVeraSans-Roman-2212"/>
       <use x="83.7890625" xlink:href="#BitstreamVeraSans-Roman-37"/>
      </g>
     </g>
    </g>
    <g id="xtick_21">
     <g id="line2d_79">
      <path clip-path="url(#pa20e42c231)" d="
M329.271 529.597
L329.271 381.891" style="fill:none;stroke:#262626;stroke-dasharray:3.000000,5.000000,1.000000,5.000000;stroke-dashoffset:0.0;"/>
     </g>
     <g id="line2d_80">
      <g>
       <use style="fill:#262626;stroke:#262626;" x="329.2709375" xlink:href="#m219da94a98" y="529.596875"/>
      </g>
     </g>
     <g id="line2d_81">
      <g>
       <use style="fill:#262626;stroke:#262626;" x="329.2709375" xlink:href="#m219da94a98" y="381.890992647"/>
      </g>
     </g>
     <g id="text_14">
      <!-- 6 -->
      <defs>
       <path d="
M33.0156 40.375
Q26.375 40.375 22.4844 35.8281
Q18.6094 31.2969 18.6094 23.3906
Q18.6094 15.5312 22.4844 10.9531
Q26.375 6.39062 33.0156 6.39062
Q39.6562 6.39062 43.5312 10.9531
Q47.4062 15.5312 47.4062 23.3906
Q47.4062 31.2969 43.5312 35.8281
Q39.6562 40.375 33.0156 40.375
M52.5938 71.2969
L52.5938 62.3125
Q48.875 64.0625 45.0938 64.9844
Q41.3125 65.9219 37.5938 65.9219
Q27.8281 65.9219 22.6719 59.3281
Q17.5312 52.7344 16.7969 39.4062
Q19.6719 43.6562 24.0156 45.9219
Q28.375 48.1875 33.5938 48.1875
Q44.5781 48.1875 50.9531 41.5156
Q57.3281 34.8594 57.3281 23.3906
Q57.3281 12.1562 50.6875 5.35938
Q44.0469 -1.42188 33.0156 -1.42188
Q20.3594 -1.42188 13.6719 8.26562
Q6.98438 17.9688 6.98438 36.375
Q6.98438 53.6562 15.1875 63.9375
Q23.3906 74.2188 37.2031 74.2188
Q40.9219 74.2188 44.7031 73.4844
Q48.4844 72.75 52.5938 71.2969" id="BitstreamVeraSans-Roman-36"/>
      </defs>
      <g style="fill:#262626;" transform="translate(318.8284375 548.754375)scale(0.16 -0.16)">
       <use xlink:href="#BitstreamVeraSans-Roman-2212"/>
       <use x="83.7890625" xlink:href="#BitstreamVeraSans-Roman-36"/>
      </g>
     </g>
    </g>
    <g id="xtick_22">
     <g id="line2d_82">
      <path clip-path="url(#pa20e42c231)" d="
M371.121 529.597
L371.121 381.891" style="fill:none;stroke:#262626;stroke-dasharray:3.000000,5.000000,1.000000,5.000000;stroke-dashoffset:0.0;"/>
     </g>
     <g id="line2d_83">
      <g>
       <use style="fill:#262626;stroke:#262626;" x="371.1209375" xlink:href="#m219da94a98" y="529.596875"/>
      </g>
     </g>
     <g id="line2d_84">
      <g>
       <use style="fill:#262626;stroke:#262626;" x="371.1209375" xlink:href="#m219da94a98" y="381.890992647"/>
      </g>
     </g>
     <g id="text_15">
      <!-- 5 -->
      <defs>
       <path d="
M10.7969 72.9062
L49.5156 72.9062
L49.5156 64.5938
L19.8281 64.5938
L19.8281 46.7344
Q21.9688 47.4688 24.1094 47.8281
Q26.2656 48.1875 28.4219 48.1875
Q40.625 48.1875 47.75 41.5
Q54.8906 34.8125 54.8906 23.3906
Q54.8906 11.625 47.5625 5.09375
Q40.2344 -1.42188 26.9062 -1.42188
Q22.3125 -1.42188 17.5469 -0.640625
Q12.7969 0.140625 7.71875 1.70312
L7.71875 11.625
Q12.1094 9.23438 16.7969 8.0625
Q21.4844 6.89062 26.7031 6.89062
Q35.1562 6.89062 40.0781 11.3281
Q45.0156 15.7656 45.0156 23.3906
Q45.0156 31 40.0781 35.4375
Q35.1562 39.8906 26.7031 39.8906
Q22.75 39.8906 18.8125 39.0156
Q14.8906 38.1406 10.7969 36.2812
z
" id="BitstreamVeraSans-Roman-35"/>
      </defs>
      <g style="fill:#262626;" transform="translate(360.8734375 548.754375)scale(0.16 -0.16)">
       <use xlink:href="#BitstreamVeraSans-Roman-2212"/>
       <use x="83.7890625" xlink:href="#BitstreamVeraSans-Roman-35"/>
      </g>
     </g>
    </g>
    <g id="xtick_23">
     <g id="line2d_85">
      <path clip-path="url(#pa20e42c231)" d="
M412.971 529.597
L412.971 381.891" style="fill:none;stroke:#262626;stroke-dasharray:3.000000,5.000000,1.000000,5.000000;stroke-dashoffset:0.0;"/>
     </g>
     <g id="line2d_86">
      <g>
       <use style="fill:#262626;stroke:#262626;" x="412.9709375" xlink:href="#m219da94a98" y="529.596875"/>
      </g>
     </g>
     <g id="line2d_87">
      <g>
       <use style="fill:#262626;stroke:#262626;" x="412.9709375" xlink:href="#m219da94a98" y="381.890992647"/>
      </g>
     </g>
     <g id="text_16">
      <!-- 4 -->
      <defs>
       <path d="
M37.7969 64.3125
L12.8906 25.3906
L37.7969 25.3906
z

M35.2031 72.9062
L47.6094 72.9062
L47.6094 25.3906
L58.0156 25.3906
L58.0156 17.1875
L47.6094 17.1875
L47.6094 0
L37.7969 0
L37.7969 17.1875
L4.89062 17.1875
L4.89062 26.7031
z
" id="BitstreamVeraSans-Roman-34"/>
      </defs>
      <g style="fill:#262626;" transform="translate(402.4734375 548.754375)scale(0.16 -0.16)">
       <use xlink:href="#BitstreamVeraSans-Roman-2212"/>
       <use x="83.7890625" xlink:href="#BitstreamVeraSans-Roman-34"/>
      </g>
     </g>
    </g>
    <g id="xtick_24">
     <g id="line2d_88">
      <path clip-path="url(#pa20e42c231)" d="
M454.821 529.597
L454.821 381.891" style="fill:none;stroke:#262626;stroke-dasharray:3.000000,5.000000,1.000000,5.000000;stroke-dashoffset:0.0;"/>
     </g>
     <g id="line2d_89">
      <g>
       <use style="fill:#262626;stroke:#262626;" x="454.8209375" xlink:href="#m219da94a98" y="529.596875"/>
      </g>
     </g>
     <g id="line2d_90">
      <g>
       <use style="fill:#262626;stroke:#262626;" x="454.8209375" xlink:href="#m219da94a98" y="381.890992647"/>
      </g>
     </g>
     <g id="text_17">
      <!-- 3 -->
      <defs>
       <path d="
M40.5781 39.3125
Q47.6562 37.7969 51.625 33
Q55.6094 28.2188 55.6094 21.1875
Q55.6094 10.4062 48.1875 4.48438
Q40.7656 -1.42188 27.0938 -1.42188
Q22.5156 -1.42188 17.6562 -0.515625
Q12.7969 0.390625 7.625 2.20312
L7.625 11.7188
Q11.7188 9.32812 16.5938 8.10938
Q21.4844 6.89062 26.8125 6.89062
Q36.0781 6.89062 40.9375 10.5469
Q45.7969 14.2031 45.7969 21.1875
Q45.7969 27.6406 41.2812 31.2656
Q36.7656 34.9062 28.7188 34.9062
L20.2188 34.9062
L20.2188 43.0156
L29.1094 43.0156
Q36.375 43.0156 40.2344 45.9219
Q44.0938 48.8281 44.0938 54.2969
Q44.0938 59.9062 40.1094 62.9062
Q36.1406 65.9219 28.7188 65.9219
Q24.6562 65.9219 20.0156 65.0312
Q15.375 64.1562 9.8125 62.3125
L9.8125 71.0938
Q15.4375 72.6562 20.3438 73.4375
Q25.25 74.2188 29.5938 74.2188
Q40.8281 74.2188 47.3594 69.1094
Q53.9062 64.0156 53.9062 55.3281
Q53.9062 49.2656 50.4375 45.0938
Q46.9688 40.9219 40.5781 39.3125" id="BitstreamVeraSans-Roman-33"/>
      </defs>
      <g style="fill:#262626;" transform="translate(444.5159375 548.754375)scale(0.16 -0.16)">
       <use xlink:href="#BitstreamVeraSans-Roman-2212"/>
       <use x="83.7890625" xlink:href="#BitstreamVeraSans-Roman-33"/>
      </g>
     </g>
    </g>
    <g id="xtick_25">
     <g id="line2d_91">
      <path clip-path="url(#pa20e42c231)" d="
M496.671 529.597
L496.671 381.891" style="fill:none;stroke:#262626;stroke-dasharray:3.000000,5.000000,1.000000,5.000000;stroke-dashoffset:0.0;"/>
     </g>
     <g id="line2d_92">
      <g>
       <use style="fill:#262626;stroke:#262626;" x="496.6709375" xlink:href="#m219da94a98" y="529.596875"/>
      </g>
     </g>
     <g id="line2d_93">
      <g>
       <use style="fill:#262626;stroke:#262626;" x="496.6709375" xlink:href="#m219da94a98" y="381.890992647"/>
      </g>
     </g>
     <g id="text_18">
      <!-- 2 -->
      <defs>
       <path d="
M19.1875 8.29688
L53.6094 8.29688
L53.6094 0
L7.32812 0
L7.32812 8.29688
Q12.9375 14.1094 22.625 23.8906
Q32.3281 33.6875 34.8125 36.5312
Q39.5469 41.8438 41.4219 45.5312
Q43.3125 49.2188 43.3125 52.7812
Q43.3125 58.5938 39.2344 62.25
Q35.1562 65.9219 28.6094 65.9219
Q23.9688 65.9219 18.8125 64.3125
Q13.6719 62.7031 7.8125 59.4219
L7.8125 69.3906
Q13.7656 71.7812 18.9375 73
Q24.125 74.2188 28.4219 74.2188
Q39.75 74.2188 46.4844 68.5469
Q53.2188 62.8906 53.2188 53.4219
Q53.2188 48.9219 51.5312 44.8906
Q49.8594 40.875 45.4062 35.4062
Q44.1875 33.9844 37.6406 27.2188
Q31.1094 20.4531 19.1875 8.29688" id="BitstreamVeraSans-Roman-32"/>
      </defs>
      <g style="fill:#262626;" transform="translate(486.5259375 548.754375)scale(0.16 -0.16)">
       <use xlink:href="#BitstreamVeraSans-Roman-2212"/>
       <use x="83.7890625" xlink:href="#BitstreamVeraSans-Roman-32"/>
      </g>
     </g>
    </g>
    <g id="xtick_26">
     <g id="line2d_94">
      <path clip-path="url(#pa20e42c231)" d="
M538.521 529.597
L538.521 381.891" style="fill:none;stroke:#262626;stroke-dasharray:3.000000,5.000000,1.000000,5.000000;stroke-dashoffset:0.0;"/>
     </g>
     <g id="line2d_95">
      <g>
       <use style="fill:#262626;stroke:#262626;" x="538.5209375" xlink:href="#m219da94a98" y="529.596875"/>
      </g>
     </g>
     <g id="line2d_96">
      <g>
       <use style="fill:#262626;stroke:#262626;" x="538.5209375" xlink:href="#m219da94a98" y="381.890992647"/>
      </g>
     </g>
     <g id="text_19">
      <!-- 1 -->
      <defs>
       <path d="
M12.4062 8.29688
L28.5156 8.29688
L28.5156 63.9219
L10.9844 60.4062
L10.9844 69.3906
L28.4219 72.9062
L38.2812 72.9062
L38.2812 8.29688
L54.3906 8.29688
L54.3906 0
L12.4062 0
z
" id="BitstreamVeraSans-Roman-31"/>
      </defs>
      <g style="fill:#262626;" transform="translate(528.3134375 548.754375)scale(0.16 -0.16)">
       <use xlink:href="#BitstreamVeraSans-Roman-2212"/>
       <use x="83.7890625" xlink:href="#BitstreamVeraSans-Roman-31"/>
      </g>
     </g>
    </g>
    <g id="xtick_27">
     <g id="line2d_97">
      <path clip-path="url(#pa20e42c231)" d="
M580.371 529.597
L580.371 381.891" style="fill:none;stroke:#262626;stroke-dasharray:3.000000,5.000000,1.000000,5.000000;stroke-dashoffset:0.0;"/>
     </g>
     <g id="line2d_98">
      <g>
       <use style="fill:#262626;stroke:#262626;" x="580.3709375" xlink:href="#m219da94a98" y="529.596875"/>
      </g>
     </g>
     <g id="line2d_99">
      <g>
       <use style="fill:#262626;stroke:#262626;" x="580.3709375" xlink:href="#m219da94a98" y="381.890992647"/>
      </g>
     </g>
     <g id="text_20">
      <!-- 0 -->
      <defs>
       <path d="
M31.7812 66.4062
Q24.1719 66.4062 20.3281 58.9062
Q16.5 51.4219 16.5 36.375
Q16.5 21.3906 20.3281 13.8906
Q24.1719 6.39062 31.7812 6.39062
Q39.4531 6.39062 43.2812 13.8906
Q47.125 21.3906 47.125 36.375
Q47.125 51.4219 43.2812 58.9062
Q39.4531 66.4062 31.7812 66.4062
M31.7812 74.2188
Q44.0469 74.2188 50.5156 64.5156
Q56.9844 54.8281 56.9844 36.375
Q56.9844 17.9688 50.5156 8.26562
Q44.0469 -1.42188 31.7812 -1.42188
Q19.5312 -1.42188 13.0625 8.26562
Q6.59375 17.9688 6.59375 36.375
Q6.59375 54.8281 13.0625 64.5156
Q19.5312 74.2188 31.7812 74.2188" id="BitstreamVeraSans-Roman-30"/>
      </defs>
      <g style="fill:#262626;" transform="translate(576.3396875 548.754375)scale(0.16 -0.16)">
       <use xlink:href="#BitstreamVeraSans-Roman-30"/>
      </g>
     </g>
    </g>
    <g id="text_21">
     <!-- Percent Change -->
     <defs>
      <path d="
M54.8906 33.0156
L54.8906 0
L45.9062 0
L45.9062 32.7188
Q45.9062 40.4844 42.875 44.3281
Q39.8438 48.1875 33.7969 48.1875
Q26.5156 48.1875 22.3125 43.5469
Q18.1094 38.9219 18.1094 30.9062
L18.1094 0
L9.07812 0
L9.07812 75.9844
L18.1094 75.9844
L18.1094 46.1875
Q21.3438 51.125 25.7031 53.5625
Q30.0781 56 35.7969 56
Q45.2188 56 50.0469 50.1719
Q54.8906 44.3438 54.8906 33.0156" id="BitstreamVeraSans-Roman-68"/>
      <path d="
M48.7812 52.5938
L48.7812 44.1875
Q44.9688 46.2969 41.1406 47.3438
Q37.3125 48.3906 33.4062 48.3906
Q24.6562 48.3906 19.8125 42.8438
Q14.9844 37.3125 14.9844 27.2969
Q14.9844 17.2812 19.8125 11.7344
Q24.6562 6.20312 33.4062 6.20312
Q37.3125 6.20312 41.1406 7.25
Q44.9688 8.29688 48.7812 10.4062
L48.7812 2.09375
Q45.0156 0.34375 40.9844 -0.53125
Q36.9688 -1.42188 32.4219 -1.42188
Q20.0625 -1.42188 12.7812 6.34375
Q5.51562 14.1094 5.51562 27.2969
Q5.51562 40.6719 12.8594 48.3281
Q20.2188 56 33.0156 56
Q37.1562 56 41.1094 55.1406
Q45.0625 54.2969 48.7812 52.5938" id="BitstreamVeraSans-Roman-63"/>
     </defs>
     <g style="fill:#262626;" transform="translate(342.27734375 570.7590625)scale(0.18 -0.18)">
      <use xlink:href="#BitstreamVeraSans-Roman-50"/>
      <use x="56.677734375" xlink:href="#BitstreamVeraSans-Roman-65"/>
      <use x="118.201171875" xlink:href="#BitstreamVeraSans-Roman-72"/>
      <use x="157.064453125" xlink:href="#BitstreamVeraSans-Roman-63"/>
      <use x="212.044921875" xlink:href="#BitstreamVeraSans-Roman-65"/>
      <use x="273.568359375" xlink:href="#BitstreamVeraSans-Roman-6e"/>
      <use x="336.947265625" xlink:href="#BitstreamVeraSans-Roman-74"/>
      <use x="376.15625" xlink:href="#BitstreamVeraSans-Roman-20"/>
      <use x="407.943359375" xlink:href="#BitstreamVeraSans-Roman-43"/>
      <use x="477.767578125" xlink:href="#BitstreamVeraSans-Roman-68"/>
      <use x="541.146484375" xlink:href="#BitstreamVeraSans-Roman-61"/>
      <use x="602.42578125" xlink:href="#BitstreamVeraSans-Roman-6e"/>
      <use x="665.8046875" xlink:href="#BitstreamVeraSans-Roman-67"/>
      <use x="729.28125" xlink:href="#BitstreamVeraSans-Roman-65"/>
     </g>
    </g>
   </g>
   <g id="matplotlib.axis_6">
    <g id="ytick_5">
     <g id="line2d_100">
      <path clip-path="url(#pa20e42c231)" d="
M245.571 492.67
L580.371 492.67" style="fill:none;stroke:#262626;stroke-dasharray:3.000000,5.000000,1.000000,5.000000;stroke-dashoffset:0.0;"/>
     </g>
     <g id="line2d_101">
      <g>
       <use style="fill:#262626;stroke:#262626;" x="245.5709375" xlink:href="#m219da94a98" y="492.670404412"/>
      </g>
     </g>
     <g id="line2d_102">
      <g>
       <use style="fill:#262626;stroke:#262626;" x="580.3709375" xlink:href="#m219da94a98" y="492.670404412"/>
      </g>
     </g>
     <g id="text_22">
      <!-- Standard. Size of Coeff's -->
      <g style="fill:#262626;" transform="translate(43.1459375 497.085404412)scale(0.16 -0.16)">
       <use xlink:href="#BitstreamVeraSans-Roman-53"/>
       <use x="63.4765625" xlink:href="#BitstreamVeraSans-Roman-74"/>
       <use x="102.685546875" xlink:href="#BitstreamVeraSans-Roman-61"/>
       <use x="163.96484375" xlink:href="#BitstreamVeraSans-Roman-6e"/>
       <use x="227.34375" xlink:href="#BitstreamVeraSans-Roman-64"/>
       <use x="290.8203125" xlink:href="#BitstreamVeraSans-Roman-61"/>
       <use x="352.099609375" xlink:href="#BitstreamVeraSans-Roman-72"/>
       <use x="391.462890625" xlink:href="#BitstreamVeraSans-Roman-64"/>
       <use x="454.939453125" xlink:href="#BitstreamVeraSans-Roman-2e"/>
       <use x="486.7265625" xlink:href="#BitstreamVeraSans-Roman-20"/>
       <use x="518.513671875" xlink:href="#BitstreamVeraSans-Roman-53"/>
       <use x="581.990234375" xlink:href="#BitstreamVeraSans-Roman-69"/>
       <use x="609.7734375" xlink:href="#BitstreamVeraSans-Roman-7a"/>
       <use x="662.263671875" xlink:href="#BitstreamVeraSans-Roman-65"/>
       <use x="723.787109375" xlink:href="#BitstreamVeraSans-Roman-20"/>
       <use x="755.57421875" xlink:href="#BitstreamVeraSans-Roman-6f"/>
       <use x="816.755859375" xlink:href="#BitstreamVeraSans-Roman-66"/>
       <use x="851.9609375" xlink:href="#BitstreamVeraSans-Roman-20"/>
       <use x="883.748046875" xlink:href="#BitstreamVeraSans-Roman-43"/>
       <use x="953.572265625" xlink:href="#BitstreamVeraSans-Roman-6f"/>
       <use x="1014.75390625" xlink:href="#BitstreamVeraSans-Roman-65"/>
       <use x="1076.27734375" xlink:href="#BitstreamVeraSans-Roman-66"/>
       <use x="1111.48242188" xlink:href="#BitstreamVeraSans-Roman-66"/>
       <use x="1146.6875" xlink:href="#BitstreamVeraSans-Roman-27"/>
       <use x="1174.17773438" xlink:href="#BitstreamVeraSans-Roman-73"/>
      </g>
     </g>
    </g>
    <g id="ytick_6">
     <g id="line2d_103">
      <path clip-path="url(#pa20e42c231)" d="
M245.571 418.817
L580.371 418.817" style="fill:none;stroke:#262626;stroke-dasharray:3.000000,5.000000,1.000000,5.000000;stroke-dashoffset:0.0;"/>
     </g>
     <g id="line2d_104">
      <g>
       <use style="fill:#262626;stroke:#262626;" x="245.5709375" xlink:href="#m219da94a98" y="418.817463235"/>
      </g>
     </g>
     <g id="line2d_105">
      <g>
       <use style="fill:#262626;stroke:#262626;" x="580.3709375" xlink:href="#m219da94a98" y="418.817463235"/>
      </g>
     </g>
     <g id="text_23">
      <!-- Prop. of Stat. Sign. Coeff's -->
      <g style="fill:#262626;" transform="translate(30.5884375 423.232463235)scale(0.16 -0.16)">
       <use xlink:href="#BitstreamVeraSans-Roman-50"/>
       <use x="58.552734375" xlink:href="#BitstreamVeraSans-Roman-72"/>
       <use x="97.416015625" xlink:href="#BitstreamVeraSans-Roman-6f"/>
       <use x="158.59765625" xlink:href="#BitstreamVeraSans-Roman-70"/>
       <use x="222.07421875" xlink:href="#BitstreamVeraSans-Roman-2e"/>
       <use x="253.861328125" xlink:href="#BitstreamVeraSans-Roman-20"/>
       <use x="285.6484375" xlink:href="#BitstreamVeraSans-Roman-6f"/>
       <use x="346.830078125" xlink:href="#BitstreamVeraSans-Roman-66"/>
       <use x="382.03515625" xlink:href="#BitstreamVeraSans-Roman-20"/>
       <use x="413.822265625" xlink:href="#BitstreamVeraSans-Roman-53"/>
       <use x="477.298828125" xlink:href="#BitstreamVeraSans-Roman-74"/>
       <use x="516.5078125" xlink:href="#BitstreamVeraSans-Roman-61"/>
       <use x="577.787109375" xlink:href="#BitstreamVeraSans-Roman-74"/>
       <use x="616.99609375" xlink:href="#BitstreamVeraSans-Roman-2e"/>
       <use x="648.783203125" xlink:href="#BitstreamVeraSans-Roman-20"/>
       <use x="680.5703125" xlink:href="#BitstreamVeraSans-Roman-53"/>
       <use x="744.046875" xlink:href="#BitstreamVeraSans-Roman-69"/>
       <use x="771.830078125" xlink:href="#BitstreamVeraSans-Roman-67"/>
       <use x="835.306640625" xlink:href="#BitstreamVeraSans-Roman-6e"/>
       <use x="898.685546875" xlink:href="#BitstreamVeraSans-Roman-2e"/>
       <use x="930.47265625" xlink:href="#BitstreamVeraSans-Roman-20"/>
       <use x="962.259765625" xlink:href="#BitstreamVeraSans-Roman-43"/>
       <use x="1032.08398438" xlink:href="#BitstreamVeraSans-Roman-6f"/>
       <use x="1093.265625" xlink:href="#BitstreamVeraSans-Roman-65"/>
       <use x="1154.7890625" xlink:href="#BitstreamVeraSans-Roman-66"/>
       <use x="1189.99414062" xlink:href="#BitstreamVeraSans-Roman-66"/>
       <use x="1225.19921875" xlink:href="#BitstreamVeraSans-Roman-27"/>
       <use x="1252.68945312" xlink:href="#BitstreamVeraSans-Roman-73"/>
      </g>
     </g>
    </g>
    <g id="text_24">
     <!-- All IVs -->
     <g style="fill:#262626;" transform="translate(21.63703125 484.327058824)rotate(-90.0)scale(0.19 -0.19)">
      <use xlink:href="#BitstreamVeraSans-Roman-41"/>
      <use x="68.408203125" xlink:href="#BitstreamVeraSans-Roman-6c"/>
      <use x="96.19140625" xlink:href="#BitstreamVeraSans-Roman-6c"/>
      <use x="123.974609375" xlink:href="#BitstreamVeraSans-Roman-20"/>
      <use x="155.76171875" xlink:href="#BitstreamVeraSans-Roman-49"/>
      <use x="185.25390625" xlink:href="#BitstreamVeraSans-Roman-56"/>
      <use x="253.662109375" xlink:href="#BitstreamVeraSans-Roman-73"/>
     </g>
    </g>
   </g>
   <g id="patch_21">
    <path clip-path="url(#pa20e42c231)" d="
M405.601 522.212
L580.371 522.212
L580.371 463.129
L405.601 463.129
z
" style="fill:#808080;stroke:#000000;stroke-width:0.3;"/>
   </g>
   <g id="patch_22">
    <path clip-path="url(#pa20e42c231)" d="
M455.889 448.359
L580.371 448.359
L580.371 389.276
L455.889 389.276
z
" style="fill:#808080;stroke:#000000;stroke-width:0.3;"/>
   </g>
   <g id="LineCollection_3">
    <defs>
     <path d="
M408.427 -89.0321
L402.776 -89.0321" id="C2_0_61f71ff16c"/>
     <path d="
M472.049 -162.885
L439.73 -162.885" id="C2_1_5ee6ea6655"/>
    </defs>
    <g clip-path="url(#pa20e42c231)">
     <use style="fill:none;stroke:#000000;stroke-width:2.0;" x="0.0" xlink:href="#C2_0_61f71ff16c" y="581.7025"/>
    </g>
    <g clip-path="url(#pa20e42c231)">
     <use style="fill:none;stroke:#000000;stroke-width:2.0;" x="0.0" xlink:href="#C2_1_5ee6ea6655" y="581.7025"/>
    </g>
   </g>
   <g id="line2d_106">
    <g clip-path="url(#pa20e42c231)">
     <use style="stroke:#000000;stroke-width:2;" x="408.426756184" xlink:href="#md9f6e4198b" y="492.670404412"/>
     <use style="stroke:#000000;stroke-width:2;" x="472.048841133" xlink:href="#md9f6e4198b" y="418.817463235"/>
    </g>
   </g>
   <g id="line2d_107">
    <g clip-path="url(#pa20e42c231)">
     <use style="stroke:#000000;stroke-width:2;" x="402.775846613" xlink:href="#md9f6e4198b" y="492.670404412"/>
     <use style="stroke:#000000;stroke-width:2;" x="439.729916156" xlink:href="#md9f6e4198b" y="418.817463235"/>
    </g>
   </g>
   <g id="line2d_108">
    <path clip-path="url(#pa20e42c231)" d="
M580.371 529.597
L580.371 381.891" style="fill:none;opacity:0.75;stroke:#000000;stroke-linecap:round;stroke-width:2;"/>
   </g>
   <g id="patch_23">
    <path d="
M245.571 381.891
L580.371 381.891" style="fill:none;"/>
   </g>
   <g id="patch_24">
    <path d="
M580.371 529.597
L580.371 381.891" style="fill:none;"/>
   </g>
   <g id="patch_25">
    <path d="
M245.571 529.597
L580.371 529.597" style="fill:none;"/>
   </g>
   <g id="patch_26">
    <path d="
M245.571 529.597
L245.571 381.891" style="fill:none;"/>
   </g>
   <g id="text_25">
    <g id="patch_27">
     <path d="
M599.296 501.196
L694.287 501.196
L694.287 484.145
L599.296 484.145
z
" style="fill:#ffffff;stroke:#000000;stroke-width:0.3;"/>
    </g>
    <!-- (0.158 - 0.152) -->
    <g style="fill:#262626;" transform="translate(601.2959375 496.290716912)scale(0.14 -0.14)">
     <use xlink:href="#LiberationSans-Italic-28"/>
     <use x="33.30078125" xlink:href="#LiberationSans-Italic-30"/>
     <use x="88.916015625" xlink:href="#LiberationSans-Italic-2e"/>
     <use x="116.69921875" xlink:href="#LiberationSans-Italic-31"/>
     <use x="172.314453125" xlink:href="#LiberationSans-Italic-35"/>
     <use x="227.9296875" xlink:href="#LiberationSans-Italic-38"/>
     <use x="283.544921875" xlink:href="#LiberationSans-Italic-20"/>
     <use x="311.328125" xlink:href="#LiberationSans-Italic-2d"/>
     <use x="344.62890625" xlink:href="#LiberationSans-Italic-20"/>
     <use x="372.412109375" xlink:href="#LiberationSans-Italic-30"/>
     <use x="428.02734375" xlink:href="#LiberationSans-Italic-2e"/>
     <use x="455.810546875" xlink:href="#LiberationSans-Italic-31"/>
     <use x="511.42578125" xlink:href="#LiberationSans-Italic-35"/>
     <use x="567.041015625" xlink:href="#LiberationSans-Italic-32"/>
     <use x="622.65625" xlink:href="#LiberationSans-Italic-29"/>
    </g>
   </g>
   <g id="text_26">
    <g id="patch_28">
     <path d="
M599.296 427.343
L694.287 427.343
L694.287 410.292
L599.296 410.292
z
" style="fill:#ffffff;stroke:#000000;stroke-width:0.3;"/>
    </g>
    <!-- (0.427 - 0.414) -->
    <g style="fill:#262626;" transform="translate(601.2959375 422.437775735)scale(0.14 -0.14)">
     <use xlink:href="#LiberationSans-Italic-28"/>
     <use x="33.30078125" xlink:href="#LiberationSans-Italic-30"/>
     <use x="88.916015625" xlink:href="#LiberationSans-Italic-2e"/>
     <use x="116.69921875" xlink:href="#LiberationSans-Italic-34"/>
     <use x="172.314453125" xlink:href="#LiberationSans-Italic-32"/>
     <use x="227.9296875" xlink:href="#LiberationSans-Italic-37"/>
     <use x="283.544921875" xlink:href="#LiberationSans-Italic-20"/>
     <use x="311.328125" xlink:href="#LiberationSans-Italic-2d"/>
     <use x="344.62890625" xlink:href="#LiberationSans-Italic-20"/>
     <use x="372.412109375" xlink:href="#LiberationSans-Italic-30"/>
     <use x="428.02734375" xlink:href="#LiberationSans-Italic-2e"/>
     <use x="455.810546875" xlink:href="#LiberationSans-Italic-34"/>
     <use x="511.42578125" xlink:href="#LiberationSans-Italic-31"/>
     <use x="567.041015625" xlink:href="#LiberationSans-Italic-34"/>
     <use x="622.65625" xlink:href="#LiberationSans-Italic-29"/>
    </g>
   </g>
  </g>
 </g>
 <defs>
  <clipPath id="p4428a9803f">
   <rect height="147.705882353" width="334.8" x="245.5709375" y="204.643933824"/>
  </clipPath>
  <clipPath id="pa20e42c231">
   <rect height="147.705882353" width="334.8" x="245.5709375" y="381.890992647"/>
  </clipPath>
  <clipPath id="p8bc3404f5a">
   <rect height="147.705882353" width="334.8" x="245.5709375" y="27.396875"/>
  </clipPath>
 </defs>
</svg>
