<?xml version="1.0" encoding="utf-8" standalone="no"?>
<!DOCTYPE svg PUBLIC "-//W3C//DTD SVG 1.1//EN"
  "http://www.w3.org/Graphics/SVG/1.1/DTD/svg11.dtd">
<!-- Created with matplotlib (http://matplotlib.org/) -->
<svg height="408pt" version="1.1" viewBox="0 0 519 408" width="519pt" xmlns="http://www.w3.org/2000/svg" xmlns:xlink="http://www.w3.org/1999/xlink">
 <defs>
  <style type="text/css">
*{stroke-linecap:butt;stroke-linejoin:round;}
  </style>
 </defs>
 <g id="figure_1">
  <g id="patch_1">
   <path d="
M0 408.912
L519.792 408.912
L519.792 0
L0 0
z
" style="fill:#ffffff;"/>
  </g>
  <g id="axes_1">
   <g id="patch_2">
    <path d="
M55.5867 360.677
L501.987 360.677
L501.987 25.8772
L55.5867 25.8772
z
" style="fill:none;"/>
   </g>
   <g id="matplotlib.axis_1">
    <g id="xtick_1">
     <g id="line2d_1">
      <path clip-path="url(#pf270f86476)" d="
M55.5867 360.677
L55.5867 25.8772" style="fill:none;stroke:#262626;stroke-dasharray:3.000000,5.000000,1.000000,5.000000;stroke-dashoffset:0.0;"/>
     </g>
     <g id="line2d_2">
      <defs>
       <path d="
M0 0
L0 0" id="m219da94a98" style="stroke:#262626;"/>
      </defs>
      <g>
       <use style="fill:#262626;stroke:#262626;" x="55.58671875" xlink:href="#m219da94a98" y="360.6771875"/>
      </g>
     </g>
     <g id="line2d_3">
      <g>
       <use style="fill:#262626;stroke:#262626;" x="55.58671875" xlink:href="#m219da94a98" y="25.8771875"/>
      </g>
     </g>
     <g id="text_1">
      <!-- 0.0 -->
      <defs>
       <path d="
M31.7812 66.4062
Q24.1719 66.4062 20.3281 58.9062
Q16.5 51.4219 16.5 36.375
Q16.5 21.3906 20.3281 13.8906
Q24.1719 6.39062 31.7812 6.39062
Q39.4531 6.39062 43.2812 13.8906
Q47.125 21.3906 47.125 36.375
Q47.125 51.4219 43.2812 58.9062
Q39.4531 66.4062 31.7812 66.4062
M31.7812 74.2188
Q44.0469 74.2188 50.5156 64.5156
Q56.9844 54.8281 56.9844 36.375
Q56.9844 17.9688 50.5156 8.26562
Q44.0469 -1.42188 31.7812 -1.42188
Q19.5312 -1.42188 13.0625 8.26562
Q6.59375 17.9688 6.59375 36.375
Q6.59375 54.8281 13.0625 64.5156
Q19.5312 74.2188 31.7812 74.2188" id="BitstreamVeraSans-Roman-30"/>
       <path d="
M10.6875 12.4062
L21 12.4062
L21 0
L10.6875 0
z
" id="BitstreamVeraSans-Roman-2e"/>
      </defs>
      <g style="fill:#262626;" transform="translate(44.651953125 379.07484375)scale(0.15 -0.15)">
       <use xlink:href="#BitstreamVeraSans-Roman-30"/>
       <use x="63.623046875" xlink:href="#BitstreamVeraSans-Roman-2e"/>
       <use x="95.41015625" xlink:href="#BitstreamVeraSans-Roman-30"/>
      </g>
     </g>
    </g>
    <g id="xtick_2">
     <g id="line2d_4">
      <path clip-path="url(#pf270f86476)" d="
M144.867 360.677
L144.867 25.8772" style="fill:none;stroke:#262626;stroke-dasharray:3.000000,5.000000,1.000000,5.000000;stroke-dashoffset:0.0;"/>
     </g>
     <g id="line2d_5">
      <g>
       <use style="fill:#262626;stroke:#262626;" x="144.86671875" xlink:href="#m219da94a98" y="360.6771875"/>
      </g>
     </g>
     <g id="line2d_6">
      <g>
       <use style="fill:#262626;stroke:#262626;" x="144.86671875" xlink:href="#m219da94a98" y="25.8771875"/>
      </g>
     </g>
     <g id="text_2">
      <!-- 0.2 -->
      <defs>
       <path d="
M19.1875 8.29688
L53.6094 8.29688
L53.6094 0
L7.32812 0
L7.32812 8.29688
Q12.9375 14.1094 22.625 23.8906
Q32.3281 33.6875 34.8125 36.5312
Q39.5469 41.8438 41.4219 45.5312
Q43.3125 49.2188 43.3125 52.7812
Q43.3125 58.5938 39.2344 62.25
Q35.1562 65.9219 28.6094 65.9219
Q23.9688 65.9219 18.8125 64.3125
Q13.6719 62.7031 7.8125 59.4219
L7.8125 69.3906
Q13.7656 71.7812 18.9375 73
Q24.125 74.2188 28.4219 74.2188
Q39.75 74.2188 46.4844 68.5469
Q53.2188 62.8906 53.2188 53.4219
Q53.2188 48.9219 51.5312 44.8906
Q49.8594 40.875 45.4062 35.4062
Q44.1875 33.9844 37.6406 27.2188
Q31.1094 20.4531 19.1875 8.29688" id="BitstreamVeraSans-Roman-32"/>
      </defs>
      <g style="fill:#262626;" transform="translate(134.185078125 379.07484375)scale(0.15 -0.15)">
       <use xlink:href="#BitstreamVeraSans-Roman-30"/>
       <use x="63.623046875" xlink:href="#BitstreamVeraSans-Roman-2e"/>
       <use x="95.41015625" xlink:href="#BitstreamVeraSans-Roman-32"/>
      </g>
     </g>
    </g>
    <g id="xtick_3">
     <g id="line2d_7">
      <path clip-path="url(#pf270f86476)" d="
M234.147 360.677
L234.147 25.8772" style="fill:none;stroke:#262626;stroke-dasharray:3.000000,5.000000,1.000000,5.000000;stroke-dashoffset:0.0;"/>
     </g>
     <g id="line2d_8">
      <g>
       <use style="fill:#262626;stroke:#262626;" x="234.14671875" xlink:href="#m219da94a98" y="360.6771875"/>
      </g>
     </g>
     <g id="line2d_9">
      <g>
       <use style="fill:#262626;stroke:#262626;" x="234.14671875" xlink:href="#m219da94a98" y="25.8771875"/>
      </g>
     </g>
     <g id="text_3">
      <!-- 0.4 -->
      <defs>
       <path d="
M37.7969 64.3125
L12.8906 25.3906
L37.7969 25.3906
z

M35.2031 72.9062
L47.6094 72.9062
L47.6094 25.3906
L58.0156 25.3906
L58.0156 17.1875
L47.6094 17.1875
L47.6094 0
L37.7969 0
L37.7969 17.1875
L4.89062 17.1875
L4.89062 26.7031
z
" id="BitstreamVeraSans-Roman-34"/>
      </defs>
      <g style="fill:#262626;" transform="translate(223.134609375 379.07484375)scale(0.15 -0.15)">
       <use xlink:href="#BitstreamVeraSans-Roman-30"/>
       <use x="63.623046875" xlink:href="#BitstreamVeraSans-Roman-2e"/>
       <use x="95.41015625" xlink:href="#BitstreamVeraSans-Roman-34"/>
      </g>
     </g>
    </g>
    <g id="xtick_4">
     <g id="line2d_10">
      <path clip-path="url(#pf270f86476)" d="
M323.427 360.677
L323.427 25.8772" style="fill:none;stroke:#262626;stroke-dasharray:3.000000,5.000000,1.000000,5.000000;stroke-dashoffset:0.0;"/>
     </g>
     <g id="line2d_11">
      <g>
       <use style="fill:#262626;stroke:#262626;" x="323.42671875" xlink:href="#m219da94a98" y="360.6771875"/>
      </g>
     </g>
     <g id="line2d_12">
      <g>
       <use style="fill:#262626;stroke:#262626;" x="323.42671875" xlink:href="#m219da94a98" y="25.8771875"/>
      </g>
     </g>
     <g id="text_4">
      <!-- 0.6 -->
      <defs>
       <path d="
M33.0156 40.375
Q26.375 40.375 22.4844 35.8281
Q18.6094 31.2969 18.6094 23.3906
Q18.6094 15.5312 22.4844 10.9531
Q26.375 6.39062 33.0156 6.39062
Q39.6562 6.39062 43.5312 10.9531
Q47.4062 15.5312 47.4062 23.3906
Q47.4062 31.2969 43.5312 35.8281
Q39.6562 40.375 33.0156 40.375
M52.5938 71.2969
L52.5938 62.3125
Q48.875 64.0625 45.0938 64.9844
Q41.3125 65.9219 37.5938 65.9219
Q27.8281 65.9219 22.6719 59.3281
Q17.5312 52.7344 16.7969 39.4062
Q19.6719 43.6562 24.0156 45.9219
Q28.375 48.1875 33.5938 48.1875
Q44.5781 48.1875 50.9531 41.5156
Q57.3281 34.8594 57.3281 23.3906
Q57.3281 12.1562 50.6875 5.35938
Q44.0469 -1.42188 33.0156 -1.42188
Q20.3594 -1.42188 13.6719 8.26562
Q6.98438 17.9688 6.98438 36.375
Q6.98438 53.6562 15.1875 63.9375
Q23.3906 74.2188 37.2031 74.2188
Q40.9219 74.2188 44.7031 73.4844
Q48.4844 72.75 52.5938 71.2969" id="BitstreamVeraSans-Roman-36"/>
      </defs>
      <g style="fill:#262626;" transform="translate(312.466171875 379.07484375)scale(0.15 -0.15)">
       <use xlink:href="#BitstreamVeraSans-Roman-30"/>
       <use x="63.623046875" xlink:href="#BitstreamVeraSans-Roman-2e"/>
       <use x="95.41015625" xlink:href="#BitstreamVeraSans-Roman-36"/>
      </g>
     </g>
    </g>
    <g id="xtick_5">
     <g id="line2d_13">
      <path clip-path="url(#pf270f86476)" d="
M412.707 360.677
L412.707 25.8772" style="fill:none;stroke:#262626;stroke-dasharray:3.000000,5.000000,1.000000,5.000000;stroke-dashoffset:0.0;"/>
     </g>
     <g id="line2d_14">
      <g>
       <use style="fill:#262626;stroke:#262626;" x="412.70671875" xlink:href="#m219da94a98" y="360.6771875"/>
      </g>
     </g>
     <g id="line2d_15">
      <g>
       <use style="fill:#262626;stroke:#262626;" x="412.70671875" xlink:href="#m219da94a98" y="25.8771875"/>
      </g>
     </g>
     <g id="text_5">
      <!-- 0.8 -->
      <defs>
       <path d="
M31.7812 34.625
Q24.75 34.625 20.7188 30.8594
Q16.7031 27.0938 16.7031 20.5156
Q16.7031 13.9219 20.7188 10.1562
Q24.75 6.39062 31.7812 6.39062
Q38.8125 6.39062 42.8594 10.1719
Q46.9219 13.9688 46.9219 20.5156
Q46.9219 27.0938 42.8906 30.8594
Q38.875 34.625 31.7812 34.625
M21.9219 38.8125
Q15.5781 40.375 12.0312 44.7188
Q8.5 49.0781 8.5 55.3281
Q8.5 64.0625 14.7188 69.1406
Q20.9531 74.2188 31.7812 74.2188
Q42.6719 74.2188 48.875 69.1406
Q55.0781 64.0625 55.0781 55.3281
Q55.0781 49.0781 51.5312 44.7188
Q48 40.375 41.7031 38.8125
Q48.8281 37.1562 52.7969 32.3125
Q56.7812 27.4844 56.7812 20.5156
Q56.7812 9.90625 50.3125 4.23438
Q43.8438 -1.42188 31.7812 -1.42188
Q19.7344 -1.42188 13.25 4.23438
Q6.78125 9.90625 6.78125 20.5156
Q6.78125 27.4844 10.7812 32.3125
Q14.7969 37.1562 21.9219 38.8125
M18.3125 54.3906
Q18.3125 48.7344 21.8438 45.5625
Q25.3906 42.3906 31.7812 42.3906
Q38.1406 42.3906 41.7188 45.5625
Q45.3125 48.7344 45.3125 54.3906
Q45.3125 60.0625 41.7188 63.2344
Q38.1406 66.4062 31.7812 66.4062
Q25.3906 66.4062 21.8438 63.2344
Q18.3125 60.0625 18.3125 54.3906" id="BitstreamVeraSans-Roman-38"/>
      </defs>
      <g style="fill:#262626;" transform="translate(401.7871875 379.07484375)scale(0.15 -0.15)">
       <use xlink:href="#BitstreamVeraSans-Roman-30"/>
       <use x="63.623046875" xlink:href="#BitstreamVeraSans-Roman-2e"/>
       <use x="95.41015625" xlink:href="#BitstreamVeraSans-Roman-38"/>
      </g>
     </g>
    </g>
    <g id="xtick_6">
     <g id="line2d_16">
      <path clip-path="url(#pf270f86476)" d="
M501.987 360.677
L501.987 25.8772" style="fill:none;stroke:#262626;stroke-dasharray:3.000000,5.000000,1.000000,5.000000;stroke-dashoffset:0.0;"/>
     </g>
     <g id="line2d_17">
      <g>
       <use style="fill:#262626;stroke:#262626;" x="501.98671875" xlink:href="#m219da94a98" y="360.6771875"/>
      </g>
     </g>
     <g id="line2d_18">
      <g>
       <use style="fill:#262626;stroke:#262626;" x="501.98671875" xlink:href="#m219da94a98" y="25.8771875"/>
      </g>
     </g>
     <g id="text_6">
      <!-- 1.0 -->
      <defs>
       <path d="
M12.4062 8.29688
L28.5156 8.29688
L28.5156 63.9219
L10.9844 60.4062
L10.9844 69.3906
L28.4219 72.9062
L38.2812 72.9062
L38.2812 8.29688
L54.3906 8.29688
L54.3906 0
L12.4062 0
z
" id="BitstreamVeraSans-Roman-31"/>
      </defs>
      <g style="fill:#262626;" transform="translate(491.38125 379.07484375)scale(0.15 -0.15)">
       <use xlink:href="#BitstreamVeraSans-Roman-31"/>
       <use x="63.623046875" xlink:href="#BitstreamVeraSans-Roman-2e"/>
       <use x="95.41015625" xlink:href="#BitstreamVeraSans-Roman-30"/>
      </g>
     </g>
    </g>
    <g id="text_7">
     <!-- Proportion of Stat. Sign. Effects -->
     <defs>
      <path id="BitstreamVeraSans-Roman-20"/>
      <path d="
M54.8906 33.0156
L54.8906 0
L45.9062 0
L45.9062 32.7188
Q45.9062 40.4844 42.875 44.3281
Q39.8438 48.1875 33.7969 48.1875
Q26.5156 48.1875 22.3125 43.5469
Q18.1094 38.9219 18.1094 30.9062
L18.1094 0
L9.07812 0
L9.07812 54.6875
L18.1094 54.6875
L18.1094 46.1875
Q21.3438 51.125 25.7031 53.5625
Q30.0781 56 35.7969 56
Q45.2188 56 50.0469 50.1719
Q54.8906 44.3438 54.8906 33.0156" id="BitstreamVeraSans-Roman-6e"/>
      <path d="
M34.2812 27.4844
Q23.3906 27.4844 19.1875 25
Q14.9844 22.5156 14.9844 16.5
Q14.9844 11.7188 18.1406 8.90625
Q21.2969 6.10938 26.7031 6.10938
Q34.1875 6.10938 38.7031 11.4062
Q43.2188 16.7031 43.2188 25.4844
L43.2188 27.4844
z

M52.2031 31.2031
L52.2031 0
L43.2188 0
L43.2188 8.29688
Q40.1406 3.32812 35.5469 0.953125
Q30.9531 -1.42188 24.3125 -1.42188
Q15.9219 -1.42188 10.9531 3.29688
Q6 8.01562 6 15.9219
Q6 25.1406 12.1719 29.8281
Q18.3594 34.5156 30.6094 34.5156
L43.2188 34.5156
L43.2188 35.4062
Q43.2188 41.6094 39.1406 45
Q35.0625 48.3906 27.6875 48.3906
Q23 48.3906 18.5469 47.2656
Q14.1094 46.1406 10.0156 43.8906
L10.0156 52.2031
Q14.9375 54.1094 19.5781 55.0469
Q24.2188 56 28.6094 56
Q40.4844 56 46.3438 49.8438
Q52.2031 43.7031 52.2031 31.2031" id="BitstreamVeraSans-Roman-61"/>
      <path d="
M30.6094 48.3906
Q23.3906 48.3906 19.1875 42.75
Q14.9844 37.1094 14.9844 27.2969
Q14.9844 17.4844 19.1562 11.8438
Q23.3438 6.20312 30.6094 6.20312
Q37.7969 6.20312 41.9844 11.8594
Q46.1875 17.5312 46.1875 27.2969
Q46.1875 37.0156 41.9844 42.7031
Q37.7969 48.3906 30.6094 48.3906
M30.6094 56
Q42.3281 56 49.0156 48.375
Q55.7188 40.7656 55.7188 27.2969
Q55.7188 13.875 49.0156 6.21875
Q42.3281 -1.42188 30.6094 -1.42188
Q18.8438 -1.42188 12.1719 6.21875
Q5.51562 13.875 5.51562 27.2969
Q5.51562 40.7656 12.1719 48.375
Q18.8438 56 30.6094 56" id="BitstreamVeraSans-Roman-6f"/>
      <path d="
M44.2812 53.0781
L44.2812 44.5781
Q40.4844 46.5312 36.375 47.5
Q32.2812 48.4844 27.875 48.4844
Q21.1875 48.4844 17.8438 46.4375
Q14.5 44.3906 14.5 40.2812
Q14.5 37.1562 16.8906 35.375
Q19.2812 33.5938 26.5156 31.9844
L29.5938 31.2969
Q39.1562 29.25 43.1875 25.5156
Q47.2188 21.7812 47.2188 15.0938
Q47.2188 7.46875 41.1875 3.01562
Q35.1562 -1.42188 24.6094 -1.42188
Q20.2188 -1.42188 15.4531 -0.5625
Q10.6875 0.296875 5.42188 2
L5.42188 11.2812
Q10.4062 8.6875 15.2344 7.39062
Q20.0625 6.10938 24.8125 6.10938
Q31.1562 6.10938 34.5625 8.28125
Q37.9844 10.4531 37.9844 14.4062
Q37.9844 18.0625 35.5156 20.0156
Q33.0625 21.9688 24.7031 23.7812
L21.5781 24.5156
Q13.2344 26.2656 9.51562 29.9062
Q5.8125 33.5469 5.8125 39.8906
Q5.8125 47.6094 11.2812 51.7969
Q16.75 56 26.8125 56
Q31.7812 56 36.1719 55.2656
Q40.5781 54.5469 44.2812 53.0781" id="BitstreamVeraSans-Roman-73"/>
      <path d="
M19.6719 64.7969
L19.6719 37.4062
L32.0781 37.4062
Q38.9688 37.4062 42.7188 40.9688
Q46.4844 44.5312 46.4844 51.125
Q46.4844 57.6719 42.7188 61.2344
Q38.9688 64.7969 32.0781 64.7969
z

M9.8125 72.9062
L32.0781 72.9062
Q44.3438 72.9062 50.6094 67.3594
Q56.8906 61.8125 56.8906 51.125
Q56.8906 40.3281 50.6094 34.8125
Q44.3438 29.2969 32.0781 29.2969
L19.6719 29.2969
L19.6719 0
L9.8125 0
z
" id="BitstreamVeraSans-Roman-50"/>
      <path d="
M9.8125 72.9062
L55.9062 72.9062
L55.9062 64.5938
L19.6719 64.5938
L19.6719 43.0156
L54.3906 43.0156
L54.3906 34.7188
L19.6719 34.7188
L19.6719 8.29688
L56.7812 8.29688
L56.7812 0
L9.8125 0
z
" id="BitstreamVeraSans-Roman-45"/>
      <path d="
M53.5156 70.5156
L53.5156 60.8906
Q47.9062 63.5781 42.9219 64.8906
Q37.9375 66.2188 33.2969 66.2188
Q25.25 66.2188 20.875 63.0938
Q16.5 59.9688 16.5 54.2031
Q16.5 49.3594 19.4062 46.8906
Q22.3125 44.4375 30.4219 42.9219
L36.375 41.7031
Q47.4062 39.5938 52.6562 34.2969
Q57.9062 29 57.9062 20.125
Q57.9062 9.51562 50.7969 4.04688
Q43.7031 -1.42188 29.9844 -1.42188
Q24.8125 -1.42188 18.9688 -0.25
Q13.1406 0.921875 6.89062 3.21875
L6.89062 13.375
Q12.8906 10.0156 18.6562 8.29688
Q24.4219 6.59375 29.9844 6.59375
Q38.4219 6.59375 43.0156 9.90625
Q47.6094 13.2344 47.6094 19.3906
Q47.6094 24.75 44.3125 27.7812
Q41.0156 30.8125 33.5 32.3281
L27.4844 33.5
Q16.4531 35.6875 11.5156 40.375
Q6.59375 45.0625 6.59375 53.4219
Q6.59375 63.0938 13.4062 68.6562
Q20.2188 74.2188 32.1719 74.2188
Q37.3125 74.2188 42.625 73.2812
Q47.9531 72.3594 53.5156 70.5156" id="BitstreamVeraSans-Roman-53"/>
      <path d="
M9.42188 54.6875
L18.4062 54.6875
L18.4062 0
L9.42188 0
z

M9.42188 75.9844
L18.4062 75.9844
L18.4062 64.5938
L9.42188 64.5938
z
" id="BitstreamVeraSans-Roman-69"/>
      <path d="
M48.7812 52.5938
L48.7812 44.1875
Q44.9688 46.2969 41.1406 47.3438
Q37.3125 48.3906 33.4062 48.3906
Q24.6562 48.3906 19.8125 42.8438
Q14.9844 37.3125 14.9844 27.2969
Q14.9844 17.2812 19.8125 11.7344
Q24.6562 6.20312 33.4062 6.20312
Q37.3125 6.20312 41.1406 7.25
Q44.9688 8.29688 48.7812 10.4062
L48.7812 2.09375
Q45.0156 0.34375 40.9844 -0.53125
Q36.9688 -1.42188 32.4219 -1.42188
Q20.0625 -1.42188 12.7812 6.34375
Q5.51562 14.1094 5.51562 27.2969
Q5.51562 40.6719 12.8594 48.3281
Q20.2188 56 33.0156 56
Q37.1562 56 41.1094 55.1406
Q45.0625 54.2969 48.7812 52.5938" id="BitstreamVeraSans-Roman-63"/>
      <path d="
M56.2031 29.5938
L56.2031 25.2031
L14.8906 25.2031
Q15.4844 15.9219 20.4844 11.0625
Q25.4844 6.20312 34.4219 6.20312
Q39.5938 6.20312 44.4531 7.46875
Q49.3125 8.73438 54.1094 11.2812
L54.1094 2.78125
Q49.2656 0.734375 44.1875 -0.34375
Q39.1094 -1.42188 33.8906 -1.42188
Q20.7969 -1.42188 13.1562 6.1875
Q5.51562 13.8125 5.51562 26.8125
Q5.51562 40.2344 12.7656 48.1094
Q20.0156 56 32.3281 56
Q43.3594 56 49.7812 48.8906
Q56.2031 41.7969 56.2031 29.5938
M47.2188 32.2344
Q47.125 39.5938 43.0938 43.9844
Q39.0625 48.3906 32.4219 48.3906
Q24.9062 48.3906 20.3906 44.1406
Q15.875 39.8906 15.1875 32.1719
z
" id="BitstreamVeraSans-Roman-65"/>
      <path d="
M18.3125 70.2188
L18.3125 54.6875
L36.8125 54.6875
L36.8125 47.7031
L18.3125 47.7031
L18.3125 18.0156
Q18.3125 11.3281 20.1406 9.42188
Q21.9688 7.51562 27.5938 7.51562
L36.8125 7.51562
L36.8125 0
L27.5938 0
Q17.1875 0 13.2344 3.875
Q9.28125 7.76562 9.28125 18.0156
L9.28125 47.7031
L2.6875 47.7031
L2.6875 54.6875
L9.28125 54.6875
L9.28125 70.2188
z
" id="BitstreamVeraSans-Roman-74"/>
      <path d="
M37.1094 75.9844
L37.1094 68.5
L28.5156 68.5
Q23.6875 68.5 21.7969 66.5469
Q19.9219 64.5938 19.9219 59.5156
L19.9219 54.6875
L34.7188 54.6875
L34.7188 47.7031
L19.9219 47.7031
L19.9219 0
L10.8906 0
L10.8906 47.7031
L2.29688 47.7031
L2.29688 54.6875
L10.8906 54.6875
L10.8906 58.5
Q10.8906 67.625 15.1406 71.7969
Q19.3906 75.9844 28.6094 75.9844
z
" id="BitstreamVeraSans-Roman-66"/>
      <path d="
M41.1094 46.2969
Q39.5938 47.1719 37.8125 47.5781
Q36.0312 48 33.8906 48
Q26.2656 48 22.1875 43.0469
Q18.1094 38.0938 18.1094 28.8125
L18.1094 0
L9.07812 0
L9.07812 54.6875
L18.1094 54.6875
L18.1094 46.1875
Q20.9531 51.1719 25.4844 53.5781
Q30.0312 56 36.5312 56
Q37.4531 56 38.5781 55.875
Q39.7031 55.7656 41.0625 55.5156
z
" id="BitstreamVeraSans-Roman-72"/>
      <path d="
M45.4062 27.9844
Q45.4062 37.75 41.375 43.1094
Q37.3594 48.4844 30.0781 48.4844
Q22.8594 48.4844 18.8281 43.1094
Q14.7969 37.75 14.7969 27.9844
Q14.7969 18.2656 18.8281 12.8906
Q22.8594 7.51562 30.0781 7.51562
Q37.3594 7.51562 41.375 12.8906
Q45.4062 18.2656 45.4062 27.9844
M54.3906 6.78125
Q54.3906 -7.17188 48.1875 -13.9844
Q42 -20.7969 29.2031 -20.7969
Q24.4688 -20.7969 20.2656 -20.0938
Q16.0625 -19.3906 12.1094 -17.9219
L12.1094 -9.1875
Q16.0625 -11.3281 19.9219 -12.3438
Q23.7812 -13.375 27.7812 -13.375
Q36.625 -13.375 41.0156 -8.76562
Q45.4062 -4.15625 45.4062 5.17188
L45.4062 9.625
Q42.625 4.78125 38.2812 2.39062
Q33.9375 0 27.875 0
Q17.8281 0 11.6719 7.65625
Q5.51562 15.3281 5.51562 27.9844
Q5.51562 40.6719 11.6719 48.3281
Q17.8281 56 27.875 56
Q33.9375 56 38.2812 53.6094
Q42.625 51.2188 45.4062 46.3906
L45.4062 54.6875
L54.3906 54.6875
z
" id="BitstreamVeraSans-Roman-67"/>
      <path d="
M18.1094 8.20312
L18.1094 -20.7969
L9.07812 -20.7969
L9.07812 54.6875
L18.1094 54.6875
L18.1094 46.3906
Q20.9531 51.2656 25.2656 53.625
Q29.5938 56 35.5938 56
Q45.5625 56 51.7812 48.0938
Q58.0156 40.1875 58.0156 27.2969
Q58.0156 14.4062 51.7812 6.48438
Q45.5625 -1.42188 35.5938 -1.42188
Q29.5938 -1.42188 25.2656 0.953125
Q20.9531 3.32812 18.1094 8.20312
M48.6875 27.2969
Q48.6875 37.2031 44.6094 42.8438
Q40.5312 48.4844 33.4062 48.4844
Q26.2656 48.4844 22.1875 42.8438
Q18.1094 37.2031 18.1094 27.2969
Q18.1094 17.3906 22.1875 11.75
Q26.2656 6.10938 33.4062 6.10938
Q40.5312 6.10938 44.6094 11.75
Q48.6875 17.3906 48.6875 27.2969" id="BitstreamVeraSans-Roman-70"/>
     </defs>
     <g style="fill:#262626;" transform="translate(161.724609375 398.59203125)scale(0.15 -0.15)">
      <use xlink:href="#BitstreamVeraSans-Roman-50"/>
      <use x="58.552734375" xlink:href="#BitstreamVeraSans-Roman-72"/>
      <use x="97.416015625" xlink:href="#BitstreamVeraSans-Roman-6f"/>
      <use x="158.59765625" xlink:href="#BitstreamVeraSans-Roman-70"/>
      <use x="222.07421875" xlink:href="#BitstreamVeraSans-Roman-6f"/>
      <use x="283.255859375" xlink:href="#BitstreamVeraSans-Roman-72"/>
      <use x="324.369140625" xlink:href="#BitstreamVeraSans-Roman-74"/>
      <use x="363.578125" xlink:href="#BitstreamVeraSans-Roman-69"/>
      <use x="391.361328125" xlink:href="#BitstreamVeraSans-Roman-6f"/>
      <use x="452.54296875" xlink:href="#BitstreamVeraSans-Roman-6e"/>
      <use x="515.921875" xlink:href="#BitstreamVeraSans-Roman-20"/>
      <use x="547.708984375" xlink:href="#BitstreamVeraSans-Roman-6f"/>
      <use x="608.890625" xlink:href="#BitstreamVeraSans-Roman-66"/>
      <use x="644.095703125" xlink:href="#BitstreamVeraSans-Roman-20"/>
      <use x="675.8828125" xlink:href="#BitstreamVeraSans-Roman-53"/>
      <use x="739.359375" xlink:href="#BitstreamVeraSans-Roman-74"/>
      <use x="778.568359375" xlink:href="#BitstreamVeraSans-Roman-61"/>
      <use x="839.84765625" xlink:href="#BitstreamVeraSans-Roman-74"/>
      <use x="879.056640625" xlink:href="#BitstreamVeraSans-Roman-2e"/>
      <use x="910.84375" xlink:href="#BitstreamVeraSans-Roman-20"/>
      <use x="942.630859375" xlink:href="#BitstreamVeraSans-Roman-53"/>
      <use x="1006.10742188" xlink:href="#BitstreamVeraSans-Roman-69"/>
      <use x="1033.890625" xlink:href="#BitstreamVeraSans-Roman-67"/>
      <use x="1097.3671875" xlink:href="#BitstreamVeraSans-Roman-6e"/>
      <use x="1160.74609375" xlink:href="#BitstreamVeraSans-Roman-2e"/>
      <use x="1192.53320312" xlink:href="#BitstreamVeraSans-Roman-20"/>
      <use x="1224.3203125" xlink:href="#BitstreamVeraSans-Roman-45"/>
      <use x="1287.50390625" xlink:href="#BitstreamVeraSans-Roman-66"/>
      <use x="1322.70898438" xlink:href="#BitstreamVeraSans-Roman-66"/>
      <use x="1357.9140625" xlink:href="#BitstreamVeraSans-Roman-65"/>
      <use x="1419.4375" xlink:href="#BitstreamVeraSans-Roman-63"/>
      <use x="1474.41796875" xlink:href="#BitstreamVeraSans-Roman-74"/>
      <use x="1513.62695312" xlink:href="#BitstreamVeraSans-Roman-73"/>
     </g>
    </g>
   </g>
   <g id="matplotlib.axis_2">
    <g id="ytick_1">
     <g id="line2d_19">
      <path clip-path="url(#pf270f86476)" d="
M55.5867 360.677
L501.987 360.677" style="fill:none;stroke:#262626;stroke-dasharray:3.000000,5.000000,1.000000,5.000000;stroke-dashoffset:0.0;"/>
     </g>
     <g id="line2d_20">
      <g>
       <use style="fill:#262626;stroke:#262626;" x="55.58671875" xlink:href="#m219da94a98" y="360.6771875"/>
      </g>
     </g>
     <g id="line2d_21">
      <g>
       <use style="fill:#262626;stroke:#262626;" x="501.98671875" xlink:href="#m219da94a98" y="360.6771875"/>
      </g>
     </g>
     <g id="text_8">
      <!-- 0.0 -->
      <g style="fill:#262626;" transform="translate(26.7171875 364.81625)scale(0.15 -0.15)">
       <use xlink:href="#BitstreamVeraSans-Roman-30"/>
       <use x="63.623046875" xlink:href="#BitstreamVeraSans-Roman-2e"/>
       <use x="95.41015625" xlink:href="#BitstreamVeraSans-Roman-30"/>
      </g>
     </g>
    </g>
    <g id="ytick_2">
     <g id="line2d_22">
      <path clip-path="url(#pf270f86476)" d="
M55.5867 276.977
L501.987 276.977" style="fill:none;stroke:#262626;stroke-dasharray:3.000000,5.000000,1.000000,5.000000;stroke-dashoffset:0.0;"/>
     </g>
     <g id="line2d_23">
      <g>
       <use style="fill:#262626;stroke:#262626;" x="55.58671875" xlink:href="#m219da94a98" y="276.9771875"/>
      </g>
     </g>
     <g id="line2d_24">
      <g>
       <use style="fill:#262626;stroke:#262626;" x="501.98671875" xlink:href="#m219da94a98" y="276.9771875"/>
      </g>
     </g>
     <g id="text_9">
      <!-- 0.5 -->
      <defs>
       <path d="
M10.7969 72.9062
L49.5156 72.9062
L49.5156 64.5938
L19.8281 64.5938
L19.8281 46.7344
Q21.9688 47.4688 24.1094 47.8281
Q26.2656 48.1875 28.4219 48.1875
Q40.625 48.1875 47.75 41.5
Q54.8906 34.8125 54.8906 23.3906
Q54.8906 11.625 47.5625 5.09375
Q40.2344 -1.42188 26.9062 -1.42188
Q22.3125 -1.42188 17.5469 -0.640625
Q12.7969 0.140625 7.71875 1.70312
L7.71875 11.625
Q12.1094 9.23438 16.7969 8.0625
Q21.4844 6.89062 26.7031 6.89062
Q35.1562 6.89062 40.0781 11.3281
Q45.0156 15.7656 45.0156 23.3906
Q45.0156 31 40.0781 35.4375
Q35.1562 39.8906 26.7031 39.8906
Q22.75 39.8906 18.8125 39.0156
Q14.8906 38.1406 10.7969 36.2812
z
" id="BitstreamVeraSans-Roman-35"/>
      </defs>
      <g style="fill:#262626;" transform="translate(27.03125 281.11625)scale(0.15 -0.15)">
       <use xlink:href="#BitstreamVeraSans-Roman-30"/>
       <use x="63.623046875" xlink:href="#BitstreamVeraSans-Roman-2e"/>
       <use x="95.41015625" xlink:href="#BitstreamVeraSans-Roman-35"/>
      </g>
     </g>
    </g>
    <g id="ytick_3">
     <g id="line2d_25">
      <path clip-path="url(#pf270f86476)" d="
M55.5867 193.277
L501.987 193.277" style="fill:none;stroke:#262626;stroke-dasharray:3.000000,5.000000,1.000000,5.000000;stroke-dashoffset:0.0;"/>
     </g>
     <g id="line2d_26">
      <g>
       <use style="fill:#262626;stroke:#262626;" x="55.58671875" xlink:href="#m219da94a98" y="193.2771875"/>
      </g>
     </g>
     <g id="line2d_27">
      <g>
       <use style="fill:#262626;stroke:#262626;" x="501.98671875" xlink:href="#m219da94a98" y="193.2771875"/>
      </g>
     </g>
     <g id="text_10">
      <!-- 1.0 -->
      <g style="fill:#262626;" transform="translate(27.37578125 197.41625)scale(0.15 -0.15)">
       <use xlink:href="#BitstreamVeraSans-Roman-31"/>
       <use x="63.623046875" xlink:href="#BitstreamVeraSans-Roman-2e"/>
       <use x="95.41015625" xlink:href="#BitstreamVeraSans-Roman-30"/>
      </g>
     </g>
    </g>
    <g id="ytick_4">
     <g id="line2d_28">
      <path clip-path="url(#pf270f86476)" d="
M55.5867 109.577
L501.987 109.577" style="fill:none;stroke:#262626;stroke-dasharray:3.000000,5.000000,1.000000,5.000000;stroke-dashoffset:0.0;"/>
     </g>
     <g id="line2d_29">
      <g>
       <use style="fill:#262626;stroke:#262626;" x="55.58671875" xlink:href="#m219da94a98" y="109.5771875"/>
      </g>
     </g>
     <g id="line2d_30">
      <g>
       <use style="fill:#262626;stroke:#262626;" x="501.98671875" xlink:href="#m219da94a98" y="109.5771875"/>
      </g>
     </g>
     <g id="text_11">
      <!-- 1.5 -->
      <g style="fill:#262626;" transform="translate(27.68984375 113.71625)scale(0.15 -0.15)">
       <use xlink:href="#BitstreamVeraSans-Roman-31"/>
       <use x="63.623046875" xlink:href="#BitstreamVeraSans-Roman-2e"/>
       <use x="95.41015625" xlink:href="#BitstreamVeraSans-Roman-35"/>
      </g>
     </g>
    </g>
    <g id="ytick_5">
     <g id="line2d_31">
      <path clip-path="url(#pf270f86476)" d="
M55.5867 25.8772
L501.987 25.8772" style="fill:none;stroke:#262626;stroke-dasharray:3.000000,5.000000,1.000000,5.000000;stroke-dashoffset:0.0;"/>
     </g>
     <g id="line2d_32">
      <g>
       <use style="fill:#262626;stroke:#262626;" x="55.58671875" xlink:href="#m219da94a98" y="25.8771875"/>
      </g>
     </g>
     <g id="line2d_33">
      <g>
       <use style="fill:#262626;stroke:#262626;" x="501.98671875" xlink:href="#m219da94a98" y="25.8771875"/>
      </g>
     </g>
     <g id="text_12">
      <!-- 2.0 -->
      <g style="fill:#262626;" transform="translate(26.82734375 30.01625)scale(0.15 -0.15)">
       <use xlink:href="#BitstreamVeraSans-Roman-32"/>
       <use x="63.623046875" xlink:href="#BitstreamVeraSans-Roman-2e"/>
       <use x="95.41015625" xlink:href="#BitstreamVeraSans-Roman-30"/>
      </g>
     </g>
    </g>
    <g id="text_13">
     <!-- Density -->
     <defs>
      <path d="
M19.6719 64.7969
L19.6719 8.10938
L31.5938 8.10938
Q46.6875 8.10938 53.6875 14.9375
Q60.6875 21.7812 60.6875 36.5312
Q60.6875 51.1719 53.6875 57.9844
Q46.6875 64.7969 31.5938 64.7969
z

M9.8125 72.9062
L30.0781 72.9062
Q51.2656 72.9062 61.1719 64.0938
Q71.0938 55.2812 71.0938 36.5312
Q71.0938 17.6719 61.125 8.82812
Q51.1719 0 30.0781 0
L9.8125 0
z
" id="BitstreamVeraSans-Roman-44"/>
      <path d="
M32.1719 -5.07812
Q28.375 -14.8438 24.75 -17.8125
Q21.1406 -20.7969 15.0938 -20.7969
L7.90625 -20.7969
L7.90625 -13.2812
L13.1875 -13.2812
Q16.8906 -13.2812 18.9375 -11.5156
Q21 -9.76562 23.4844 -3.21875
L25.0938 0.875
L2.98438 54.6875
L12.5 54.6875
L29.5938 11.9219
L46.6875 54.6875
L56.2031 54.6875
z
" id="BitstreamVeraSans-Roman-79"/>
     </defs>
     <g style="fill:#262626;" transform="translate(18.59765625 220.8303125)rotate(-90.0)scale(0.15 -0.15)">
      <use xlink:href="#BitstreamVeraSans-Roman-44"/>
      <use x="77.001953125" xlink:href="#BitstreamVeraSans-Roman-65"/>
      <use x="138.525390625" xlink:href="#BitstreamVeraSans-Roman-6e"/>
      <use x="201.904296875" xlink:href="#BitstreamVeraSans-Roman-73"/>
      <use x="254.00390625" xlink:href="#BitstreamVeraSans-Roman-69"/>
      <use x="281.787109375" xlink:href="#BitstreamVeraSans-Roman-74"/>
      <use x="320.99609375" xlink:href="#BitstreamVeraSans-Roman-79"/>
     </g>
    </g>
   </g>
   <g id="PolyCollection_1">
    <defs>
     <path d="
M-7.90198 -50.3002
L-7.90198 -48.2344
L-3.3872 -48.2344
L1.12758 -48.2344
L5.64237 -48.2344
L10.1571 -48.2344
L14.6719 -48.2344
L19.1867 -48.2344
L23.7015 -48.2344
L28.2163 -48.2344
L32.7311 -48.2344
L37.2458 -48.2344
L41.7606 -48.2344
L46.2754 -48.2344
L50.7902 -48.2344
L55.305 -48.2344
L59.8198 -48.2344
L64.3345 -48.2344
L68.8493 -48.2344
L73.3641 -48.2344
L77.8789 -48.2344
L82.3937 -48.2344
L86.9085 -48.2344
L91.4232 -48.2344
L95.938 -48.2344
L100.453 -48.2344
L104.968 -48.2344
L109.482 -48.2344
L113.997 -48.2344
L118.512 -48.2344
L123.027 -48.2344
L127.541 -48.2344
L132.056 -48.2344
L136.571 -48.2344
L141.086 -48.2344
L145.601 -48.2344
L150.115 -48.2344
L154.63 -48.2344
L159.145 -48.2344
L163.66 -48.2344
L168.175 -48.2344
L172.689 -48.2344
L177.204 -48.2344
L181.719 -48.2344
L186.234 -48.2344
L190.748 -48.2344
L195.263 -48.2344
L199.778 -48.2344
L204.293 -48.2344
L208.808 -48.2344
L213.322 -48.2344
L217.837 -48.2344
L222.352 -48.2344
L226.867 -48.2344
L231.382 -48.2344
L235.896 -48.2344
L240.411 -48.2344
L244.926 -48.2344
L249.441 -48.2344
L253.955 -48.2344
L258.47 -48.2344
L262.985 -48.2344
L267.5 -48.2344
L272.015 -48.2344
L276.529 -48.2344
L281.044 -48.2344
L285.559 -48.2344
L290.074 -48.2344
L294.588 -48.2344
L299.103 -48.2344
L303.618 -48.2344
L308.133 -48.2344
L312.648 -48.2344
L317.162 -48.2344
L321.677 -48.2344
L326.192 -48.2344
L330.707 -48.2344
L335.222 -48.2344
L339.736 -48.2344
L344.251 -48.2344
L348.766 -48.2344
L353.281 -48.2344
L357.795 -48.2344
L362.31 -48.2344
L366.825 -48.2344
L371.34 -48.2344
L375.855 -48.2344
L380.369 -48.2344
L384.884 -48.2344
L389.399 -48.2344
L393.914 -48.2344
L398.428 -48.2344
L402.943 -48.2344
L407.458 -48.2344
L411.973 -48.2344
L416.488 -48.2344
L421.002 -48.2344
L425.517 -48.2344
L430.032 -48.2344
L434.547 -48.2344
L439.062 -48.2344
L443.576 -48.2344
L448.091 -48.2344
L452.606 -48.2344
L457.121 -48.2344
L461.635 -48.2344
L466.15 -48.2344
L470.665 -48.2344
L475.18 -48.2344
L479.695 -48.2344
L484.209 -48.2344
L488.724 -48.2344
L493.239 -48.2344
L497.754 -48.2344
L502.268 -48.2344
L506.783 -48.2344
L511.298 -48.2344
L515.813 -48.2344
L520.328 -48.2344
L524.842 -48.2344
L529.357 -48.2344
L533.872 -48.2344
L538.387 -48.2344
L542.902 -48.2344
L547.416 -48.2344
L551.931 -48.2344
L556.446 -48.2344
L560.961 -48.2344
L565.475 -48.2344
L565.475 -50.1887
L565.475 -50.1887
L560.961 -50.8309
L556.446 -52.3314
L551.931 -54.9158
L547.416 -58.8929
L542.902 -64.592
L538.387 -72.2741
L533.872 -82.0241
L529.357 -93.6437
L524.842 -106.576
L520.328 -119.896
L515.813 -132.39
L511.298 -142.727
L506.783 -149.691
L502.268 -152.42
L497.754 -150.588
L493.239 -144.481
L488.724 -134.935
L484.209 -123.167
L479.695 -110.535
L475.18 -98.309
L470.665 -87.4884
L466.15 -78.7141
L461.635 -72.2677
L457.121 -68.1359
L452.606 -66.1069
L448.091 -65.8637
L443.576 -67.0573
L439.062 -69.3486
L434.547 -72.4273
L430.032 -76.0159
L425.517 -79.8702
L421.002 -83.7823
L416.488 -87.5888
L411.973 -91.1816
L407.458 -94.5164
L402.943 -97.6153
L398.428 -100.561
L393.914 -103.478
L389.399 -106.512
L384.884 -109.792
L380.369 -113.403
L375.855 -117.359
L371.34 -121.598
L366.825 -125.992
L362.31 -130.383
L357.795 -134.627
L353.281 -138.644
L348.766 -142.45
L344.251 -146.167
L339.736 -150.01
L335.222 -154.268
L330.707 -159.269
L326.192 -165.357
L321.677 -172.871
L317.162 -182.102
L312.648 -193.239
L308.133 -206.279
L303.618 -220.939
L299.103 -236.592
L294.588 -252.277
L290.074 -266.794
L285.559 -278.902
L281.044 -287.556
L276.529 -292.136
L272.015 -292.592
L267.5 -289.456
L262.985 -283.725
L258.47 -276.654
L253.955 -269.517
L249.441 -263.398
L244.926 -259.067
L240.411 -256.93
L235.896 -257.055
L231.382 -259.241
L226.867 -263.092
L222.352 -268.097
L217.837 -273.699
L213.322 -279.365
L208.808 -284.638
L204.293 -289.193
L199.778 -292.859
L195.263 -295.616
L190.748 -297.569
L186.234 -298.883
L181.719 -299.734
L177.204 -300.252
L172.689 -300.499
L168.175 -300.469
L163.66 -300.116
L159.145 -299.381
L154.63 -298.221
L150.115 -296.625
L145.601 -294.601
L141.086 -292.157
L136.571 -289.268
L132.056 -285.861
L127.541 -281.809
L123.027 -276.963
L118.512 -271.2
L113.997 -264.481
L109.482 -256.914
L104.968 -248.791
L100.453 -240.578
L95.938 -232.87
L91.4232 -226.274
L86.9085 -221.271
L82.3937 -218.064
L77.8789 -216.453
L73.3641 -215.8
L68.8493 -215.088
L64.3345 -213.103
L59.8198 -208.683
L55.305 -200.983
L50.7902 -189.687
L46.2754 -175.088
L41.7606 -158.029
L37.2458 -139.721
L32.7311 -121.488
L28.2163 -104.523
L23.7015 -89.7019
L19.1867 -77.5038
L14.6719 -68.0228
L10.1571 -61.0553
L5.64237 -56.2187
L1.12758 -53.0701
L-3.3872 -51.2009
L-7.90198 -50.3002
z
" id="C0_0_5eb606bb2c"/>
    </defs>
    <g clip-path="url(#pf270f86476)">
     <use style="fill:#4c4c4c;fill-opacity:0.25;stroke:#4c4c4c;stroke-opacity:0.25;stroke-width:0.3;" x="0.0" xlink:href="#C0_0_5eb606bb2c" y="408.9115625"/>
    </g>
   </g>
   <g id="PolyCollection_2">
    <defs>
     <path d="
M3.01062 -51.0482
L3.01062 -48.2344
L7.11922 -48.2344
L11.2278 -48.2344
L15.3364 -48.2344
L19.445 -48.2344
L23.5536 -48.2344
L27.6622 -48.2344
L31.7708 -48.2344
L35.8794 -48.2344
L39.988 -48.2344
L44.0966 -48.2344
L48.2052 -48.2344
L52.3138 -48.2344
L56.4224 -48.2344
L60.531 -48.2344
L64.6396 -48.2344
L68.7482 -48.2344
L72.8568 -48.2344
L76.9654 -48.2344
L81.074 -48.2344
L85.1826 -48.2344
L89.2912 -48.2344
L93.3998 -48.2344
L97.5084 -48.2344
L101.617 -48.2344
L105.726 -48.2344
L109.834 -48.2344
L113.943 -48.2344
L118.051 -48.2344
L122.16 -48.2344
L126.269 -48.2344
L130.377 -48.2344
L134.486 -48.2344
L138.594 -48.2344
L142.703 -48.2344
L146.812 -48.2344
L150.92 -48.2344
L155.029 -48.2344
L159.137 -48.2344
L163.246 -48.2344
L167.355 -48.2344
L171.463 -48.2344
L175.572 -48.2344
L179.68 -48.2344
L183.789 -48.2344
L187.898 -48.2344
L192.006 -48.2344
L196.115 -48.2344
L200.223 -48.2344
L204.332 -48.2344
L208.441 -48.2344
L212.549 -48.2344
L216.658 -48.2344
L220.766 -48.2344
L224.875 -48.2344
L228.984 -48.2344
L233.092 -48.2344
L237.201 -48.2344
L241.309 -48.2344
L245.418 -48.2344
L249.527 -48.2344
L253.635 -48.2344
L257.744 -48.2344
L261.852 -48.2344
L265.961 -48.2344
L270.07 -48.2344
L274.178 -48.2344
L278.287 -48.2344
L282.395 -48.2344
L286.504 -48.2344
L290.613 -48.2344
L294.721 -48.2344
L298.83 -48.2344
L302.938 -48.2344
L307.047 -48.2344
L311.156 -48.2344
L315.264 -48.2344
L319.373 -48.2344
L323.481 -48.2344
L327.59 -48.2344
L331.699 -48.2344
L335.807 -48.2344
L339.916 -48.2344
L344.024 -48.2344
L348.133 -48.2344
L352.242 -48.2344
L356.35 -48.2344
L360.459 -48.2344
L364.567 -48.2344
L368.676 -48.2344
L372.785 -48.2344
L376.893 -48.2344
L381.002 -48.2344
L385.11 -48.2344
L389.219 -48.2344
L393.328 -48.2344
L397.436 -48.2344
L401.545 -48.2344
L405.653 -48.2344
L409.762 -48.2344
L413.871 -48.2344
L417.979 -48.2344
L422.088 -48.2344
L426.196 -48.2344
L430.305 -48.2344
L434.414 -48.2344
L438.522 -48.2344
L442.631 -48.2344
L446.739 -48.2344
L450.848 -48.2344
L454.957 -48.2344
L459.065 -48.2344
L463.174 -48.2344
L467.282 -48.2344
L471.391 -48.2344
L475.5 -48.2344
L479.608 -48.2344
L483.717 -48.2344
L487.825 -48.2344
L491.934 -48.2344
L496.043 -48.2344
L500.151 -48.2344
L504.26 -48.2344
L508.368 -48.2344
L512.477 -48.2344
L516.586 -48.2344
L520.694 -48.2344
L524.803 -48.2344
L524.803 -49.6089
L524.803 -49.6089
L520.694 -48.8763
L516.586 -48.5289
L512.477 -48.3811
L508.368 -48.3343
L504.26 -48.3412
L500.151 -48.3824
L496.043 -48.4525
L491.934 -48.5531
L487.825 -48.6897
L483.717 -48.8697
L479.608 -49.1029
L475.5 -49.4009
L471.391 -49.7772
L467.282 -50.2465
L463.174 -50.8234
L459.065 -51.5206
L454.957 -52.3467
L450.848 -53.3025
L446.739 -54.378
L442.631 -55.5497
L438.522 -56.7804
L434.414 -58.0221
L430.305 -59.2238
L426.196 -60.3418
L422.088 -61.3504
L417.979 -62.2508
L413.871 -63.0734
L409.762 -63.8757
L405.653 -64.7359
L401.545 -65.7464
L397.436 -67.0094
L393.328 -68.635
L389.219 -70.7373
L385.11 -73.4234
L381.002 -76.7714
L376.893 -80.8006
L372.785 -85.443
L368.676 -90.5327
L364.567 -95.8255
L360.459 -101.051
L356.35 -105.984
L352.242 -110.507
L348.133 -114.635
L344.024 -118.499
L339.916 -122.283
L335.807 -126.168
L331.699 -130.316
L327.59 -134.917
L323.481 -140.295
L319.373 -147.015
L315.264 -155.92
L311.156 -168.028
L307.047 -184.259
L302.938 -205.048
L298.83 -229.944
L294.721 -257.383
L290.613 -284.759
L286.504 -308.861
L282.395 -326.599
L278.287 -335.787
L274.178 -335.733
L270.07 -327.418
L265.961 -313.2
L261.852 -296.166
L257.744 -279.37
L253.635 -265.204
L249.527 -255.089
L245.418 -249.484
L241.309 -248.144
L237.201 -250.442
L233.092 -255.634
L228.984 -262.982
L224.875 -271.757
L220.766 -281.185
L216.658 -290.425
L212.549 -298.63
L208.441 -305.096
L204.332 -309.436
L200.223 -311.705
L196.115 -312.403
L192.006 -312.345
L187.898 -312.441
L183.789 -313.448
L179.68 -315.79
L175.572 -319.476
L171.463 -324.142
L167.355 -329.168
L163.246 -333.853
L159.137 -337.58
L155.029 -339.946
L150.92 -340.824
L146.812 -340.35
L142.703 -338.84
L138.594 -336.667
L134.486 -334.125
L130.377 -331.337
L126.269 -328.211
L122.16 -324.479
L118.051 -319.782
L113.943 -313.789
L109.834 -306.328
L105.726 -297.509
L101.617 -287.809
L97.5084 -278.12
L93.3998 -269.701
L89.2912 -264.021
L85.1826 -262.461
L81.074 -265.908
L76.9654 -274.326
L72.8568 -286.46
L68.7482 -299.822
L64.6396 -311.044
L60.531 -316.575
L56.4224 -313.539
L52.3138 -300.488
L48.2052 -277.787
L44.0966 -247.517
L39.988 -212.918
L35.8794 -177.593
L31.7708 -144.723
L27.6622 -116.533
L23.5536 -94.0918
L19.445 -77.4313
L15.3364 -65.8585
L11.2278 -58.3193
L7.11922 -53.7048
L3.01062 -51.0482
z
" id="C1_0_0041810a2b"/>
    </defs>
    <g clip-path="url(#pf270f86476)">
     <use style="fill:#808080;fill-opacity:0.25;stroke:#808080;stroke-opacity:0.25;stroke-width:0.3;" x="0.0" xlink:href="#C1_0_0041810a2b" y="408.9115625"/>
    </g>
   </g>
   <g id="line2d_34">
    <path clip-path="url(#pf270f86476)" d="
M55.305 207.928
L59.8198 200.229
L64.3345 195.808
L68.8493 193.823
L73.3641 193.112
L77.8789 192.459
L82.3937 190.848
L86.9085 187.641
L91.4232 182.638
L95.938 176.042
L100.453 168.333
L104.968 160.121
L109.482 151.997
L113.997 144.431
L118.512 137.712
L123.027 131.948
L127.541 127.103
L132.056 123.051
L136.571 119.643
L141.086 116.754
L145.601 114.31
L150.115 112.287
L154.63 110.691
L159.145 109.531
L163.66 108.795
L168.175 108.442
L172.689 108.413
L177.204 108.66
L181.719 109.177
L186.234 110.028
L190.748 111.343
L195.263 113.295
L199.778 116.053
L204.293 119.718
L208.808 124.273
L213.322 129.547
L217.837 135.212
L222.352 140.815
L226.867 145.82
L231.382 149.671
L235.896 151.856
L240.411 151.982
L244.926 149.844
L249.441 145.513
L253.955 139.395
L258.47 132.257
L262.985 125.187
L267.5 119.456
L272.015 116.319
L276.529 116.775
L281.044 121.356
L285.559 130.01
L290.074 142.117
L294.588 156.635
L299.103 172.319
L303.618 187.973
L308.133 202.632
L312.648 215.672
L317.162 226.809
L321.677 236.041
L326.192 243.555
L330.707 249.643
L335.222 254.643
L339.736 258.901
L344.251 262.745
L348.766 266.461
L353.281 270.267
L357.795 274.285
L362.31 278.529
L366.825 282.92
L371.34 287.314
L375.855 291.553
L380.369 295.509
L384.884 299.12
L389.399 302.4
L393.914 305.433
L398.428 308.351
L402.943 311.296
L407.458 314.395
L411.973 317.73
L416.488 321.323
L421.002 325.129
L425.517 329.041
L430.032 332.896
L434.547 336.484
L439.062 339.563
L443.576 341.854
L448.091 343.048
L452.606 342.805
L457.121 340.776
L461.635 336.644
L466.15 330.197
L470.665 321.423
L475.18 310.603
L479.695 298.377
L484.209 285.745
L488.724 273.976
L493.239 264.43
L497.754 258.323
L502.268 256.492" style="fill:none;stroke:#4c4c4c;stroke-linecap:round;stroke-width:3;"/>
   </g>
   <g id="line2d_35">
    <path clip-path="url(#pf270f86476)" d="
M225.676 360.677
L225.676 25.8772" style="fill:none;stroke:#4c4c4c;stroke-dasharray:6.000000,6.000000;stroke-dashoffset:0.0;stroke-width:3;"/>
   </g>
   <g id="line2d_36">
    <path clip-path="url(#pf270f86476)" d="
M52.3138 108.424
L56.4224 95.3723
L60.531 92.3367
L64.6396 97.8676
L68.7482 109.089
L72.8568 122.451
L76.9654 134.586
L81.074 143.004
L85.1826 146.45
L89.2912 144.891
L93.3998 139.211
L97.5084 130.792
L101.617 121.102
L105.726 111.403
L109.834 102.583
L113.943 95.123
L118.051 89.1295
L122.16 84.4323
L126.269 80.7008
L130.377 77.575
L134.486 74.7861
L138.594 72.2444
L142.703 70.0711
L146.812 68.5614
L150.92 68.0872
L155.029 68.9652
L159.137 71.3314
L163.246 75.0588
L167.355 79.7438
L171.463 84.7697
L175.572 89.4352
L179.68 93.1219
L183.789 95.4636
L187.898 96.4707
L192.006 96.5663
L196.115 96.5087
L200.223 97.2064
L204.332 99.4755
L208.441 103.816
L212.549 110.282
L216.658 118.487
L220.766 127.727
L224.875 137.155
L228.984 145.93
L233.092 153.278
L237.201 158.469
L241.309 160.767
L245.418 159.427
L249.527 153.822
L253.635 143.707
L257.744 129.542
L261.852 112.746
L265.961 95.7121
L270.07 81.4936
L274.178 73.1781
L278.287 73.1242
L282.395 82.3123
L286.504 100.051
L290.613 124.153
L294.721 151.528
L298.83 178.967
L302.938 203.864
L307.047 224.653
L311.156 240.884
L315.264 252.991
L319.373 261.896
L323.481 268.616
L327.59 273.995
L331.699 278.596
L335.807 282.744
L339.916 286.629
L344.024 290.412
L348.133 294.276
L352.242 298.405
L356.35 302.928
L360.459 307.861
L364.567 313.086
L368.676 318.379
L372.785 323.469
L376.893 328.111
L381.002 332.14
L385.11 335.488
L389.219 338.174
L393.328 340.277
L397.436 341.902
L401.545 343.165
L405.653 344.176
L409.762 345.036
L413.871 345.838
L417.979 346.661
L422.088 347.561
L426.196 348.57
L430.305 349.688
L434.414 350.889
L438.522 352.131
L442.631 353.362
L446.739 354.534
L450.848 355.609
L454.957 356.565
L459.065 357.391
L463.174 358.088
L467.282 358.665
L471.391 359.134
L475.5 359.511
L479.608 359.809
L483.717 360.042
L487.825 360.222
L491.934 360.358
L496.043 360.459
L500.151 360.529
L504.26 360.57" style="fill:none;stroke:#808080;stroke-linecap:round;stroke-width:3;"/>
   </g>
   <g id="line2d_37">
    <path clip-path="url(#pf270f86476)" d="
M183.114 360.677
L183.114 25.8772" style="fill:none;stroke:#808080;stroke-dasharray:6.000000,6.000000;stroke-dashoffset:0.0;stroke-width:3;"/>
   </g>
   <g id="patch_3">
    <path d="
M55.5867 25.8772
L501.987 25.8772" style="fill:none;"/>
   </g>
   <g id="patch_4">
    <path d="
M501.987 360.677
L501.987 25.8772" style="fill:none;"/>
   </g>
   <g id="patch_5">
    <path d="
M55.5867 360.677
L501.987 360.677" style="fill:none;"/>
   </g>
   <g id="patch_6">
    <path d="
M55.5867 360.677
L55.5867 25.8772" style="fill:none;"/>
   </g>
   <g id="text_14">
    <!-- Prop. of Central Effects with p &lt; 0.05 -->
    <defs>
     <path d="
M4.20312 54.6875
L13.1875 54.6875
L24.4219 12.0156
L35.5938 54.6875
L46.1875 54.6875
L57.4219 12.0156
L68.6094 54.6875
L77.5938 54.6875
L63.2812 0
L52.6875 0
L40.9219 44.8281
L29.1094 0
L18.5 0
z
" id="BitstreamVeraSans-Roman-77"/>
     <path d="
M64.4062 67.2812
L64.4062 56.8906
Q59.4219 61.5312 53.7812 63.8125
Q48.1406 66.1094 41.7969 66.1094
Q29.2969 66.1094 22.6562 58.4688
Q16.0156 50.8281 16.0156 36.375
Q16.0156 21.9688 22.6562 14.3281
Q29.2969 6.6875 41.7969 6.6875
Q48.1406 6.6875 53.7812 8.98438
Q59.4219 11.2812 64.4062 15.9219
L64.4062 5.60938
Q59.2344 2.09375 53.4375 0.328125
Q47.6562 -1.42188 41.2188 -1.42188
Q24.6562 -1.42188 15.125 8.70312
Q5.60938 18.8438 5.60938 36.375
Q5.60938 53.9531 15.125 64.0781
Q24.6562 74.2188 41.2188 74.2188
Q47.75 74.2188 53.5312 72.4844
Q59.3281 70.75 64.4062 67.2812" id="BitstreamVeraSans-Roman-43"/>
     <path d="
M54.8906 33.0156
L54.8906 0
L45.9062 0
L45.9062 32.7188
Q45.9062 40.4844 42.875 44.3281
Q39.8438 48.1875 33.7969 48.1875
Q26.5156 48.1875 22.3125 43.5469
Q18.1094 38.9219 18.1094 30.9062
L18.1094 0
L9.07812 0
L9.07812 75.9844
L18.1094 75.9844
L18.1094 46.1875
Q21.3438 51.125 25.7031 53.5625
Q30.0781 56 35.7969 56
Q45.2188 56 50.0469 50.1719
Q54.8906 44.3438 54.8906 33.0156" id="BitstreamVeraSans-Roman-68"/>
     <path d="
M9.42188 75.9844
L18.4062 75.9844
L18.4062 0
L9.42188 0
z
" id="BitstreamVeraSans-Roman-6c"/>
     <path d="
M73.1875 49.2188
L22.7969 31.2969
L73.1875 13.4844
L73.1875 4.59375
L10.5938 27.2969
L10.5938 35.4062
L73.1875 58.1094
z
" id="BitstreamVeraSans-Roman-3c"/>
    </defs>
    <g style="fill:#262626;" transform="translate(112.1446875 20.8771875)scale(0.18 -0.18)">
     <use xlink:href="#BitstreamVeraSans-Roman-50"/>
     <use x="58.552734375" xlink:href="#BitstreamVeraSans-Roman-72"/>
     <use x="97.416015625" xlink:href="#BitstreamVeraSans-Roman-6f"/>
     <use x="158.59765625" xlink:href="#BitstreamVeraSans-Roman-70"/>
     <use x="222.07421875" xlink:href="#BitstreamVeraSans-Roman-2e"/>
     <use x="253.861328125" xlink:href="#BitstreamVeraSans-Roman-20"/>
     <use x="285.6484375" xlink:href="#BitstreamVeraSans-Roman-6f"/>
     <use x="346.830078125" xlink:href="#BitstreamVeraSans-Roman-66"/>
     <use x="382.03515625" xlink:href="#BitstreamVeraSans-Roman-20"/>
     <use x="413.822265625" xlink:href="#BitstreamVeraSans-Roman-43"/>
     <use x="483.646484375" xlink:href="#BitstreamVeraSans-Roman-65"/>
     <use x="545.169921875" xlink:href="#BitstreamVeraSans-Roman-6e"/>
     <use x="608.548828125" xlink:href="#BitstreamVeraSans-Roman-74"/>
     <use x="647.7578125" xlink:href="#BitstreamVeraSans-Roman-72"/>
     <use x="688.87109375" xlink:href="#BitstreamVeraSans-Roman-61"/>
     <use x="750.150390625" xlink:href="#BitstreamVeraSans-Roman-6c"/>
     <use x="777.93359375" xlink:href="#BitstreamVeraSans-Roman-20"/>
     <use x="809.720703125" xlink:href="#BitstreamVeraSans-Roman-45"/>
     <use x="872.904296875" xlink:href="#BitstreamVeraSans-Roman-66"/>
     <use x="908.109375" xlink:href="#BitstreamVeraSans-Roman-66"/>
     <use x="943.314453125" xlink:href="#BitstreamVeraSans-Roman-65"/>
     <use x="1004.83789062" xlink:href="#BitstreamVeraSans-Roman-63"/>
     <use x="1059.81835938" xlink:href="#BitstreamVeraSans-Roman-74"/>
     <use x="1099.02734375" xlink:href="#BitstreamVeraSans-Roman-73"/>
     <use x="1151.12695312" xlink:href="#BitstreamVeraSans-Roman-20"/>
     <use x="1182.9140625" xlink:href="#BitstreamVeraSans-Roman-77"/>
     <use x="1264.70117188" xlink:href="#BitstreamVeraSans-Roman-69"/>
     <use x="1292.484375" xlink:href="#BitstreamVeraSans-Roman-74"/>
     <use x="1331.69335938" xlink:href="#BitstreamVeraSans-Roman-68"/>
     <use x="1395.07226562" xlink:href="#BitstreamVeraSans-Roman-20"/>
     <use x="1426.859375" xlink:href="#BitstreamVeraSans-Roman-70"/>
     <use x="1490.3359375" xlink:href="#BitstreamVeraSans-Roman-20"/>
     <use x="1522.12304688" xlink:href="#BitstreamVeraSans-Roman-3c"/>
     <use x="1605.91210938" xlink:href="#BitstreamVeraSans-Roman-20"/>
     <use x="1637.69921875" xlink:href="#BitstreamVeraSans-Roman-30"/>
     <use x="1701.32226562" xlink:href="#BitstreamVeraSans-Roman-2e"/>
     <use x="1733.109375" xlink:href="#BitstreamVeraSans-Roman-30"/>
     <use x="1796.73242188" xlink:href="#BitstreamVeraSans-Roman-35"/>
    </g>
   </g>
   <g id="legend_1">
    <g id="line2d_38">
     <path d="
M326.728 45.5248
L356.728 45.5248" style="fill:none;stroke:#4c4c4c;stroke-linecap:round;stroke-width:3;"/>
    </g>
    <g id="line2d_39"/>
    <g id="text_15">
     <!-- Original -->
     <defs>
      <path d="
M39.4062 66.2188
Q28.6562 66.2188 22.3281 58.2031
Q16.0156 50.2031 16.0156 36.375
Q16.0156 22.6094 22.3281 14.5938
Q28.6562 6.59375 39.4062 6.59375
Q50.1406 6.59375 56.4219 14.5938
Q62.7031 22.6094 62.7031 36.375
Q62.7031 50.2031 56.4219 58.2031
Q50.1406 66.2188 39.4062 66.2188
M39.4062 74.2188
Q54.7344 74.2188 63.9062 63.9375
Q73.0938 53.6562 73.0938 36.375
Q73.0938 19.1406 63.9062 8.85938
Q54.7344 -1.42188 39.4062 -1.42188
Q24.0312 -1.42188 14.8125 8.82812
Q5.60938 19.0938 5.60938 36.375
Q5.60938 53.6562 14.8125 63.9375
Q24.0312 74.2188 39.4062 74.2188" id="BitstreamVeraSans-Roman-4f"/>
     </defs>
     <g style="fill:#262626;" transform="translate(368.728125 50.77484375)scale(0.15 -0.15)">
      <use xlink:href="#BitstreamVeraSans-Roman-4f"/>
      <use x="78.7109375" xlink:href="#BitstreamVeraSans-Roman-72"/>
      <use x="119.82421875" xlink:href="#BitstreamVeraSans-Roman-69"/>
      <use x="147.607421875" xlink:href="#BitstreamVeraSans-Roman-67"/>
      <use x="211.083984375" xlink:href="#BitstreamVeraSans-Roman-69"/>
      <use x="238.8671875" xlink:href="#BitstreamVeraSans-Roman-6e"/>
      <use x="302.24609375" xlink:href="#BitstreamVeraSans-Roman-61"/>
      <use x="363.525390625" xlink:href="#BitstreamVeraSans-Roman-6c"/>
     </g>
    </g>
    <g id="line2d_40">
     <path d="
M326.728 67.542
L356.728 67.542" style="fill:none;stroke:#4c4c4c;stroke-dasharray:6.000000,6.000000;stroke-dashoffset:0.0;stroke-width:3;"/>
    </g>
    <g id="line2d_41"/>
    <g id="text_16">
     <!-- Original mean -->
     <defs>
      <path d="
M52 44.1875
Q55.375 50.25 60.0625 53.125
Q64.75 56 71.0938 56
Q79.6406 56 84.2812 50.0156
Q88.9219 44.0469 88.9219 33.0156
L88.9219 0
L79.8906 0
L79.8906 32.7188
Q79.8906 40.5781 77.0938 44.375
Q74.3125 48.1875 68.6094 48.1875
Q61.625 48.1875 57.5625 43.5469
Q53.5156 38.9219 53.5156 30.9062
L53.5156 0
L44.4844 0
L44.4844 32.7188
Q44.4844 40.625 41.7031 44.4062
Q38.9219 48.1875 33.1094 48.1875
Q26.2188 48.1875 22.1562 43.5312
Q18.1094 38.875 18.1094 30.9062
L18.1094 0
L9.07812 0
L9.07812 54.6875
L18.1094 54.6875
L18.1094 46.1875
Q21.1875 51.2188 25.4844 53.6094
Q29.7812 56 35.6875 56
Q41.6562 56 45.8281 52.9688
Q50 49.9531 52 44.1875" id="BitstreamVeraSans-Roman-6d"/>
     </defs>
     <g style="fill:#262626;" transform="translate(368.728125 72.79203125)scale(0.15 -0.15)">
      <use xlink:href="#BitstreamVeraSans-Roman-4f"/>
      <use x="78.7109375" xlink:href="#BitstreamVeraSans-Roman-72"/>
      <use x="119.82421875" xlink:href="#BitstreamVeraSans-Roman-69"/>
      <use x="147.607421875" xlink:href="#BitstreamVeraSans-Roman-67"/>
      <use x="211.083984375" xlink:href="#BitstreamVeraSans-Roman-69"/>
      <use x="238.8671875" xlink:href="#BitstreamVeraSans-Roman-6e"/>
      <use x="302.24609375" xlink:href="#BitstreamVeraSans-Roman-61"/>
      <use x="363.525390625" xlink:href="#BitstreamVeraSans-Roman-6c"/>
      <use x="391.30859375" xlink:href="#BitstreamVeraSans-Roman-20"/>
      <use x="423.095703125" xlink:href="#BitstreamVeraSans-Roman-6d"/>
      <use x="520.5078125" xlink:href="#BitstreamVeraSans-Roman-65"/>
      <use x="582.03125" xlink:href="#BitstreamVeraSans-Roman-61"/>
      <use x="643.310546875" xlink:href="#BitstreamVeraSans-Roman-6e"/>
     </g>
    </g>
    <g id="line2d_42">
     <path d="
M326.728 89.5592
L356.728 89.5592" style="fill:none;stroke:#808080;stroke-linecap:round;stroke-width:3;"/>
    </g>
    <g id="line2d_43"/>
    <g id="text_17">
     <!-- Perturbed -->
     <defs>
      <path d="
M45.4062 46.3906
L45.4062 75.9844
L54.3906 75.9844
L54.3906 0
L45.4062 0
L45.4062 8.20312
Q42.5781 3.32812 38.25 0.953125
Q33.9375 -1.42188 27.875 -1.42188
Q17.9688 -1.42188 11.7344 6.48438
Q5.51562 14.4062 5.51562 27.2969
Q5.51562 40.1875 11.7344 48.0938
Q17.9688 56 27.875 56
Q33.9375 56 38.25 53.625
Q42.5781 51.2656 45.4062 46.3906
M14.7969 27.2969
Q14.7969 17.3906 18.875 11.75
Q22.9531 6.10938 30.0781 6.10938
Q37.2031 6.10938 41.2969 11.75
Q45.4062 17.3906 45.4062 27.2969
Q45.4062 37.2031 41.2969 42.8438
Q37.2031 48.4844 30.0781 48.4844
Q22.9531 48.4844 18.875 42.8438
Q14.7969 37.2031 14.7969 27.2969" id="BitstreamVeraSans-Roman-64"/>
      <path d="
M8.5 21.5781
L8.5 54.6875
L17.4844 54.6875
L17.4844 21.9219
Q17.4844 14.1562 20.5 10.2656
Q23.5312 6.39062 29.5938 6.39062
Q36.8594 6.39062 41.0781 11.0312
Q45.3125 15.6719 45.3125 23.6875
L45.3125 54.6875
L54.2969 54.6875
L54.2969 0
L45.3125 0
L45.3125 8.40625
Q42.0469 3.42188 37.7188 1
Q33.4062 -1.42188 27.6875 -1.42188
Q18.2656 -1.42188 13.375 4.4375
Q8.5 10.2969 8.5 21.5781" id="BitstreamVeraSans-Roman-75"/>
      <path d="
M48.6875 27.2969
Q48.6875 37.2031 44.6094 42.8438
Q40.5312 48.4844 33.4062 48.4844
Q26.2656 48.4844 22.1875 42.8438
Q18.1094 37.2031 18.1094 27.2969
Q18.1094 17.3906 22.1875 11.75
Q26.2656 6.10938 33.4062 6.10938
Q40.5312 6.10938 44.6094 11.75
Q48.6875 17.3906 48.6875 27.2969
M18.1094 46.3906
Q20.9531 51.2656 25.2656 53.625
Q29.5938 56 35.5938 56
Q45.5625 56 51.7812 48.0938
Q58.0156 40.1875 58.0156 27.2969
Q58.0156 14.4062 51.7812 6.48438
Q45.5625 -1.42188 35.5938 -1.42188
Q29.5938 -1.42188 25.2656 0.953125
Q20.9531 3.32812 18.1094 8.20312
L18.1094 0
L9.07812 0
L9.07812 75.9844
L18.1094 75.9844
z
" id="BitstreamVeraSans-Roman-62"/>
     </defs>
     <g style="fill:#262626;" transform="translate(368.728125 94.80921875)scale(0.15 -0.15)">
      <use xlink:href="#BitstreamVeraSans-Roman-50"/>
      <use x="56.677734375" xlink:href="#BitstreamVeraSans-Roman-65"/>
      <use x="118.201171875" xlink:href="#BitstreamVeraSans-Roman-72"/>
      <use x="159.314453125" xlink:href="#BitstreamVeraSans-Roman-74"/>
      <use x="198.5234375" xlink:href="#BitstreamVeraSans-Roman-75"/>
      <use x="261.90234375" xlink:href="#BitstreamVeraSans-Roman-72"/>
      <use x="303.015625" xlink:href="#BitstreamVeraSans-Roman-62"/>
      <use x="366.4921875" xlink:href="#BitstreamVeraSans-Roman-65"/>
      <use x="428.015625" xlink:href="#BitstreamVeraSans-Roman-64"/>
     </g>
    </g>
    <g id="line2d_44">
     <path d="
M326.728 111.576
L356.728 111.576" style="fill:none;stroke:#808080;stroke-dasharray:6.000000,6.000000;stroke-dashoffset:0.0;stroke-width:3;"/>
    </g>
    <g id="line2d_45"/>
    <g id="text_18">
     <!-- Perturbed mean -->
     <g style="fill:#262626;" transform="translate(368.728125 116.82640625)scale(0.15 -0.15)">
      <use xlink:href="#BitstreamVeraSans-Roman-50"/>
      <use x="56.677734375" xlink:href="#BitstreamVeraSans-Roman-65"/>
      <use x="118.201171875" xlink:href="#BitstreamVeraSans-Roman-72"/>
      <use x="159.314453125" xlink:href="#BitstreamVeraSans-Roman-74"/>
      <use x="198.5234375" xlink:href="#BitstreamVeraSans-Roman-75"/>
      <use x="261.90234375" xlink:href="#BitstreamVeraSans-Roman-72"/>
      <use x="303.015625" xlink:href="#BitstreamVeraSans-Roman-62"/>
      <use x="366.4921875" xlink:href="#BitstreamVeraSans-Roman-65"/>
      <use x="428.015625" xlink:href="#BitstreamVeraSans-Roman-64"/>
      <use x="491.4921875" xlink:href="#BitstreamVeraSans-Roman-20"/>
      <use x="523.279296875" xlink:href="#BitstreamVeraSans-Roman-6d"/>
      <use x="620.69140625" xlink:href="#BitstreamVeraSans-Roman-65"/>
      <use x="682.21484375" xlink:href="#BitstreamVeraSans-Roman-61"/>
      <use x="743.494140625" xlink:href="#BitstreamVeraSans-Roman-6e"/>
     </g>
    </g>
   </g>
  </g>
 </g>
 <defs>
  <clipPath id="pf270f86476">
   <rect height="334.8" width="446.4" x="55.58671875" y="25.8771875"/>
  </clipPath>
 </defs>
</svg>
