<?xml version="1.0" encoding="utf-8" standalone="no"?>
<!DOCTYPE svg PUBLIC "-//W3C//DTD SVG 1.1//EN"
  "http://www.w3.org/Graphics/SVG/1.1/DTD/svg11.dtd">
<!-- Created with matplotlib (http://matplotlib.org/) -->
<svg height="408pt" version="1.1" viewBox="0 0 519 408" width="519pt" xmlns="http://www.w3.org/2000/svg" xmlns:xlink="http://www.w3.org/1999/xlink">
 <defs>
  <style type="text/css">
*{stroke-linecap:butt;stroke-linejoin:round;}
  </style>
 </defs>
 <g id="figure_1">
  <g id="patch_1">
   <path d="
M0 408.912
L519.792 408.912
L519.792 0
L0 0
z
" style="fill:#ffffff;"/>
  </g>
  <g id="axes_1">
   <g id="patch_2">
    <path d="
M55.5867 360.677
L501.987 360.677
L501.987 25.8772
L55.5867 25.8772
z
" style="fill:none;"/>
   </g>
   <g id="matplotlib.axis_1">
    <g id="xtick_1">
     <g id="line2d_1">
      <path clip-path="url(#pf270f86476)" d="
M55.5867 360.677
L55.5867 25.8772" style="fill:none;stroke:#262626;stroke-dasharray:3.000000,5.000000,1.000000,5.000000;stroke-dashoffset:0.0;"/>
     </g>
     <g id="line2d_2">
      <defs>
       <path d="
M0 0
L0 0" id="m219da94a98" style="stroke:#262626;"/>
      </defs>
      <g>
       <use style="fill:#262626;stroke:#262626;" x="55.58671875" xlink:href="#m219da94a98" y="360.6771875"/>
      </g>
     </g>
     <g id="line2d_3">
      <g>
       <use style="fill:#262626;stroke:#262626;" x="55.58671875" xlink:href="#m219da94a98" y="25.8771875"/>
      </g>
     </g>
     <g id="text_1">
      <!-- 0.0 -->
      <defs>
       <path d="
M31.7812 66.4062
Q24.1719 66.4062 20.3281 58.9062
Q16.5 51.4219 16.5 36.375
Q16.5 21.3906 20.3281 13.8906
Q24.1719 6.39062 31.7812 6.39062
Q39.4531 6.39062 43.2812 13.8906
Q47.125 21.3906 47.125 36.375
Q47.125 51.4219 43.2812 58.9062
Q39.4531 66.4062 31.7812 66.4062
M31.7812 74.2188
Q44.0469 74.2188 50.5156 64.5156
Q56.9844 54.8281 56.9844 36.375
Q56.9844 17.9688 50.5156 8.26562
Q44.0469 -1.42188 31.7812 -1.42188
Q19.5312 -1.42188 13.0625 8.26562
Q6.59375 17.9688 6.59375 36.375
Q6.59375 54.8281 13.0625 64.5156
Q19.5312 74.2188 31.7812 74.2188" id="BitstreamVeraSans-Roman-30"/>
       <path d="
M10.6875 12.4062
L21 12.4062
L21 0
L10.6875 0
z
" id="BitstreamVeraSans-Roman-2e"/>
      </defs>
      <g style="fill:#262626;" transform="translate(44.651953125 379.07484375)scale(0.15 -0.15)">
       <use xlink:href="#BitstreamVeraSans-Roman-30"/>
       <use x="63.623046875" xlink:href="#BitstreamVeraSans-Roman-2e"/>
       <use x="95.41015625" xlink:href="#BitstreamVeraSans-Roman-30"/>
      </g>
     </g>
    </g>
    <g id="xtick_2">
     <g id="line2d_4">
      <path clip-path="url(#pf270f86476)" d="
M144.867 360.677
L144.867 25.8772" style="fill:none;stroke:#262626;stroke-dasharray:3.000000,5.000000,1.000000,5.000000;stroke-dashoffset:0.0;"/>
     </g>
     <g id="line2d_5">
      <g>
       <use style="fill:#262626;stroke:#262626;" x="144.86671875" xlink:href="#m219da94a98" y="360.6771875"/>
      </g>
     </g>
     <g id="line2d_6">
      <g>
       <use style="fill:#262626;stroke:#262626;" x="144.86671875" xlink:href="#m219da94a98" y="25.8771875"/>
      </g>
     </g>
     <g id="text_2">
      <!-- 0.2 -->
      <defs>
       <path d="
M19.1875 8.29688
L53.6094 8.29688
L53.6094 0
L7.32812 0
L7.32812 8.29688
Q12.9375 14.1094 22.625 23.8906
Q32.3281 33.6875 34.8125 36.5312
Q39.5469 41.8438 41.4219 45.5312
Q43.3125 49.2188 43.3125 52.7812
Q43.3125 58.5938 39.2344 62.25
Q35.1562 65.9219 28.6094 65.9219
Q23.9688 65.9219 18.8125 64.3125
Q13.6719 62.7031 7.8125 59.4219
L7.8125 69.3906
Q13.7656 71.7812 18.9375 73
Q24.125 74.2188 28.4219 74.2188
Q39.75 74.2188 46.4844 68.5469
Q53.2188 62.8906 53.2188 53.4219
Q53.2188 48.9219 51.5312 44.8906
Q49.8594 40.875 45.4062 35.4062
Q44.1875 33.9844 37.6406 27.2188
Q31.1094 20.4531 19.1875 8.29688" id="BitstreamVeraSans-Roman-32"/>
      </defs>
      <g style="fill:#262626;" transform="translate(134.185078125 379.07484375)scale(0.15 -0.15)">
       <use xlink:href="#BitstreamVeraSans-Roman-30"/>
       <use x="63.623046875" xlink:href="#BitstreamVeraSans-Roman-2e"/>
       <use x="95.41015625" xlink:href="#BitstreamVeraSans-Roman-32"/>
      </g>
     </g>
    </g>
    <g id="xtick_3">
     <g id="line2d_7">
      <path clip-path="url(#pf270f86476)" d="
M234.147 360.677
L234.147 25.8772" style="fill:none;stroke:#262626;stroke-dasharray:3.000000,5.000000,1.000000,5.000000;stroke-dashoffset:0.0;"/>
     </g>
     <g id="line2d_8">
      <g>
       <use style="fill:#262626;stroke:#262626;" x="234.14671875" xlink:href="#m219da94a98" y="360.6771875"/>
      </g>
     </g>
     <g id="line2d_9">
      <g>
       <use style="fill:#262626;stroke:#262626;" x="234.14671875" xlink:href="#m219da94a98" y="25.8771875"/>
      </g>
     </g>
     <g id="text_3">
      <!-- 0.4 -->
      <defs>
       <path d="
M37.7969 64.3125
L12.8906 25.3906
L37.7969 25.3906
z

M35.2031 72.9062
L47.6094 72.9062
L47.6094 25.3906
L58.0156 25.3906
L58.0156 17.1875
L47.6094 17.1875
L47.6094 0
L37.7969 0
L37.7969 17.1875
L4.89062 17.1875
L4.89062 26.7031
z
" id="BitstreamVeraSans-Roman-34"/>
      </defs>
      <g style="fill:#262626;" transform="translate(223.134609375 379.07484375)scale(0.15 -0.15)">
       <use xlink:href="#BitstreamVeraSans-Roman-30"/>
       <use x="63.623046875" xlink:href="#BitstreamVeraSans-Roman-2e"/>
       <use x="95.41015625" xlink:href="#BitstreamVeraSans-Roman-34"/>
      </g>
     </g>
    </g>
    <g id="xtick_4">
     <g id="line2d_10">
      <path clip-path="url(#pf270f86476)" d="
M323.427 360.677
L323.427 25.8772" style="fill:none;stroke:#262626;stroke-dasharray:3.000000,5.000000,1.000000,5.000000;stroke-dashoffset:0.0;"/>
     </g>
     <g id="line2d_11">
      <g>
       <use style="fill:#262626;stroke:#262626;" x="323.42671875" xlink:href="#m219da94a98" y="360.6771875"/>
      </g>
     </g>
     <g id="line2d_12">
      <g>
       <use style="fill:#262626;stroke:#262626;" x="323.42671875" xlink:href="#m219da94a98" y="25.8771875"/>
      </g>
     </g>
     <g id="text_4">
      <!-- 0.6 -->
      <defs>
       <path d="
M33.0156 40.375
Q26.375 40.375 22.4844 35.8281
Q18.6094 31.2969 18.6094 23.3906
Q18.6094 15.5312 22.4844 10.9531
Q26.375 6.39062 33.0156 6.39062
Q39.6562 6.39062 43.5312 10.9531
Q47.4062 15.5312 47.4062 23.3906
Q47.4062 31.2969 43.5312 35.8281
Q39.6562 40.375 33.0156 40.375
M52.5938 71.2969
L52.5938 62.3125
Q48.875 64.0625 45.0938 64.9844
Q41.3125 65.9219 37.5938 65.9219
Q27.8281 65.9219 22.6719 59.3281
Q17.5312 52.7344 16.7969 39.4062
Q19.6719 43.6562 24.0156 45.9219
Q28.375 48.1875 33.5938 48.1875
Q44.5781 48.1875 50.9531 41.5156
Q57.3281 34.8594 57.3281 23.3906
Q57.3281 12.1562 50.6875 5.35938
Q44.0469 -1.42188 33.0156 -1.42188
Q20.3594 -1.42188 13.6719 8.26562
Q6.98438 17.9688 6.98438 36.375
Q6.98438 53.6562 15.1875 63.9375
Q23.3906 74.2188 37.2031 74.2188
Q40.9219 74.2188 44.7031 73.4844
Q48.4844 72.75 52.5938 71.2969" id="BitstreamVeraSans-Roman-36"/>
      </defs>
      <g style="fill:#262626;" transform="translate(312.466171875 379.07484375)scale(0.15 -0.15)">
       <use xlink:href="#BitstreamVeraSans-Roman-30"/>
       <use x="63.623046875" xlink:href="#BitstreamVeraSans-Roman-2e"/>
       <use x="95.41015625" xlink:href="#BitstreamVeraSans-Roman-36"/>
      </g>
     </g>
    </g>
    <g id="xtick_5">
     <g id="line2d_13">
      <path clip-path="url(#pf270f86476)" d="
M412.707 360.677
L412.707 25.8772" style="fill:none;stroke:#262626;stroke-dasharray:3.000000,5.000000,1.000000,5.000000;stroke-dashoffset:0.0;"/>
     </g>
     <g id="line2d_14">
      <g>
       <use style="fill:#262626;stroke:#262626;" x="412.70671875" xlink:href="#m219da94a98" y="360.6771875"/>
      </g>
     </g>
     <g id="line2d_15">
      <g>
       <use style="fill:#262626;stroke:#262626;" x="412.70671875" xlink:href="#m219da94a98" y="25.8771875"/>
      </g>
     </g>
     <g id="text_5">
      <!-- 0.8 -->
      <defs>
       <path d="
M31.7812 34.625
Q24.75 34.625 20.7188 30.8594
Q16.7031 27.0938 16.7031 20.5156
Q16.7031 13.9219 20.7188 10.1562
Q24.75 6.39062 31.7812 6.39062
Q38.8125 6.39062 42.8594 10.1719
Q46.9219 13.9688 46.9219 20.5156
Q46.9219 27.0938 42.8906 30.8594
Q38.875 34.625 31.7812 34.625
M21.9219 38.8125
Q15.5781 40.375 12.0312 44.7188
Q8.5 49.0781 8.5 55.3281
Q8.5 64.0625 14.7188 69.1406
Q20.9531 74.2188 31.7812 74.2188
Q42.6719 74.2188 48.875 69.1406
Q55.0781 64.0625 55.0781 55.3281
Q55.0781 49.0781 51.5312 44.7188
Q48 40.375 41.7031 38.8125
Q48.8281 37.1562 52.7969 32.3125
Q56.7812 27.4844 56.7812 20.5156
Q56.7812 9.90625 50.3125 4.23438
Q43.8438 -1.42188 31.7812 -1.42188
Q19.7344 -1.42188 13.25 4.23438
Q6.78125 9.90625 6.78125 20.5156
Q6.78125 27.4844 10.7812 32.3125
Q14.7969 37.1562 21.9219 38.8125
M18.3125 54.3906
Q18.3125 48.7344 21.8438 45.5625
Q25.3906 42.3906 31.7812 42.3906
Q38.1406 42.3906 41.7188 45.5625
Q45.3125 48.7344 45.3125 54.3906
Q45.3125 60.0625 41.7188 63.2344
Q38.1406 66.4062 31.7812 66.4062
Q25.3906 66.4062 21.8438 63.2344
Q18.3125 60.0625 18.3125 54.3906" id="BitstreamVeraSans-Roman-38"/>
      </defs>
      <g style="fill:#262626;" transform="translate(401.7871875 379.07484375)scale(0.15 -0.15)">
       <use xlink:href="#BitstreamVeraSans-Roman-30"/>
       <use x="63.623046875" xlink:href="#BitstreamVeraSans-Roman-2e"/>
       <use x="95.41015625" xlink:href="#BitstreamVeraSans-Roman-38"/>
      </g>
     </g>
    </g>
    <g id="xtick_6">
     <g id="line2d_16">
      <path clip-path="url(#pf270f86476)" d="
M501.987 360.677
L501.987 25.8772" style="fill:none;stroke:#262626;stroke-dasharray:3.000000,5.000000,1.000000,5.000000;stroke-dashoffset:0.0;"/>
     </g>
     <g id="line2d_17">
      <g>
       <use style="fill:#262626;stroke:#262626;" x="501.98671875" xlink:href="#m219da94a98" y="360.6771875"/>
      </g>
     </g>
     <g id="line2d_18">
      <g>
       <use style="fill:#262626;stroke:#262626;" x="501.98671875" xlink:href="#m219da94a98" y="25.8771875"/>
      </g>
     </g>
     <g id="text_6">
      <!-- 1.0 -->
      <defs>
       <path d="
M12.4062 8.29688
L28.5156 8.29688
L28.5156 63.9219
L10.9844 60.4062
L10.9844 69.3906
L28.4219 72.9062
L38.2812 72.9062
L38.2812 8.29688
L54.3906 8.29688
L54.3906 0
L12.4062 0
z
" id="BitstreamVeraSans-Roman-31"/>
      </defs>
      <g style="fill:#262626;" transform="translate(491.38125 379.07484375)scale(0.15 -0.15)">
       <use xlink:href="#BitstreamVeraSans-Roman-31"/>
       <use x="63.623046875" xlink:href="#BitstreamVeraSans-Roman-2e"/>
       <use x="95.41015625" xlink:href="#BitstreamVeraSans-Roman-30"/>
      </g>
     </g>
    </g>
    <g id="text_7">
     <!-- Proportion of Stat. Sign. Effects -->
     <defs>
      <path id="BitstreamVeraSans-Roman-20"/>
      <path d="
M54.8906 33.0156
L54.8906 0
L45.9062 0
L45.9062 32.7188
Q45.9062 40.4844 42.875 44.3281
Q39.8438 48.1875 33.7969 48.1875
Q26.5156 48.1875 22.3125 43.5469
Q18.1094 38.9219 18.1094 30.9062
L18.1094 0
L9.07812 0
L9.07812 54.6875
L18.1094 54.6875
L18.1094 46.1875
Q21.3438 51.125 25.7031 53.5625
Q30.0781 56 35.7969 56
Q45.2188 56 50.0469 50.1719
Q54.8906 44.3438 54.8906 33.0156" id="BitstreamVeraSans-Roman-6e"/>
      <path d="
M34.2812 27.4844
Q23.3906 27.4844 19.1875 25
Q14.9844 22.5156 14.9844 16.5
Q14.9844 11.7188 18.1406 8.90625
Q21.2969 6.10938 26.7031 6.10938
Q34.1875 6.10938 38.7031 11.4062
Q43.2188 16.7031 43.2188 25.4844
L43.2188 27.4844
z

M52.2031 31.2031
L52.2031 0
L43.2188 0
L43.2188 8.29688
Q40.1406 3.32812 35.5469 0.953125
Q30.9531 -1.42188 24.3125 -1.42188
Q15.9219 -1.42188 10.9531 3.29688
Q6 8.01562 6 15.9219
Q6 25.1406 12.1719 29.8281
Q18.3594 34.5156 30.6094 34.5156
L43.2188 34.5156
L43.2188 35.4062
Q43.2188 41.6094 39.1406 45
Q35.0625 48.3906 27.6875 48.3906
Q23 48.3906 18.5469 47.2656
Q14.1094 46.1406 10.0156 43.8906
L10.0156 52.2031
Q14.9375 54.1094 19.5781 55.0469
Q24.2188 56 28.6094 56
Q40.4844 56 46.3438 49.8438
Q52.2031 43.7031 52.2031 31.2031" id="BitstreamVeraSans-Roman-61"/>
      <path d="
M30.6094 48.3906
Q23.3906 48.3906 19.1875 42.75
Q14.9844 37.1094 14.9844 27.2969
Q14.9844 17.4844 19.1562 11.8438
Q23.3438 6.20312 30.6094 6.20312
Q37.7969 6.20312 41.9844 11.8594
Q46.1875 17.5312 46.1875 27.2969
Q46.1875 37.0156 41.9844 42.7031
Q37.7969 48.3906 30.6094 48.3906
M30.6094 56
Q42.3281 56 49.0156 48.375
Q55.7188 40.7656 55.7188 27.2969
Q55.7188 13.875 49.0156 6.21875
Q42.3281 -1.42188 30.6094 -1.42188
Q18.8438 -1.42188 12.1719 6.21875
Q5.51562 13.875 5.51562 27.2969
Q5.51562 40.7656 12.1719 48.375
Q18.8438 56 30.6094 56" id="BitstreamVeraSans-Roman-6f"/>
      <path d="
M44.2812 53.0781
L44.2812 44.5781
Q40.4844 46.5312 36.375 47.5
Q32.2812 48.4844 27.875 48.4844
Q21.1875 48.4844 17.8438 46.4375
Q14.5 44.3906 14.5 40.2812
Q14.5 37.1562 16.8906 35.375
Q19.2812 33.5938 26.5156 31.9844
L29.5938 31.2969
Q39.1562 29.25 43.1875 25.5156
Q47.2188 21.7812 47.2188 15.0938
Q47.2188 7.46875 41.1875 3.01562
Q35.1562 -1.42188 24.6094 -1.42188
Q20.2188 -1.42188 15.4531 -0.5625
Q10.6875 0.296875 5.42188 2
L5.42188 11.2812
Q10.4062 8.6875 15.2344 7.39062
Q20.0625 6.10938 24.8125 6.10938
Q31.1562 6.10938 34.5625 8.28125
Q37.9844 10.4531 37.9844 14.4062
Q37.9844 18.0625 35.5156 20.0156
Q33.0625 21.9688 24.7031 23.7812
L21.5781 24.5156
Q13.2344 26.2656 9.51562 29.9062
Q5.8125 33.5469 5.8125 39.8906
Q5.8125 47.6094 11.2812 51.7969
Q16.75 56 26.8125 56
Q31.7812 56 36.1719 55.2656
Q40.5781 54.5469 44.2812 53.0781" id="BitstreamVeraSans-Roman-73"/>
      <path d="
M19.6719 64.7969
L19.6719 37.4062
L32.0781 37.4062
Q38.9688 37.4062 42.7188 40.9688
Q46.4844 44.5312 46.4844 51.125
Q46.4844 57.6719 42.7188 61.2344
Q38.9688 64.7969 32.0781 64.7969
z

M9.8125 72.9062
L32.0781 72.9062
Q44.3438 72.9062 50.6094 67.3594
Q56.8906 61.8125 56.8906 51.125
Q56.8906 40.3281 50.6094 34.8125
Q44.3438 29.2969 32.0781 29.2969
L19.6719 29.2969
L19.6719 0
L9.8125 0
z
" id="BitstreamVeraSans-Roman-50"/>
      <path d="
M9.8125 72.9062
L55.9062 72.9062
L55.9062 64.5938
L19.6719 64.5938
L19.6719 43.0156
L54.3906 43.0156
L54.3906 34.7188
L19.6719 34.7188
L19.6719 8.29688
L56.7812 8.29688
L56.7812 0
L9.8125 0
z
" id="BitstreamVeraSans-Roman-45"/>
      <path d="
M53.5156 70.5156
L53.5156 60.8906
Q47.9062 63.5781 42.9219 64.8906
Q37.9375 66.2188 33.2969 66.2188
Q25.25 66.2188 20.875 63.0938
Q16.5 59.9688 16.5 54.2031
Q16.5 49.3594 19.4062 46.8906
Q22.3125 44.4375 30.4219 42.9219
L36.375 41.7031
Q47.4062 39.5938 52.6562 34.2969
Q57.9062 29 57.9062 20.125
Q57.9062 9.51562 50.7969 4.04688
Q43.7031 -1.42188 29.9844 -1.42188
Q24.8125 -1.42188 18.9688 -0.25
Q13.1406 0.921875 6.89062 3.21875
L6.89062 13.375
Q12.8906 10.0156 18.6562 8.29688
Q24.4219 6.59375 29.9844 6.59375
Q38.4219 6.59375 43.0156 9.90625
Q47.6094 13.2344 47.6094 19.3906
Q47.6094 24.75 44.3125 27.7812
Q41.0156 30.8125 33.5 32.3281
L27.4844 33.5
Q16.4531 35.6875 11.5156 40.375
Q6.59375 45.0625 6.59375 53.4219
Q6.59375 63.0938 13.4062 68.6562
Q20.2188 74.2188 32.1719 74.2188
Q37.3125 74.2188 42.625 73.2812
Q47.9531 72.3594 53.5156 70.5156" id="BitstreamVeraSans-Roman-53"/>
      <path d="
M9.42188 54.6875
L18.4062 54.6875
L18.4062 0
L9.42188 0
z

M9.42188 75.9844
L18.4062 75.9844
L18.4062 64.5938
L9.42188 64.5938
z
" id="BitstreamVeraSans-Roman-69"/>
      <path d="
M48.7812 52.5938
L48.7812 44.1875
Q44.9688 46.2969 41.1406 47.3438
Q37.3125 48.3906 33.4062 48.3906
Q24.6562 48.3906 19.8125 42.8438
Q14.9844 37.3125 14.9844 27.2969
Q14.9844 17.2812 19.8125 11.7344
Q24.6562 6.20312 33.4062 6.20312
Q37.3125 6.20312 41.1406 7.25
Q44.9688 8.29688 48.7812 10.4062
L48.7812 2.09375
Q45.0156 0.34375 40.9844 -0.53125
Q36.9688 -1.42188 32.4219 -1.42188
Q20.0625 -1.42188 12.7812 6.34375
Q5.51562 14.1094 5.51562 27.2969
Q5.51562 40.6719 12.8594 48.3281
Q20.2188 56 33.0156 56
Q37.1562 56 41.1094 55.1406
Q45.0625 54.2969 48.7812 52.5938" id="BitstreamVeraSans-Roman-63"/>
      <path d="
M56.2031 29.5938
L56.2031 25.2031
L14.8906 25.2031
Q15.4844 15.9219 20.4844 11.0625
Q25.4844 6.20312 34.4219 6.20312
Q39.5938 6.20312 44.4531 7.46875
Q49.3125 8.73438 54.1094 11.2812
L54.1094 2.78125
Q49.2656 0.734375 44.1875 -0.34375
Q39.1094 -1.42188 33.8906 -1.42188
Q20.7969 -1.42188 13.1562 6.1875
Q5.51562 13.8125 5.51562 26.8125
Q5.51562 40.2344 12.7656 48.1094
Q20.0156 56 32.3281 56
Q43.3594 56 49.7812 48.8906
Q56.2031 41.7969 56.2031 29.5938
M47.2188 32.2344
Q47.125 39.5938 43.0938 43.9844
Q39.0625 48.3906 32.4219 48.3906
Q24.9062 48.3906 20.3906 44.1406
Q15.875 39.8906 15.1875 32.1719
z
" id="BitstreamVeraSans-Roman-65"/>
      <path d="
M18.3125 70.2188
L18.3125 54.6875
L36.8125 54.6875
L36.8125 47.7031
L18.3125 47.7031
L18.3125 18.0156
Q18.3125 11.3281 20.1406 9.42188
Q21.9688 7.51562 27.5938 7.51562
L36.8125 7.51562
L36.8125 0
L27.5938 0
Q17.1875 0 13.2344 3.875
Q9.28125 7.76562 9.28125 18.0156
L9.28125 47.7031
L2.6875 47.7031
L2.6875 54.6875
L9.28125 54.6875
L9.28125 70.2188
z
" id="BitstreamVeraSans-Roman-74"/>
      <path d="
M37.1094 75.9844
L37.1094 68.5
L28.5156 68.5
Q23.6875 68.5 21.7969 66.5469
Q19.9219 64.5938 19.9219 59.5156
L19.9219 54.6875
L34.7188 54.6875
L34.7188 47.7031
L19.9219 47.7031
L19.9219 0
L10.8906 0
L10.8906 47.7031
L2.29688 47.7031
L2.29688 54.6875
L10.8906 54.6875
L10.8906 58.5
Q10.8906 67.625 15.1406 71.7969
Q19.3906 75.9844 28.6094 75.9844
z
" id="BitstreamVeraSans-Roman-66"/>
      <path d="
M41.1094 46.2969
Q39.5938 47.1719 37.8125 47.5781
Q36.0312 48 33.8906 48
Q26.2656 48 22.1875 43.0469
Q18.1094 38.0938 18.1094 28.8125
L18.1094 0
L9.07812 0
L9.07812 54.6875
L18.1094 54.6875
L18.1094 46.1875
Q20.9531 51.1719 25.4844 53.5781
Q30.0312 56 36.5312 56
Q37.4531 56 38.5781 55.875
Q39.7031 55.7656 41.0625 55.5156
z
" id="BitstreamVeraSans-Roman-72"/>
      <path d="
M45.4062 27.9844
Q45.4062 37.75 41.375 43.1094
Q37.3594 48.4844 30.0781 48.4844
Q22.8594 48.4844 18.8281 43.1094
Q14.7969 37.75 14.7969 27.9844
Q14.7969 18.2656 18.8281 12.8906
Q22.8594 7.51562 30.0781 7.51562
Q37.3594 7.51562 41.375 12.8906
Q45.4062 18.2656 45.4062 27.9844
M54.3906 6.78125
Q54.3906 -7.17188 48.1875 -13.9844
Q42 -20.7969 29.2031 -20.7969
Q24.4688 -20.7969 20.2656 -20.0938
Q16.0625 -19.3906 12.1094 -17.9219
L12.1094 -9.1875
Q16.0625 -11.3281 19.9219 -12.3438
Q23.7812 -13.375 27.7812 -13.375
Q36.625 -13.375 41.0156 -8.76562
Q45.4062 -4.15625 45.4062 5.17188
L45.4062 9.625
Q42.625 4.78125 38.2812 2.39062
Q33.9375 0 27.875 0
Q17.8281 0 11.6719 7.65625
Q5.51562 15.3281 5.51562 27.9844
Q5.51562 40.6719 11.6719 48.3281
Q17.8281 56 27.875 56
Q33.9375 56 38.2812 53.6094
Q42.625 51.2188 45.4062 46.3906
L45.4062 54.6875
L54.3906 54.6875
z
" id="BitstreamVeraSans-Roman-67"/>
      <path d="
M18.1094 8.20312
L18.1094 -20.7969
L9.07812 -20.7969
L9.07812 54.6875
L18.1094 54.6875
L18.1094 46.3906
Q20.9531 51.2656 25.2656 53.625
Q29.5938 56 35.5938 56
Q45.5625 56 51.7812 48.0938
Q58.0156 40.1875 58.0156 27.2969
Q58.0156 14.4062 51.7812 6.48438
Q45.5625 -1.42188 35.5938 -1.42188
Q29.5938 -1.42188 25.2656 0.953125
Q20.9531 3.32812 18.1094 8.20312
M48.6875 27.2969
Q48.6875 37.2031 44.6094 42.8438
Q40.5312 48.4844 33.4062 48.4844
Q26.2656 48.4844 22.1875 42.8438
Q18.1094 37.2031 18.1094 27.2969
Q18.1094 17.3906 22.1875 11.75
Q26.2656 6.10938 33.4062 6.10938
Q40.5312 6.10938 44.6094 11.75
Q48.6875 17.3906 48.6875 27.2969" id="BitstreamVeraSans-Roman-70"/>
     </defs>
     <g style="fill:#262626;" transform="translate(161.724609375 398.59203125)scale(0.15 -0.15)">
      <use xlink:href="#BitstreamVeraSans-Roman-50"/>
      <use x="58.552734375" xlink:href="#BitstreamVeraSans-Roman-72"/>
      <use x="97.416015625" xlink:href="#BitstreamVeraSans-Roman-6f"/>
      <use x="158.59765625" xlink:href="#BitstreamVeraSans-Roman-70"/>
      <use x="222.07421875" xlink:href="#BitstreamVeraSans-Roman-6f"/>
      <use x="283.255859375" xlink:href="#BitstreamVeraSans-Roman-72"/>
      <use x="324.369140625" xlink:href="#BitstreamVeraSans-Roman-74"/>
      <use x="363.578125" xlink:href="#BitstreamVeraSans-Roman-69"/>
      <use x="391.361328125" xlink:href="#BitstreamVeraSans-Roman-6f"/>
      <use x="452.54296875" xlink:href="#BitstreamVeraSans-Roman-6e"/>
      <use x="515.921875" xlink:href="#BitstreamVeraSans-Roman-20"/>
      <use x="547.708984375" xlink:href="#BitstreamVeraSans-Roman-6f"/>
      <use x="608.890625" xlink:href="#BitstreamVeraSans-Roman-66"/>
      <use x="644.095703125" xlink:href="#BitstreamVeraSans-Roman-20"/>
      <use x="675.8828125" xlink:href="#BitstreamVeraSans-Roman-53"/>
      <use x="739.359375" xlink:href="#BitstreamVeraSans-Roman-74"/>
      <use x="778.568359375" xlink:href="#BitstreamVeraSans-Roman-61"/>
      <use x="839.84765625" xlink:href="#BitstreamVeraSans-Roman-74"/>
      <use x="879.056640625" xlink:href="#BitstreamVeraSans-Roman-2e"/>
      <use x="910.84375" xlink:href="#BitstreamVeraSans-Roman-20"/>
      <use x="942.630859375" xlink:href="#BitstreamVeraSans-Roman-53"/>
      <use x="1006.10742188" xlink:href="#BitstreamVeraSans-Roman-69"/>
      <use x="1033.890625" xlink:href="#BitstreamVeraSans-Roman-67"/>
      <use x="1097.3671875" xlink:href="#BitstreamVeraSans-Roman-6e"/>
      <use x="1160.74609375" xlink:href="#BitstreamVeraSans-Roman-2e"/>
      <use x="1192.53320312" xlink:href="#BitstreamVeraSans-Roman-20"/>
      <use x="1224.3203125" xlink:href="#BitstreamVeraSans-Roman-45"/>
      <use x="1287.50390625" xlink:href="#BitstreamVeraSans-Roman-66"/>
      <use x="1322.70898438" xlink:href="#BitstreamVeraSans-Roman-66"/>
      <use x="1357.9140625" xlink:href="#BitstreamVeraSans-Roman-65"/>
      <use x="1419.4375" xlink:href="#BitstreamVeraSans-Roman-63"/>
      <use x="1474.41796875" xlink:href="#BitstreamVeraSans-Roman-74"/>
      <use x="1513.62695312" xlink:href="#BitstreamVeraSans-Roman-73"/>
     </g>
    </g>
   </g>
   <g id="matplotlib.axis_2">
    <g id="ytick_1">
     <g id="line2d_19">
      <path clip-path="url(#pf270f86476)" d="
M55.5867 360.677
L501.987 360.677" style="fill:none;stroke:#262626;stroke-dasharray:3.000000,5.000000,1.000000,5.000000;stroke-dashoffset:0.0;"/>
     </g>
     <g id="line2d_20">
      <g>
       <use style="fill:#262626;stroke:#262626;" x="55.58671875" xlink:href="#m219da94a98" y="360.6771875"/>
      </g>
     </g>
     <g id="line2d_21">
      <g>
       <use style="fill:#262626;stroke:#262626;" x="501.98671875" xlink:href="#m219da94a98" y="360.6771875"/>
      </g>
     </g>
     <g id="text_8">
      <!-- 0.0 -->
      <g style="fill:#262626;" transform="translate(26.7171875 364.81625)scale(0.15 -0.15)">
       <use xlink:href="#BitstreamVeraSans-Roman-30"/>
       <use x="63.623046875" xlink:href="#BitstreamVeraSans-Roman-2e"/>
       <use x="95.41015625" xlink:href="#BitstreamVeraSans-Roman-30"/>
      </g>
     </g>
    </g>
    <g id="ytick_2">
     <g id="line2d_22">
      <path clip-path="url(#pf270f86476)" d="
M55.5867 276.977
L501.987 276.977" style="fill:none;stroke:#262626;stroke-dasharray:3.000000,5.000000,1.000000,5.000000;stroke-dashoffset:0.0;"/>
     </g>
     <g id="line2d_23">
      <g>
       <use style="fill:#262626;stroke:#262626;" x="55.58671875" xlink:href="#m219da94a98" y="276.9771875"/>
      </g>
     </g>
     <g id="line2d_24">
      <g>
       <use style="fill:#262626;stroke:#262626;" x="501.98671875" xlink:href="#m219da94a98" y="276.9771875"/>
      </g>
     </g>
     <g id="text_9">
      <!-- 0.5 -->
      <defs>
       <path d="
M10.7969 72.9062
L49.5156 72.9062
L49.5156 64.5938
L19.8281 64.5938
L19.8281 46.7344
Q21.9688 47.4688 24.1094 47.8281
Q26.2656 48.1875 28.4219 48.1875
Q40.625 48.1875 47.75 41.5
Q54.8906 34.8125 54.8906 23.3906
Q54.8906 11.625 47.5625 5.09375
Q40.2344 -1.42188 26.9062 -1.42188
Q22.3125 -1.42188 17.5469 -0.640625
Q12.7969 0.140625 7.71875 1.70312
L7.71875 11.625
Q12.1094 9.23438 16.7969 8.0625
Q21.4844 6.89062 26.7031 6.89062
Q35.1562 6.89062 40.0781 11.3281
Q45.0156 15.7656 45.0156 23.3906
Q45.0156 31 40.0781 35.4375
Q35.1562 39.8906 26.7031 39.8906
Q22.75 39.8906 18.8125 39.0156
Q14.8906 38.1406 10.7969 36.2812
z
" id="BitstreamVeraSans-Roman-35"/>
      </defs>
      <g style="fill:#262626;" transform="translate(27.03125 281.11625)scale(0.15 -0.15)">
       <use xlink:href="#BitstreamVeraSans-Roman-30"/>
       <use x="63.623046875" xlink:href="#BitstreamVeraSans-Roman-2e"/>
       <use x="95.41015625" xlink:href="#BitstreamVeraSans-Roman-35"/>
      </g>
     </g>
    </g>
    <g id="ytick_3">
     <g id="line2d_25">
      <path clip-path="url(#pf270f86476)" d="
M55.5867 193.277
L501.987 193.277" style="fill:none;stroke:#262626;stroke-dasharray:3.000000,5.000000,1.000000,5.000000;stroke-dashoffset:0.0;"/>
     </g>
     <g id="line2d_26">
      <g>
       <use style="fill:#262626;stroke:#262626;" x="55.58671875" xlink:href="#m219da94a98" y="193.2771875"/>
      </g>
     </g>
     <g id="line2d_27">
      <g>
       <use style="fill:#262626;stroke:#262626;" x="501.98671875" xlink:href="#m219da94a98" y="193.2771875"/>
      </g>
     </g>
     <g id="text_10">
      <!-- 1.0 -->
      <g style="fill:#262626;" transform="translate(27.37578125 197.41625)scale(0.15 -0.15)">
       <use xlink:href="#BitstreamVeraSans-Roman-31"/>
       <use x="63.623046875" xlink:href="#BitstreamVeraSans-Roman-2e"/>
       <use x="95.41015625" xlink:href="#BitstreamVeraSans-Roman-30"/>
      </g>
     </g>
    </g>
    <g id="ytick_4">
     <g id="line2d_28">
      <path clip-path="url(#pf270f86476)" d="
M55.5867 109.577
L501.987 109.577" style="fill:none;stroke:#262626;stroke-dasharray:3.000000,5.000000,1.000000,5.000000;stroke-dashoffset:0.0;"/>
     </g>
     <g id="line2d_29">
      <g>
       <use style="fill:#262626;stroke:#262626;" x="55.58671875" xlink:href="#m219da94a98" y="109.5771875"/>
      </g>
     </g>
     <g id="line2d_30">
      <g>
       <use style="fill:#262626;stroke:#262626;" x="501.98671875" xlink:href="#m219da94a98" y="109.5771875"/>
      </g>
     </g>
     <g id="text_11">
      <!-- 1.5 -->
      <g style="fill:#262626;" transform="translate(27.68984375 113.71625)scale(0.15 -0.15)">
       <use xlink:href="#BitstreamVeraSans-Roman-31"/>
       <use x="63.623046875" xlink:href="#BitstreamVeraSans-Roman-2e"/>
       <use x="95.41015625" xlink:href="#BitstreamVeraSans-Roman-35"/>
      </g>
     </g>
    </g>
    <g id="ytick_5">
     <g id="line2d_31">
      <path clip-path="url(#pf270f86476)" d="
M55.5867 25.8772
L501.987 25.8772" style="fill:none;stroke:#262626;stroke-dasharray:3.000000,5.000000,1.000000,5.000000;stroke-dashoffset:0.0;"/>
     </g>
     <g id="line2d_32">
      <g>
       <use style="fill:#262626;stroke:#262626;" x="55.58671875" xlink:href="#m219da94a98" y="25.8771875"/>
      </g>
     </g>
     <g id="line2d_33">
      <g>
       <use style="fill:#262626;stroke:#262626;" x="501.98671875" xlink:href="#m219da94a98" y="25.8771875"/>
      </g>
     </g>
     <g id="text_12">
      <!-- 2.0 -->
      <g style="fill:#262626;" transform="translate(26.82734375 30.01625)scale(0.15 -0.15)">
       <use xlink:href="#BitstreamVeraSans-Roman-32"/>
       <use x="63.623046875" xlink:href="#BitstreamVeraSans-Roman-2e"/>
       <use x="95.41015625" xlink:href="#BitstreamVeraSans-Roman-30"/>
      </g>
     </g>
    </g>
    <g id="text_13">
     <!-- Density -->
     <defs>
      <path d="
M19.6719 64.7969
L19.6719 8.10938
L31.5938 8.10938
Q46.6875 8.10938 53.6875 14.9375
Q60.6875 21.7812 60.6875 36.5312
Q60.6875 51.1719 53.6875 57.9844
Q46.6875 64.7969 31.5938 64.7969
z

M9.8125 72.9062
L30.0781 72.9062
Q51.2656 72.9062 61.1719 64.0938
Q71.0938 55.2812 71.0938 36.5312
Q71.0938 17.6719 61.125 8.82812
Q51.1719 0 30.0781 0
L9.8125 0
z
" id="BitstreamVeraSans-Roman-44"/>
      <path d="
M32.1719 -5.07812
Q28.375 -14.8438 24.75 -17.8125
Q21.1406 -20.7969 15.0938 -20.7969
L7.90625 -20.7969
L7.90625 -13.2812
L13.1875 -13.2812
Q16.8906 -13.2812 18.9375 -11.5156
Q21 -9.76562 23.4844 -3.21875
L25.0938 0.875
L2.98438 54.6875
L12.5 54.6875
L29.5938 11.9219
L46.6875 54.6875
L56.2031 54.6875
z
" id="BitstreamVeraSans-Roman-79"/>
     </defs>
     <g style="fill:#262626;" transform="translate(18.59765625 220.8303125)rotate(-90.0)scale(0.15 -0.15)">
      <use xlink:href="#BitstreamVeraSans-Roman-44"/>
      <use x="77.001953125" xlink:href="#BitstreamVeraSans-Roman-65"/>
      <use x="138.525390625" xlink:href="#BitstreamVeraSans-Roman-6e"/>
      <use x="201.904296875" xlink:href="#BitstreamVeraSans-Roman-73"/>
      <use x="254.00390625" xlink:href="#BitstreamVeraSans-Roman-69"/>
      <use x="281.787109375" xlink:href="#BitstreamVeraSans-Roman-74"/>
      <use x="320.99609375" xlink:href="#BitstreamVeraSans-Roman-79"/>
     </g>
    </g>
   </g>
   <g id="PolyCollection_1">
    <defs>
     <path d="
M-12.0776 -50.407
L-12.0776 -48.2344
L-7.49705 -48.2344
L-2.91651 -48.2344
L1.66403 -48.2344
L6.24457 -48.2344
L10.8251 -48.2344
L15.4057 -48.2344
L19.9862 -48.2344
L24.5667 -48.2344
L29.1473 -48.2344
L33.7278 -48.2344
L38.3084 -48.2344
L42.8889 -48.2344
L47.4694 -48.2344
L52.05 -48.2344
L56.6305 -48.2344
L61.2111 -48.2344
L65.7916 -48.2344
L70.3721 -48.2344
L74.9527 -48.2344
L79.5332 -48.2344
L84.1138 -48.2344
L88.6943 -48.2344
L93.2748 -48.2344
L97.8554 -48.2344
L102.436 -48.2344
L107.016 -48.2344
L111.597 -48.2344
L116.178 -48.2344
L120.758 -48.2344
L125.339 -48.2344
L129.919 -48.2344
L134.5 -48.2344
L139.08 -48.2344
L143.661 -48.2344
L148.241 -48.2344
L152.822 -48.2344
L157.402 -48.2344
L161.983 -48.2344
L166.563 -48.2344
L171.144 -48.2344
L175.725 -48.2344
L180.305 -48.2344
L184.886 -48.2344
L189.466 -48.2344
L194.047 -48.2344
L198.627 -48.2344
L203.208 -48.2344
L207.788 -48.2344
L212.369 -48.2344
L216.949 -48.2344
L221.53 -48.2344
L226.111 -48.2344
L230.691 -48.2344
L235.272 -48.2344
L239.852 -48.2344
L244.433 -48.2344
L249.013 -48.2344
L253.594 -48.2344
L258.174 -48.2344
L262.755 -48.2344
L267.335 -48.2344
L271.916 -48.2344
L276.496 -48.2344
L281.077 -48.2344
L285.658 -48.2344
L290.238 -48.2344
L294.819 -48.2344
L299.399 -48.2344
L303.98 -48.2344
L308.56 -48.2344
L313.141 -48.2344
L317.721 -48.2344
L322.302 -48.2344
L326.882 -48.2344
L331.463 -48.2344
L336.043 -48.2344
L340.624 -48.2344
L345.205 -48.2344
L349.785 -48.2344
L354.366 -48.2344
L358.946 -48.2344
L363.527 -48.2344
L368.107 -48.2344
L372.688 -48.2344
L377.268 -48.2344
L381.849 -48.2344
L386.429 -48.2344
L391.01 -48.2344
L395.59 -48.2344
L400.171 -48.2344
L404.752 -48.2344
L409.332 -48.2344
L413.913 -48.2344
L418.493 -48.2344
L423.074 -48.2344
L427.654 -48.2344
L432.235 -48.2344
L436.815 -48.2344
L441.396 -48.2344
L445.976 -48.2344
L450.557 -48.2344
L455.138 -48.2344
L459.718 -48.2344
L464.299 -48.2344
L468.879 -48.2344
L473.46 -48.2344
L478.04 -48.2344
L482.621 -48.2344
L487.201 -48.2344
L491.782 -48.2344
L496.362 -48.2344
L500.943 -48.2344
L505.523 -48.2344
L510.104 -48.2344
L514.685 -48.2344
L519.265 -48.2344
L523.846 -48.2344
L528.426 -48.2344
L533.007 -48.2344
L537.587 -48.2344
L542.168 -48.2344
L546.748 -48.2344
L551.329 -48.2344
L555.909 -48.2344
L560.49 -48.2344
L565.07 -48.2344
L569.651 -48.2344
L569.651 -50.3223
L569.651 -50.3223
L565.07 -50.9551
L560.49 -52.3979
L555.909 -54.8467
L551.329 -58.5713
L546.748 -63.8673
L542.168 -70.9869
L537.587 -80.0544
L533.007 -90.9772
L528.426 -103.374
L523.846 -116.547
L519.265 -129.512
L514.685 -141.11
L510.104 -150.17
L505.523 -155.709
L500.943 -157.108
L496.362 -154.24
L491.782 -147.492
L487.201 -137.692
L482.621 -125.96
L478.04 -113.505
L473.46 -101.442
L468.879 -90.6486
L464.299 -81.6928
L459.718 -74.8289
L455.138 -70.0503
L450.557 -67.1709
L445.976 -65.9123
L441.396 -65.9769
L436.815 -67.0984
L432.235 -69.0667
L427.654 -71.7319
L423.074 -74.9938
L418.493 -78.7848
L413.913 -83.0526
L409.332 -87.7495
L404.752 -92.8272
L400.171 -98.2393
L395.59 -103.944
L391.01 -109.901
L386.429 -116.067
L381.849 -122.371
L377.268 -128.695
L372.688 -134.862
L368.107 -140.638
L363.527 -145.761
L358.946 -149.99
L354.366 -153.174
L349.785 -155.316
L345.205 -156.611
L340.624 -157.465
L336.043 -158.467
L331.463 -160.337
L326.882 -163.84
L322.302 -169.687
L317.721 -178.416
L313.141 -190.283
L308.56 -205.151
L303.98 -222.43
L299.399 -241.072
L294.819 -259.654
L290.238 -276.553
L285.658 -290.192
L281.077 -299.309
L276.496 -303.191
L271.916 -301.809
L267.335 -295.825
L262.755 -286.467
L258.174 -275.301
L253.594 -263.971
L249.013 -253.954
L244.433 -246.372
L239.852 -241.899
L235.272 -240.738
L230.691 -242.671
L226.111 -247.14
L221.53 -253.354
L216.949 -260.411
L212.369 -267.409
L207.788 -273.562
L203.208 -278.285
L198.627 -281.254
L194.047 -282.419
L189.466 -281.979
L184.886 -280.318
L180.305 -277.919
L175.725 -275.272
L171.144 -272.803
L166.563 -270.823
L161.983 -269.502
L157.402 -268.871
L152.822 -268.842
L148.241 -269.23
L143.661 -269.784
L139.08 -270.212
L134.5 -270.217
L129.919 -269.527
L125.339 -267.932
L120.758 -265.324
L116.178 -261.727
L111.597 -257.315
L107.016 -252.409
L102.436 -247.435
L97.8554 -242.863
L93.2748 -239.113
L88.6943 -236.45
L84.1138 -234.888
L79.5332 -234.131
L74.9527 -233.566
L70.3721 -232.336
L65.7916 -229.476
L61.2111 -224.097
L56.6305 -215.58
L52.05 -203.715
L47.4694 -188.77
L42.8889 -171.459
L38.3084 -152.807
L33.7278 -133.977
L29.1473 -116.068
L24.5667 -99.9629
L19.9862 -86.2284
L15.4057 -75.0992
L10.8251 -66.5188
L6.24457 -60.2229
L1.66403 -55.8355
L-2.91651 -52.9576
L-7.49705 -51.2358
L-12.0776 -50.407
z
" id="C0_0_97c26d79fe"/>
    </defs>
    <g clip-path="url(#pf270f86476)">
     <use style="fill:#4c4c4c;fill-opacity:0.25;stroke:#4c4c4c;stroke-opacity:0.25;stroke-width:0.3;" x="0.0" xlink:href="#C0_0_97c26d79fe" y="408.9115625"/>
    </g>
   </g>
   <g id="PolyCollection_2">
    <defs>
     <path d="
M0.495325 -51.4113
L0.495325 -48.2344
L4.64354 -48.2344
L8.79175 -48.2344
L12.94 -48.2344
L17.0882 -48.2344
L21.2364 -48.2344
L25.3846 -48.2344
L29.5328 -48.2344
L33.681 -48.2344
L37.8292 -48.2344
L41.9774 -48.2344
L46.1256 -48.2344
L50.2739 -48.2344
L54.4221 -48.2344
L58.5703 -48.2344
L62.7185 -48.2344
L66.8667 -48.2344
L71.0149 -48.2344
L75.1631 -48.2344
L79.3113 -48.2344
L83.4595 -48.2344
L87.6078 -48.2344
L91.756 -48.2344
L95.9042 -48.2344
L100.052 -48.2344
L104.201 -48.2344
L108.349 -48.2344
L112.497 -48.2344
L116.645 -48.2344
L120.793 -48.2344
L124.942 -48.2344
L129.09 -48.2344
L133.238 -48.2344
L137.386 -48.2344
L141.534 -48.2344
L145.683 -48.2344
L149.831 -48.2344
L153.979 -48.2344
L158.127 -48.2344
L162.276 -48.2344
L166.424 -48.2344
L170.572 -48.2344
L174.72 -48.2344
L178.868 -48.2344
L183.017 -48.2344
L187.165 -48.2344
L191.313 -48.2344
L195.461 -48.2344
L199.609 -48.2344
L203.758 -48.2344
L207.906 -48.2344
L212.054 -48.2344
L216.202 -48.2344
L220.351 -48.2344
L224.499 -48.2344
L228.647 -48.2344
L232.795 -48.2344
L236.943 -48.2344
L241.092 -48.2344
L245.24 -48.2344
L249.388 -48.2344
L253.536 -48.2344
L257.684 -48.2344
L261.833 -48.2344
L265.981 -48.2344
L270.129 -48.2344
L274.277 -48.2344
L278.425 -48.2344
L282.574 -48.2344
L286.722 -48.2344
L290.87 -48.2344
L295.018 -48.2344
L299.167 -48.2344
L303.315 -48.2344
L307.463 -48.2344
L311.611 -48.2344
L315.759 -48.2344
L319.908 -48.2344
L324.056 -48.2344
L328.204 -48.2344
L332.352 -48.2344
L336.5 -48.2344
L340.649 -48.2344
L344.797 -48.2344
L348.945 -48.2344
L353.093 -48.2344
L357.241 -48.2344
L361.39 -48.2344
L365.538 -48.2344
L369.686 -48.2344
L373.834 -48.2344
L377.983 -48.2344
L382.131 -48.2344
L386.279 -48.2344
L390.427 -48.2344
L394.575 -48.2344
L398.724 -48.2344
L402.872 -48.2344
L407.02 -48.2344
L411.168 -48.2344
L415.316 -48.2344
L419.465 -48.2344
L423.613 -48.2344
L427.761 -48.2344
L431.909 -48.2344
L436.057 -48.2344
L440.206 -48.2344
L444.354 -48.2344
L448.502 -48.2344
L452.65 -48.2344
L456.799 -48.2344
L460.947 -48.2344
L465.095 -48.2344
L469.243 -48.2344
L473.391 -48.2344
L477.54 -48.2344
L481.688 -48.2344
L485.836 -48.2344
L489.984 -48.2344
L494.132 -48.2344
L498.281 -48.2344
L502.429 -48.2344
L506.577 -48.2344
L510.725 -48.2344
L514.873 -48.2344
L519.022 -48.2344
L523.17 -48.2344
L527.318 -48.2344
L527.318 -49.8265
L527.318 -49.8265
L523.17 -48.999
L519.022 -48.594
L514.873 -48.4132
L510.725 -48.3477
L506.577 -48.3425
L502.429 -48.3726
L498.281 -48.4282
L494.132 -48.507
L489.984 -48.6104
L485.836 -48.7424
L481.688 -48.9096
L477.54 -49.1216
L473.391 -49.3917
L469.243 -49.7357
L465.095 -50.1707
L460.947 -50.7113
L456.799 -51.3661
L452.65 -52.133
L448.502 -52.9968
L444.354 -53.9286
L440.206 -54.8884
L436.057 -55.8326
L431.909 -56.7227
L427.761 -57.5354
L423.613 -58.2713
L419.465 -58.9582
L415.316 -59.6497
L411.168 -60.4196
L407.02 -61.3544
L402.872 -62.5474
L398.724 -64.0956
L394.575 -66.0981
L390.427 -68.6514
L386.279 -71.8373
L382.131 -75.6993
L377.983 -80.2127
L373.834 -85.2565
L369.686 -90.6035
L365.538 -95.9382
L361.39 -100.91
L357.241 -105.206
L353.093 -108.632
L348.945 -111.165
L344.797 -112.966
L340.649 -114.36
L336.5 -115.786
L332.352 -117.754
L328.204 -120.837
L324.056 -125.676
L319.908 -133.001
L315.759 -143.601
L311.611 -158.207
L307.463 -177.282
L303.315 -200.743
L299.167 -227.7
L295.018 -256.343
L290.87 -284.07
L286.722 -307.883
L282.574 -324.992
L278.425 -333.449
L274.277 -332.625
L270.129 -323.365
L265.981 -307.764
L261.833 -288.665
L257.684 -269.038
L253.536 -251.442
L249.388 -237.71
L245.24 -228.872
L241.092 -225.28
L236.943 -226.791
L232.795 -232.929
L228.647 -242.952
L224.499 -255.86
L220.351 -270.388
L216.202 -285.065
L212.054 -298.369
L207.906 -308.971
L203.758 -315.988
L199.609 -319.164
L195.461 -318.902
L191.313 -316.127
L187.165 -312.024
L183.017 -307.748
L178.868 -304.177
L174.72 -301.797
L170.572 -300.722
L166.424 -300.81
L162.276 -301.827
L158.127 -303.576
L153.979 -305.961
L149.831 -308.962
L145.683 -312.547
L141.534 -316.57
L137.386 -320.694
L133.238 -324.377
L129.09 -326.946
L124.942 -327.73
L120.793 -326.218
L116.645 -322.198
L112.497 -315.85
L108.349 -307.771
L104.201 -298.938
L100.052 -290.631
L95.9042 -284.302
L91.756 -281.39
L87.6078 -283.081
L83.4595 -290.002
L79.3113 -301.921
L75.1631 -317.524
L71.0149 -334.402
L66.8667 -349.304
L62.7185 -358.696
L58.5703 -359.482
L54.4221 -349.728
L50.2739 -329.146
L46.1256 -299.181
L41.9774 -262.687
L37.8292 -223.269
L33.681 -184.524
L29.5328 -149.393
L25.3846 -119.765
L21.2364 -96.3999
L17.0882 -79.1096
L12.94 -67.0713
L8.79175 -59.1706
L4.64354 -54.2762
L0.495325 -51.4113
z
" id="C1_0_e990edfe96"/>
    </defs>
    <g clip-path="url(#pf270f86476)">
     <use style="fill:#808080;fill-opacity:0.25;stroke:#808080;stroke-opacity:0.25;stroke-width:0.3;" x="0.0" xlink:href="#C1_0_e990edfe96" y="408.9115625"/>
    </g>
   </g>
   <g id="line2d_34">
    <path clip-path="url(#pf270f86476)" d="
M52.05 205.197
L56.6305 193.332
L61.2111 184.814
L65.7916 179.436
L70.3721 176.576
L74.9527 175.345
L79.5332 174.78
L84.1138 174.023
L88.6943 172.462
L93.2748 169.798
L97.8554 166.048
L102.436 161.477
L107.016 156.503
L111.597 151.596
L116.178 147.185
L120.758 143.588
L125.339 140.979
L129.919 139.384
L134.5 138.694
L139.08 138.699
L143.661 139.128
L148.241 139.681
L152.822 140.069
L157.402 140.04
L161.983 139.41
L166.563 138.088
L171.144 136.108
L175.725 133.64
L180.305 130.993
L184.886 128.593
L189.466 126.933
L194.047 126.493
L198.627 127.658
L203.208 130.626
L207.788 135.349
L212.369 141.502
L216.949 148.501
L221.53 155.557
L226.111 161.772
L230.691 166.24
L235.272 168.173
L239.852 167.013
L244.433 162.539
L249.013 154.957
L253.594 144.94
L258.174 133.611
L262.755 122.445
L267.335 113.086
L271.916 107.102
L276.496 105.72
L281.077 109.602
L285.658 118.72
L290.238 132.359
L294.819 149.258
L299.399 167.839
L303.98 186.481
L308.56 203.76
L313.141 218.629
L317.721 230.495
L322.302 239.225
L326.882 245.071
L331.463 248.575
L336.043 250.445
L340.624 251.447
L345.205 252.3
L349.785 253.596
L354.366 255.737
L358.946 258.922
L363.527 263.151
L368.107 268.273
L372.688 274.05
L377.268 280.217
L381.849 286.541
L386.429 292.844
L391.01 299.01
L395.59 304.968
L400.171 310.672
L404.752 316.084
L409.332 321.162
L413.913 325.859
L418.493 330.127
L423.074 333.918
L427.654 337.18
L432.235 339.845
L436.815 341.813
L441.396 342.935
L445.976 342.999
L450.557 341.741
L455.138 338.861
L459.718 334.083
L464.299 327.219
L468.879 318.263
L473.46 307.47
L478.04 295.407
L482.621 282.952
L487.201 271.219
L491.782 261.42
L496.362 254.672
L500.943 251.804
L505.523 253.203" style="fill:none;stroke:#4c4c4c;stroke-linecap:round;stroke-width:3;"/>
   </g>
   <g id="line2d_35">
    <path clip-path="url(#pf270f86476)" d="
M228.138 360.677
L228.138 25.8772" style="fill:none;stroke:#4c4c4c;stroke-dasharray:6.000000,6.000000;stroke-dashoffset:0.0;stroke-width:3;"/>
   </g>
   <g id="line2d_36">
    <path clip-path="url(#pf270f86476)" d="
M54.4221 59.1831
L58.5703 49.4295
L62.7185 50.2156
L66.8667 59.6071
L71.0149 74.5097
L75.1631 91.3871
L79.3113 106.991
L83.4595 118.91
L87.6078 125.831
L91.756 127.521
L95.9042 124.61
L100.052 118.28
L104.201 109.974
L108.349 101.141
L112.497 93.0614
L116.645 86.7137
L120.793 82.6939
L124.942 81.1816
L129.09 81.9658
L133.238 84.5349
L137.386 88.2176
L141.534 92.3412
L145.683 96.3649
L149.831 99.9499
L153.979 102.95
L158.127 105.335
L162.276 107.084
L166.424 108.101
L170.572 108.19
L174.72 107.114
L178.868 104.734
L183.017 101.163
L187.165 96.8873
L191.313 92.7849
L195.461 90.0092
L199.609 89.7471
L203.758 92.9234
L207.906 99.9404
L212.054 110.542
L216.202 123.847
L220.351 138.524
L224.499 153.052
L228.647 165.96
L232.795 175.983
L236.943 182.12
L241.092 183.632
L245.24 180.04
L249.388 171.202
L253.536 157.469
L257.684 139.874
L261.833 120.247
L265.981 101.148
L270.129 85.5467
L274.277 76.2861
L278.425 75.4626
L282.574 83.9194
L286.722 101.028
L290.87 124.842
L295.018 152.569
L299.167 181.212
L303.315 208.168
L307.463 231.629
L311.611 250.705
L315.759 265.311
L319.908 275.91
L324.056 283.236
L328.204 288.075
L332.352 291.158
L336.5 293.126
L340.649 294.551
L344.797 295.945
L348.945 297.747
L353.093 300.279
L357.241 303.706
L361.39 308.002
L365.538 312.973
L369.686 318.308
L373.834 323.655
L377.983 328.699
L382.131 333.212
L386.279 337.074
L390.427 340.26
L394.575 342.813
L398.724 344.816
L402.872 346.364
L407.02 347.557
L411.168 348.492
L415.316 349.262
L419.465 349.953
L423.613 350.64
L427.761 351.376
L431.909 352.189
L436.057 353.079
L440.206 354.023
L444.354 354.983
L448.502 355.915
L452.65 356.779
L456.799 357.545
L460.947 358.2
L465.095 358.741
L469.243 359.176
L473.391 359.52
L477.54 359.79
L481.688 360.002
L485.836 360.169
L489.984 360.301
L494.132 360.405
L498.281 360.483
L502.429 360.539" style="fill:none;stroke:#808080;stroke-linecap:round;stroke-width:3;"/>
   </g>
   <g id="line2d_37">
    <path clip-path="url(#pf270f86476)" d="
M177.396 360.677
L177.396 25.8772" style="fill:none;stroke:#808080;stroke-dasharray:6.000000,6.000000;stroke-dashoffset:0.0;stroke-width:3;"/>
   </g>
   <g id="patch_3">
    <path d="
M55.5867 25.8772
L501.987 25.8772" style="fill:none;"/>
   </g>
   <g id="patch_4">
    <path d="
M501.987 360.677
L501.987 25.8772" style="fill:none;"/>
   </g>
   <g id="patch_5">
    <path d="
M55.5867 360.677
L501.987 360.677" style="fill:none;"/>
   </g>
   <g id="patch_6">
    <path d="
M55.5867 360.677
L55.5867 25.8772" style="fill:none;"/>
   </g>
   <g id="text_14">
    <!-- Prop. of Central Effects with p &lt; 0.05 -->
    <defs>
     <path d="
M4.20312 54.6875
L13.1875 54.6875
L24.4219 12.0156
L35.5938 54.6875
L46.1875 54.6875
L57.4219 12.0156
L68.6094 54.6875
L77.5938 54.6875
L63.2812 0
L52.6875 0
L40.9219 44.8281
L29.1094 0
L18.5 0
z
" id="BitstreamVeraSans-Roman-77"/>
     <path d="
M64.4062 67.2812
L64.4062 56.8906
Q59.4219 61.5312 53.7812 63.8125
Q48.1406 66.1094 41.7969 66.1094
Q29.2969 66.1094 22.6562 58.4688
Q16.0156 50.8281 16.0156 36.375
Q16.0156 21.9688 22.6562 14.3281
Q29.2969 6.6875 41.7969 6.6875
Q48.1406 6.6875 53.7812 8.98438
Q59.4219 11.2812 64.4062 15.9219
L64.4062 5.60938
Q59.2344 2.09375 53.4375 0.328125
Q47.6562 -1.42188 41.2188 -1.42188
Q24.6562 -1.42188 15.125 8.70312
Q5.60938 18.8438 5.60938 36.375
Q5.60938 53.9531 15.125 64.0781
Q24.6562 74.2188 41.2188 74.2188
Q47.75 74.2188 53.5312 72.4844
Q59.3281 70.75 64.4062 67.2812" id="BitstreamVeraSans-Roman-43"/>
     <path d="
M54.8906 33.0156
L54.8906 0
L45.9062 0
L45.9062 32.7188
Q45.9062 40.4844 42.875 44.3281
Q39.8438 48.1875 33.7969 48.1875
Q26.5156 48.1875 22.3125 43.5469
Q18.1094 38.9219 18.1094 30.9062
L18.1094 0
L9.07812 0
L9.07812 75.9844
L18.1094 75.9844
L18.1094 46.1875
Q21.3438 51.125 25.7031 53.5625
Q30.0781 56 35.7969 56
Q45.2188 56 50.0469 50.1719
Q54.8906 44.3438 54.8906 33.0156" id="BitstreamVeraSans-Roman-68"/>
     <path d="
M9.42188 75.9844
L18.4062 75.9844
L18.4062 0
L9.42188 0
z
" id="BitstreamVeraSans-Roman-6c"/>
     <path d="
M73.1875 49.2188
L22.7969 31.2969
L73.1875 13.4844
L73.1875 4.59375
L10.5938 27.2969
L10.5938 35.4062
L73.1875 58.1094
z
" id="BitstreamVeraSans-Roman-3c"/>
    </defs>
    <g style="fill:#262626;" transform="translate(112.1446875 20.8771875)scale(0.18 -0.18)">
     <use xlink:href="#BitstreamVeraSans-Roman-50"/>
     <use x="58.552734375" xlink:href="#BitstreamVeraSans-Roman-72"/>
     <use x="97.416015625" xlink:href="#BitstreamVeraSans-Roman-6f"/>
     <use x="158.59765625" xlink:href="#BitstreamVeraSans-Roman-70"/>
     <use x="222.07421875" xlink:href="#BitstreamVeraSans-Roman-2e"/>
     <use x="253.861328125" xlink:href="#BitstreamVeraSans-Roman-20"/>
     <use x="285.6484375" xlink:href="#BitstreamVeraSans-Roman-6f"/>
     <use x="346.830078125" xlink:href="#BitstreamVeraSans-Roman-66"/>
     <use x="382.03515625" xlink:href="#BitstreamVeraSans-Roman-20"/>
     <use x="413.822265625" xlink:href="#BitstreamVeraSans-Roman-43"/>
     <use x="483.646484375" xlink:href="#BitstreamVeraSans-Roman-65"/>
     <use x="545.169921875" xlink:href="#BitstreamVeraSans-Roman-6e"/>
     <use x="608.548828125" xlink:href="#BitstreamVeraSans-Roman-74"/>
     <use x="647.7578125" xlink:href="#BitstreamVeraSans-Roman-72"/>
     <use x="688.87109375" xlink:href="#BitstreamVeraSans-Roman-61"/>
     <use x="750.150390625" xlink:href="#BitstreamVeraSans-Roman-6c"/>
     <use x="777.93359375" xlink:href="#BitstreamVeraSans-Roman-20"/>
     <use x="809.720703125" xlink:href="#BitstreamVeraSans-Roman-45"/>
     <use x="872.904296875" xlink:href="#BitstreamVeraSans-Roman-66"/>
     <use x="908.109375" xlink:href="#BitstreamVeraSans-Roman-66"/>
     <use x="943.314453125" xlink:href="#BitstreamVeraSans-Roman-65"/>
     <use x="1004.83789062" xlink:href="#BitstreamVeraSans-Roman-63"/>
     <use x="1059.81835938" xlink:href="#BitstreamVeraSans-Roman-74"/>
     <use x="1099.02734375" xlink:href="#BitstreamVeraSans-Roman-73"/>
     <use x="1151.12695312" xlink:href="#BitstreamVeraSans-Roman-20"/>
     <use x="1182.9140625" xlink:href="#BitstreamVeraSans-Roman-77"/>
     <use x="1264.70117188" xlink:href="#BitstreamVeraSans-Roman-69"/>
     <use x="1292.484375" xlink:href="#BitstreamVeraSans-Roman-74"/>
     <use x="1331.69335938" xlink:href="#BitstreamVeraSans-Roman-68"/>
     <use x="1395.07226562" xlink:href="#BitstreamVeraSans-Roman-20"/>
     <use x="1426.859375" xlink:href="#BitstreamVeraSans-Roman-70"/>
     <use x="1490.3359375" xlink:href="#BitstreamVeraSans-Roman-20"/>
     <use x="1522.12304688" xlink:href="#BitstreamVeraSans-Roman-3c"/>
     <use x="1605.91210938" xlink:href="#BitstreamVeraSans-Roman-20"/>
     <use x="1637.69921875" xlink:href="#BitstreamVeraSans-Roman-30"/>
     <use x="1701.32226562" xlink:href="#BitstreamVeraSans-Roman-2e"/>
     <use x="1733.109375" xlink:href="#BitstreamVeraSans-Roman-30"/>
     <use x="1796.73242188" xlink:href="#BitstreamVeraSans-Roman-35"/>
    </g>
   </g>
   <g id="legend_1">
    <g id="line2d_38">
     <path d="
M326.728 45.5248
L356.728 45.5248" style="fill:none;stroke:#4c4c4c;stroke-linecap:round;stroke-width:3;"/>
    </g>
    <g id="line2d_39"/>
    <g id="text_15">
     <!-- Original -->
     <defs>
      <path d="
M39.4062 66.2188
Q28.6562 66.2188 22.3281 58.2031
Q16.0156 50.2031 16.0156 36.375
Q16.0156 22.6094 22.3281 14.5938
Q28.6562 6.59375 39.4062 6.59375
Q50.1406 6.59375 56.4219 14.5938
Q62.7031 22.6094 62.7031 36.375
Q62.7031 50.2031 56.4219 58.2031
Q50.1406 66.2188 39.4062 66.2188
M39.4062 74.2188
Q54.7344 74.2188 63.9062 63.9375
Q73.0938 53.6562 73.0938 36.375
Q73.0938 19.1406 63.9062 8.85938
Q54.7344 -1.42188 39.4062 -1.42188
Q24.0312 -1.42188 14.8125 8.82812
Q5.60938 19.0938 5.60938 36.375
Q5.60938 53.6562 14.8125 63.9375
Q24.0312 74.2188 39.4062 74.2188" id="BitstreamVeraSans-Roman-4f"/>
     </defs>
     <g style="fill:#262626;" transform="translate(368.728125 50.77484375)scale(0.15 -0.15)">
      <use xlink:href="#BitstreamVeraSans-Roman-4f"/>
      <use x="78.7109375" xlink:href="#BitstreamVeraSans-Roman-72"/>
      <use x="119.82421875" xlink:href="#BitstreamVeraSans-Roman-69"/>
      <use x="147.607421875" xlink:href="#BitstreamVeraSans-Roman-67"/>
      <use x="211.083984375" xlink:href="#BitstreamVeraSans-Roman-69"/>
      <use x="238.8671875" xlink:href="#BitstreamVeraSans-Roman-6e"/>
      <use x="302.24609375" xlink:href="#BitstreamVeraSans-Roman-61"/>
      <use x="363.525390625" xlink:href="#BitstreamVeraSans-Roman-6c"/>
     </g>
    </g>
    <g id="line2d_40">
     <path d="
M326.728 67.542
L356.728 67.542" style="fill:none;stroke:#4c4c4c;stroke-dasharray:6.000000,6.000000;stroke-dashoffset:0.0;stroke-width:3;"/>
    </g>
    <g id="line2d_41"/>
    <g id="text_16">
     <!-- Original mean -->
     <defs>
      <path d="
M52 44.1875
Q55.375 50.25 60.0625 53.125
Q64.75 56 71.0938 56
Q79.6406 56 84.2812 50.0156
Q88.9219 44.0469 88.9219 33.0156
L88.9219 0
L79.8906 0
L79.8906 32.7188
Q79.8906 40.5781 77.0938 44.375
Q74.3125 48.1875 68.6094 48.1875
Q61.625 48.1875 57.5625 43.5469
Q53.5156 38.9219 53.5156 30.9062
L53.5156 0
L44.4844 0
L44.4844 32.7188
Q44.4844 40.625 41.7031 44.4062
Q38.9219 48.1875 33.1094 48.1875
Q26.2188 48.1875 22.1562 43.5312
Q18.1094 38.875 18.1094 30.9062
L18.1094 0
L9.07812 0
L9.07812 54.6875
L18.1094 54.6875
L18.1094 46.1875
Q21.1875 51.2188 25.4844 53.6094
Q29.7812 56 35.6875 56
Q41.6562 56 45.8281 52.9688
Q50 49.9531 52 44.1875" id="BitstreamVeraSans-Roman-6d"/>
     </defs>
     <g style="fill:#262626;" transform="translate(368.728125 72.79203125)scale(0.15 -0.15)">
      <use xlink:href="#BitstreamVeraSans-Roman-4f"/>
      <use x="78.7109375" xlink:href="#BitstreamVeraSans-Roman-72"/>
      <use x="119.82421875" xlink:href="#BitstreamVeraSans-Roman-69"/>
      <use x="147.607421875" xlink:href="#BitstreamVeraSans-Roman-67"/>
      <use x="211.083984375" xlink:href="#BitstreamVeraSans-Roman-69"/>
      <use x="238.8671875" xlink:href="#BitstreamVeraSans-Roman-6e"/>
      <use x="302.24609375" xlink:href="#BitstreamVeraSans-Roman-61"/>
      <use x="363.525390625" xlink:href="#BitstreamVeraSans-Roman-6c"/>
      <use x="391.30859375" xlink:href="#BitstreamVeraSans-Roman-20"/>
      <use x="423.095703125" xlink:href="#BitstreamVeraSans-Roman-6d"/>
      <use x="520.5078125" xlink:href="#BitstreamVeraSans-Roman-65"/>
      <use x="582.03125" xlink:href="#BitstreamVeraSans-Roman-61"/>
      <use x="643.310546875" xlink:href="#BitstreamVeraSans-Roman-6e"/>
     </g>
    </g>
    <g id="line2d_42">
     <path d="
M326.728 89.5592
L356.728 89.5592" style="fill:none;stroke:#808080;stroke-linecap:round;stroke-width:3;"/>
    </g>
    <g id="line2d_43"/>
    <g id="text_17">
     <!-- Perturbed -->
     <defs>
      <path d="
M45.4062 46.3906
L45.4062 75.9844
L54.3906 75.9844
L54.3906 0
L45.4062 0
L45.4062 8.20312
Q42.5781 3.32812 38.25 0.953125
Q33.9375 -1.42188 27.875 -1.42188
Q17.9688 -1.42188 11.7344 6.48438
Q5.51562 14.4062 5.51562 27.2969
Q5.51562 40.1875 11.7344 48.0938
Q17.9688 56 27.875 56
Q33.9375 56 38.25 53.625
Q42.5781 51.2656 45.4062 46.3906
M14.7969 27.2969
Q14.7969 17.3906 18.875 11.75
Q22.9531 6.10938 30.0781 6.10938
Q37.2031 6.10938 41.2969 11.75
Q45.4062 17.3906 45.4062 27.2969
Q45.4062 37.2031 41.2969 42.8438
Q37.2031 48.4844 30.0781 48.4844
Q22.9531 48.4844 18.875 42.8438
Q14.7969 37.2031 14.7969 27.2969" id="BitstreamVeraSans-Roman-64"/>
      <path d="
M8.5 21.5781
L8.5 54.6875
L17.4844 54.6875
L17.4844 21.9219
Q17.4844 14.1562 20.5 10.2656
Q23.5312 6.39062 29.5938 6.39062
Q36.8594 6.39062 41.0781 11.0312
Q45.3125 15.6719 45.3125 23.6875
L45.3125 54.6875
L54.2969 54.6875
L54.2969 0
L45.3125 0
L45.3125 8.40625
Q42.0469 3.42188 37.7188 1
Q33.4062 -1.42188 27.6875 -1.42188
Q18.2656 -1.42188 13.375 4.4375
Q8.5 10.2969 8.5 21.5781" id="BitstreamVeraSans-Roman-75"/>
      <path d="
M48.6875 27.2969
Q48.6875 37.2031 44.6094 42.8438
Q40.5312 48.4844 33.4062 48.4844
Q26.2656 48.4844 22.1875 42.8438
Q18.1094 37.2031 18.1094 27.2969
Q18.1094 17.3906 22.1875 11.75
Q26.2656 6.10938 33.4062 6.10938
Q40.5312 6.10938 44.6094 11.75
Q48.6875 17.3906 48.6875 27.2969
M18.1094 46.3906
Q20.9531 51.2656 25.2656 53.625
Q29.5938 56 35.5938 56
Q45.5625 56 51.7812 48.0938
Q58.0156 40.1875 58.0156 27.2969
Q58.0156 14.4062 51.7812 6.48438
Q45.5625 -1.42188 35.5938 -1.42188
Q29.5938 -1.42188 25.2656 0.953125
Q20.9531 3.32812 18.1094 8.20312
L18.1094 0
L9.07812 0
L9.07812 75.9844
L18.1094 75.9844
z
" id="BitstreamVeraSans-Roman-62"/>
     </defs>
     <g style="fill:#262626;" transform="translate(368.728125 94.80921875)scale(0.15 -0.15)">
      <use xlink:href="#BitstreamVeraSans-Roman-50"/>
      <use x="56.677734375" xlink:href="#BitstreamVeraSans-Roman-65"/>
      <use x="118.201171875" xlink:href="#BitstreamVeraSans-Roman-72"/>
      <use x="159.314453125" xlink:href="#BitstreamVeraSans-Roman-74"/>
      <use x="198.5234375" xlink:href="#BitstreamVeraSans-Roman-75"/>
      <use x="261.90234375" xlink:href="#BitstreamVeraSans-Roman-72"/>
      <use x="303.015625" xlink:href="#BitstreamVeraSans-Roman-62"/>
      <use x="366.4921875" xlink:href="#BitstreamVeraSans-Roman-65"/>
      <use x="428.015625" xlink:href="#BitstreamVeraSans-Roman-64"/>
     </g>
    </g>
    <g id="line2d_44">
     <path d="
M326.728 111.576
L356.728 111.576" style="fill:none;stroke:#808080;stroke-dasharray:6.000000,6.000000;stroke-dashoffset:0.0;stroke-width:3;"/>
    </g>
    <g id="line2d_45"/>
    <g id="text_18">
     <!-- Perturbed mean -->
     <g style="fill:#262626;" transform="translate(368.728125 116.82640625)scale(0.15 -0.15)">
      <use xlink:href="#BitstreamVeraSans-Roman-50"/>
      <use x="56.677734375" xlink:href="#BitstreamVeraSans-Roman-65"/>
      <use x="118.201171875" xlink:href="#BitstreamVeraSans-Roman-72"/>
      <use x="159.314453125" xlink:href="#BitstreamVeraSans-Roman-74"/>
      <use x="198.5234375" xlink:href="#BitstreamVeraSans-Roman-75"/>
      <use x="261.90234375" xlink:href="#BitstreamVeraSans-Roman-72"/>
      <use x="303.015625" xlink:href="#BitstreamVeraSans-Roman-62"/>
      <use x="366.4921875" xlink:href="#BitstreamVeraSans-Roman-65"/>
      <use x="428.015625" xlink:href="#BitstreamVeraSans-Roman-64"/>
      <use x="491.4921875" xlink:href="#BitstreamVeraSans-Roman-20"/>
      <use x="523.279296875" xlink:href="#BitstreamVeraSans-Roman-6d"/>
      <use x="620.69140625" xlink:href="#BitstreamVeraSans-Roman-65"/>
      <use x="682.21484375" xlink:href="#BitstreamVeraSans-Roman-61"/>
      <use x="743.494140625" xlink:href="#BitstreamVeraSans-Roman-6e"/>
     </g>
    </g>
   </g>
  </g>
 </g>
 <defs>
  <clipPath id="pf270f86476">
   <rect height="334.8" width="446.4" x="55.58671875" y="25.8771875"/>
  </clipPath>
 </defs>
</svg>
