<?xml version="1.0" encoding="utf-8" standalone="no"?>
<!DOCTYPE svg PUBLIC "-//W3C//DTD SVG 1.1//EN"
  "http://www.w3.org/Graphics/SVG/1.1/DTD/svg11.dtd">
<!-- Created with matplotlib (http://matplotlib.org/) -->
<svg height="565.2425pt" version="1.1" viewBox="0 0 2193.493425 565.2425" width="2193.493425pt" xmlns="http://www.w3.org/2000/svg" xmlns:xlink="http://www.w3.org/1999/xlink">
 <defs>
  <style type="text/css">
*{stroke-linecap:butt;stroke-linejoin:round;}
  </style>
 </defs>
 <g id="figure_1">
  <g id="patch_1">
   <path d="M 0 565.2425 
L 2193.493425 565.2425 
L 2193.493425 0 
L 0 0 
z
" style="fill:#ffffff;"/>
  </g>
  <g id="axes_1">
   <g id="patch_2">
    <path d="M 242.483438 172.290993 
L 577.283437 172.290993 
L 577.283437 28.396875 
L 242.483438 28.396875 
z
" style="fill:#ffffff;"/>
   </g>
   <g id="matplotlib.axis_1">
    <g id="xtick_1">
     <g id="line2d_1">
      <path clip-path="url(#pbb0472d6b6)" d="M 262.657242 172.290993 
L 262.657242 28.396875 
" style="fill:none;stroke:#262626;stroke-dasharray:5.12,1.28,0.8,1.28;stroke-dashoffset:0;stroke-width:0.8;"/>
     </g>
     <g id="line2d_2"/>
    </g>
    <g id="xtick_2">
     <g id="line2d_3">
      <path clip-path="url(#pbb0472d6b6)" d="M 327.610723 172.290993 
L 327.610723 28.396875 
" style="fill:none;stroke:#262626;stroke-dasharray:5.12,1.28,0.8,1.28;stroke-dashoffset:0;stroke-width:0.8;"/>
     </g>
     <g id="line2d_4"/>
    </g>
    <g id="xtick_3">
     <g id="line2d_5">
      <path clip-path="url(#pbb0472d6b6)" d="M 392.564205 172.290993 
L 392.564205 28.396875 
" style="fill:none;stroke:#262626;stroke-dasharray:5.12,1.28,0.8,1.28;stroke-dashoffset:0;stroke-width:0.8;"/>
     </g>
     <g id="line2d_6"/>
    </g>
    <g id="xtick_4">
     <g id="line2d_7">
      <path clip-path="url(#pbb0472d6b6)" d="M 457.517686 172.290993 
L 457.517686 28.396875 
" style="fill:none;stroke:#262626;stroke-dasharray:5.12,1.28,0.8,1.28;stroke-dashoffset:0;stroke-width:0.8;"/>
     </g>
     <g id="line2d_8"/>
    </g>
    <g id="xtick_5">
     <g id="line2d_9">
      <path clip-path="url(#pbb0472d6b6)" d="M 522.471168 172.290993 
L 522.471168 28.396875 
" style="fill:none;stroke:#262626;stroke-dasharray:5.12,1.28,0.8,1.28;stroke-dashoffset:0;stroke-width:0.8;"/>
     </g>
     <g id="line2d_10"/>
    </g>
   </g>
   <g id="matplotlib.axis_2">
    <g id="ytick_1">
     <g id="line2d_11">
      <path clip-path="url(#pbb0472d6b6)" d="M 242.483438 133.047142 
L 577.283437 133.047142 
" style="fill:none;stroke:#262626;stroke-dasharray:5.12,1.28,0.8,1.28;stroke-dashoffset:0;stroke-width:0.8;"/>
     </g>
     <g id="line2d_12"/>
     <g id="text_1">
      <!-- Adj. R-squared -->
      <defs>
       <path d="M 34.1875 63.1875 
L 20.796875 26.90625 
L 47.609375 26.90625 
z
M 28.609375 72.90625 
L 39.796875 72.90625 
L 67.578125 0 
L 57.328125 0 
L 50.6875 18.703125 
L 17.828125 18.703125 
L 11.1875 0 
L 0.78125 0 
z
" id="DejaVuSans-41"/>
       <path d="M 45.40625 46.390625 
L 45.40625 75.984375 
L 54.390625 75.984375 
L 54.390625 0 
L 45.40625 0 
L 45.40625 8.203125 
Q 42.578125 3.328125 38.25 0.953125 
Q 33.9375 -1.421875 27.875 -1.421875 
Q 17.96875 -1.421875 11.734375 6.484375 
Q 5.515625 14.40625 5.515625 27.296875 
Q 5.515625 40.1875 11.734375 48.09375 
Q 17.96875 56 27.875 56 
Q 33.9375 56 38.25 53.625 
Q 42.578125 51.265625 45.40625 46.390625 
z
M 14.796875 27.296875 
Q 14.796875 17.390625 18.875 11.75 
Q 22.953125 6.109375 30.078125 6.109375 
Q 37.203125 6.109375 41.296875 11.75 
Q 45.40625 17.390625 45.40625 27.296875 
Q 45.40625 37.203125 41.296875 42.84375 
Q 37.203125 48.484375 30.078125 48.484375 
Q 22.953125 48.484375 18.875 42.84375 
Q 14.796875 37.203125 14.796875 27.296875 
z
" id="DejaVuSans-64"/>
       <path d="M 9.421875 54.6875 
L 18.40625 54.6875 
L 18.40625 -0.984375 
Q 18.40625 -11.421875 14.421875 -16.109375 
Q 10.453125 -20.796875 1.609375 -20.796875 
L -1.8125 -20.796875 
L -1.8125 -13.1875 
L 0.59375 -13.1875 
Q 5.71875 -13.1875 7.5625 -10.8125 
Q 9.421875 -8.453125 9.421875 -0.984375 
z
M 9.421875 75.984375 
L 18.40625 75.984375 
L 18.40625 64.59375 
L 9.421875 64.59375 
z
" id="DejaVuSans-6a"/>
       <path d="M 10.6875 12.40625 
L 21 12.40625 
L 21 0 
L 10.6875 0 
z
" id="DejaVuSans-2e"/>
       <path id="DejaVuSans-20"/>
       <path d="M 44.390625 34.1875 
Q 47.5625 33.109375 50.5625 29.59375 
Q 53.5625 26.078125 56.59375 19.921875 
L 66.609375 0 
L 56 0 
L 46.6875 18.703125 
Q 43.0625 26.03125 39.671875 28.421875 
Q 36.28125 30.8125 30.421875 30.8125 
L 19.671875 30.8125 
L 19.671875 0 
L 9.8125 0 
L 9.8125 72.90625 
L 32.078125 72.90625 
Q 44.578125 72.90625 50.734375 67.671875 
Q 56.890625 62.453125 56.890625 51.90625 
Q 56.890625 45.015625 53.6875 40.46875 
Q 50.484375 35.9375 44.390625 34.1875 
z
M 19.671875 64.796875 
L 19.671875 38.921875 
L 32.078125 38.921875 
Q 39.203125 38.921875 42.84375 42.21875 
Q 46.484375 45.515625 46.484375 51.90625 
Q 46.484375 58.296875 42.84375 61.546875 
Q 39.203125 64.796875 32.078125 64.796875 
z
" id="DejaVuSans-52"/>
       <path d="M 4.890625 31.390625 
L 31.203125 31.390625 
L 31.203125 23.390625 
L 4.890625 23.390625 
z
" id="DejaVuSans-2d"/>
       <path d="M 44.28125 53.078125 
L 44.28125 44.578125 
Q 40.484375 46.53125 36.375 47.5 
Q 32.28125 48.484375 27.875 48.484375 
Q 21.1875 48.484375 17.84375 46.4375 
Q 14.5 44.390625 14.5 40.28125 
Q 14.5 37.15625 16.890625 35.375 
Q 19.28125 33.59375 26.515625 31.984375 
L 29.59375 31.296875 
Q 39.15625 29.25 43.1875 25.515625 
Q 47.21875 21.78125 47.21875 15.09375 
Q 47.21875 7.46875 41.1875 3.015625 
Q 35.15625 -1.421875 24.609375 -1.421875 
Q 20.21875 -1.421875 15.453125 -0.5625 
Q 10.6875 0.296875 5.421875 2 
L 5.421875 11.28125 
Q 10.40625 8.6875 15.234375 7.390625 
Q 20.0625 6.109375 24.8125 6.109375 
Q 31.15625 6.109375 34.5625 8.28125 
Q 37.984375 10.453125 37.984375 14.40625 
Q 37.984375 18.0625 35.515625 20.015625 
Q 33.0625 21.96875 24.703125 23.78125 
L 21.578125 24.515625 
Q 13.234375 26.265625 9.515625 29.90625 
Q 5.8125 33.546875 5.8125 39.890625 
Q 5.8125 47.609375 11.28125 51.796875 
Q 16.75 56 26.8125 56 
Q 31.78125 56 36.171875 55.265625 
Q 40.578125 54.546875 44.28125 53.078125 
z
" id="DejaVuSans-73"/>
       <path d="M 14.796875 27.296875 
Q 14.796875 17.390625 18.875 11.75 
Q 22.953125 6.109375 30.078125 6.109375 
Q 37.203125 6.109375 41.296875 11.75 
Q 45.40625 17.390625 45.40625 27.296875 
Q 45.40625 37.203125 41.296875 42.84375 
Q 37.203125 48.484375 30.078125 48.484375 
Q 22.953125 48.484375 18.875 42.84375 
Q 14.796875 37.203125 14.796875 27.296875 
z
M 45.40625 8.203125 
Q 42.578125 3.328125 38.25 0.953125 
Q 33.9375 -1.421875 27.875 -1.421875 
Q 17.96875 -1.421875 11.734375 6.484375 
Q 5.515625 14.40625 5.515625 27.296875 
Q 5.515625 40.1875 11.734375 48.09375 
Q 17.96875 56 27.875 56 
Q 33.9375 56 38.25 53.625 
Q 42.578125 51.265625 45.40625 46.390625 
L 45.40625 54.6875 
L 54.390625 54.6875 
L 54.390625 -20.796875 
L 45.40625 -20.796875 
z
" id="DejaVuSans-71"/>
       <path d="M 8.5 21.578125 
L 8.5 54.6875 
L 17.484375 54.6875 
L 17.484375 21.921875 
Q 17.484375 14.15625 20.5 10.265625 
Q 23.53125 6.390625 29.59375 6.390625 
Q 36.859375 6.390625 41.078125 11.03125 
Q 45.3125 15.671875 45.3125 23.6875 
L 45.3125 54.6875 
L 54.296875 54.6875 
L 54.296875 0 
L 45.3125 0 
L 45.3125 8.40625 
Q 42.046875 3.421875 37.71875 1 
Q 33.40625 -1.421875 27.6875 -1.421875 
Q 18.265625 -1.421875 13.375 4.4375 
Q 8.5 10.296875 8.5 21.578125 
z
M 31.109375 56 
z
" id="DejaVuSans-75"/>
       <path d="M 34.28125 27.484375 
Q 23.390625 27.484375 19.1875 25 
Q 14.984375 22.515625 14.984375 16.5 
Q 14.984375 11.71875 18.140625 8.90625 
Q 21.296875 6.109375 26.703125 6.109375 
Q 34.1875 6.109375 38.703125 11.40625 
Q 43.21875 16.703125 43.21875 25.484375 
L 43.21875 27.484375 
z
M 52.203125 31.203125 
L 52.203125 0 
L 43.21875 0 
L 43.21875 8.296875 
Q 40.140625 3.328125 35.546875 0.953125 
Q 30.953125 -1.421875 24.3125 -1.421875 
Q 15.921875 -1.421875 10.953125 3.296875 
Q 6 8.015625 6 15.921875 
Q 6 25.140625 12.171875 29.828125 
Q 18.359375 34.515625 30.609375 34.515625 
L 43.21875 34.515625 
L 43.21875 35.40625 
Q 43.21875 41.609375 39.140625 45 
Q 35.0625 48.390625 27.6875 48.390625 
Q 23 48.390625 18.546875 47.265625 
Q 14.109375 46.140625 10.015625 43.890625 
L 10.015625 52.203125 
Q 14.9375 54.109375 19.578125 55.046875 
Q 24.21875 56 28.609375 56 
Q 40.484375 56 46.34375 49.84375 
Q 52.203125 43.703125 52.203125 31.203125 
z
" id="DejaVuSans-61"/>
       <path d="M 41.109375 46.296875 
Q 39.59375 47.171875 37.8125 47.578125 
Q 36.03125 48 33.890625 48 
Q 26.265625 48 22.1875 43.046875 
Q 18.109375 38.09375 18.109375 28.8125 
L 18.109375 0 
L 9.078125 0 
L 9.078125 54.6875 
L 18.109375 54.6875 
L 18.109375 46.1875 
Q 20.953125 51.171875 25.484375 53.578125 
Q 30.03125 56 36.53125 56 
Q 37.453125 56 38.578125 55.875 
Q 39.703125 55.765625 41.0625 55.515625 
z
" id="DejaVuSans-72"/>
       <path d="M 56.203125 29.59375 
L 56.203125 25.203125 
L 14.890625 25.203125 
Q 15.484375 15.921875 20.484375 11.0625 
Q 25.484375 6.203125 34.421875 6.203125 
Q 39.59375 6.203125 44.453125 7.46875 
Q 49.3125 8.734375 54.109375 11.28125 
L 54.109375 2.78125 
Q 49.265625 0.734375 44.1875 -0.34375 
Q 39.109375 -1.421875 33.890625 -1.421875 
Q 20.796875 -1.421875 13.15625 6.1875 
Q 5.515625 13.8125 5.515625 26.8125 
Q 5.515625 40.234375 12.765625 48.109375 
Q 20.015625 56 32.328125 56 
Q 43.359375 56 49.78125 48.890625 
Q 56.203125 41.796875 56.203125 29.59375 
z
M 47.21875 32.234375 
Q 47.125 39.59375 43.09375 43.984375 
Q 39.0625 48.390625 32.421875 48.390625 
Q 24.90625 48.390625 20.390625 44.140625 
Q 15.875 39.890625 15.1875 32.171875 
z
" id="DejaVuSans-65"/>
      </defs>
      <g style="fill:#262626;" transform="translate(121.375938 139.125892)scale(0.16 -0.16)">
       <use xlink:href="#DejaVuSans-41"/>
       <use x="68.392578" xlink:href="#DejaVuSans-64"/>
       <use x="131.869141" xlink:href="#DejaVuSans-6a"/>
       <use x="159.652344" xlink:href="#DejaVuSans-2e"/>
       <use x="191.439453" xlink:href="#DejaVuSans-20"/>
       <use x="223.226562" xlink:href="#DejaVuSans-52"/>
       <use x="292.646484" xlink:href="#DejaVuSans-2d"/>
       <use x="328.730469" xlink:href="#DejaVuSans-73"/>
       <use x="380.830078" xlink:href="#DejaVuSans-71"/>
       <use x="444.306641" xlink:href="#DejaVuSans-75"/>
       <use x="507.685547" xlink:href="#DejaVuSans-61"/>
       <use x="568.964844" xlink:href="#DejaVuSans-72"/>
       <use x="610.046875" xlink:href="#DejaVuSans-65"/>
       <use x="671.570312" xlink:href="#DejaVuSans-64"/>
      </g>
     </g>
    </g>
    <g id="ytick_2">
     <g id="line2d_13">
      <path clip-path="url(#pbb0472d6b6)" d="M 242.483438 67.640725 
L 577.283437 67.640725 
" style="fill:none;stroke:#262626;stroke-dasharray:5.12,1.28,0.8,1.28;stroke-dashoffset:0;stroke-width:0.8;"/>
     </g>
     <g id="line2d_14"/>
     <g id="text_2">
      <!-- R-squared -->
      <g style="fill:#262626;" transform="translate(157.090938 73.719475)scale(0.16 -0.16)">
       <use xlink:href="#DejaVuSans-52"/>
       <use x="69.419922" xlink:href="#DejaVuSans-2d"/>
       <use x="105.503906" xlink:href="#DejaVuSans-73"/>
       <use x="157.603516" xlink:href="#DejaVuSans-71"/>
       <use x="221.080078" xlink:href="#DejaVuSans-75"/>
       <use x="284.458984" xlink:href="#DejaVuSans-61"/>
       <use x="345.738281" xlink:href="#DejaVuSans-72"/>
       <use x="386.820312" xlink:href="#DejaVuSans-65"/>
       <use x="448.34375" xlink:href="#DejaVuSans-64"/>
      </g>
     </g>
    </g>
    <g id="text_3">
     <!-- Model Fit -->
     <defs>
      <path d="M 9.8125 72.90625 
L 24.515625 72.90625 
L 43.109375 23.296875 
L 61.8125 72.90625 
L 76.515625 72.90625 
L 76.515625 0 
L 66.890625 0 
L 66.890625 64.015625 
L 48.09375 14.015625 
L 38.1875 14.015625 
L 19.390625 64.015625 
L 19.390625 0 
L 9.8125 0 
z
" id="DejaVuSans-4d"/>
      <path d="M 30.609375 48.390625 
Q 23.390625 48.390625 19.1875 42.75 
Q 14.984375 37.109375 14.984375 27.296875 
Q 14.984375 17.484375 19.15625 11.84375 
Q 23.34375 6.203125 30.609375 6.203125 
Q 37.796875 6.203125 41.984375 11.859375 
Q 46.1875 17.53125 46.1875 27.296875 
Q 46.1875 37.015625 41.984375 42.703125 
Q 37.796875 48.390625 30.609375 48.390625 
z
M 30.609375 56 
Q 42.328125 56 49.015625 48.375 
Q 55.71875 40.765625 55.71875 27.296875 
Q 55.71875 13.875 49.015625 6.21875 
Q 42.328125 -1.421875 30.609375 -1.421875 
Q 18.84375 -1.421875 12.171875 6.21875 
Q 5.515625 13.875 5.515625 27.296875 
Q 5.515625 40.765625 12.171875 48.375 
Q 18.84375 56 30.609375 56 
z
" id="DejaVuSans-6f"/>
      <path d="M 9.421875 75.984375 
L 18.40625 75.984375 
L 18.40625 0 
L 9.421875 0 
z
" id="DejaVuSans-6c"/>
      <path d="M 9.8125 72.90625 
L 51.703125 72.90625 
L 51.703125 64.59375 
L 19.671875 64.59375 
L 19.671875 43.109375 
L 48.578125 43.109375 
L 48.578125 34.8125 
L 19.671875 34.8125 
L 19.671875 0 
L 9.8125 0 
z
" id="DejaVuSans-46"/>
      <path d="M 9.421875 54.6875 
L 18.40625 54.6875 
L 18.40625 0 
L 9.421875 0 
z
M 9.421875 75.984375 
L 18.40625 75.984375 
L 18.40625 64.59375 
L 9.421875 64.59375 
z
" id="DejaVuSans-69"/>
      <path d="M 18.3125 70.21875 
L 18.3125 54.6875 
L 36.8125 54.6875 
L 36.8125 47.703125 
L 18.3125 47.703125 
L 18.3125 18.015625 
Q 18.3125 11.328125 20.140625 9.421875 
Q 21.96875 7.515625 27.59375 7.515625 
L 36.8125 7.515625 
L 36.8125 0 
L 27.59375 0 
Q 17.1875 0 13.234375 3.875 
Q 9.28125 7.765625 9.28125 18.015625 
L 9.28125 47.703125 
L 2.6875 47.703125 
L 2.6875 54.6875 
L 9.28125 54.6875 
L 9.28125 70.21875 
z
" id="DejaVuSans-74"/>
     </defs>
     <g style="fill:#262626;" transform="translate(113.424531 143.705496)rotate(-90)scale(0.19 -0.19)">
      <use xlink:href="#DejaVuSans-4d"/>
      <use x="86.279297" xlink:href="#DejaVuSans-6f"/>
      <use x="147.460938" xlink:href="#DejaVuSans-64"/>
      <use x="210.9375" xlink:href="#DejaVuSans-65"/>
      <use x="272.460938" xlink:href="#DejaVuSans-6c"/>
      <use x="300.244141" xlink:href="#DejaVuSans-20"/>
      <use x="332.03125" xlink:href="#DejaVuSans-46"/>
      <use x="389.441406" xlink:href="#DejaVuSans-69"/>
      <use x="417.224609" xlink:href="#DejaVuSans-74"/>
     </g>
    </g>
   </g>
   <g id="patch_3">
    <path clip-path="url(#pbb0472d6b6)" d="M 457.517686 159.209709 
L 440.00814 159.209709 
L 440.00814 106.884576 
L 457.517686 106.884576 
z
" style="fill:#808080;"/>
   </g>
   <g id="patch_4">
    <path clip-path="url(#pbb0472d6b6)" d="M 457.517686 93.803292 
L 440.962886 93.803292 
L 440.962886 41.478158 
L 457.517686 41.478158 
z
" style="fill:#808080;"/>
   </g>
   <g id="LineCollection_1">
    <path clip-path="url(#pbb0472d6b6)" d="M 424.027817 133.047142 
L 455.988463 133.047142 
" style="fill:none;stroke:#000000;stroke-width:2;"/>
    <path clip-path="url(#pbb0472d6b6)" d="M 425.483671 67.640725 
L 456.442102 67.640725 
" style="fill:none;stroke:#000000;stroke-width:2;"/>
   </g>
   <g id="line2d_15">
    <defs>
     <path d="M 0 5 
L 0 -5 
" id="mb00fcdc855" style="stroke:#000000;stroke-width:2;"/>
    </defs>
    <g clip-path="url(#pbb0472d6b6)">
     <use style="stroke:#000000;stroke-width:2;" x="424.027817" xlink:href="#mb00fcdc855" y="133.047142"/>
     <use style="stroke:#000000;stroke-width:2;" x="425.483671" xlink:href="#mb00fcdc855" y="67.640725"/>
    </g>
   </g>
   <g id="line2d_16">
    <g clip-path="url(#pbb0472d6b6)">
     <use style="stroke:#000000;stroke-width:2;" x="455.988463" xlink:href="#mb00fcdc855" y="133.047142"/>
     <use style="stroke:#000000;stroke-width:2;" x="456.442102" xlink:href="#mb00fcdc855" y="67.640725"/>
    </g>
   </g>
   <g id="line2d_17">
    <path clip-path="url(#pbb0472d6b6)" d="M 457.517686 165.750351 
L 457.517686 34.937517 
" style="fill:none;opacity:0.75;stroke:#000000;stroke-linecap:round;stroke-width:2;"/>
   </g>
   <g id="patch_5">
    <path d="M 242.483438 172.290993 
L 242.483438 28.396875 
" style="fill:none;"/>
   </g>
   <g id="patch_6">
    <path d="M 577.283437 172.290993 
L 577.283437 28.396875 
" style="fill:none;"/>
   </g>
   <g id="patch_7">
    <path d="M 242.483438 172.290993 
L 577.283437 172.290993 
" style="fill:none;"/>
   </g>
   <g id="patch_8">
    <path d="M 242.483438 28.396875 
L 577.283437 28.396875 
" style="fill:none;"/>
   </g>
   <g id="text_4">
    <g id="patch_9">
     <path d="M 2059.785179 143.88183 
L 2172.937992 143.88183 
L 2172.937992 122.212455 
L 2059.785179 122.212455 
z
" style="fill:#ffffff;stroke:#000000;stroke-linejoin:miter;"/>
    </g>
    <!-- (0.110 - 0.115) -->
    <defs>
     <path d="M 42.671875 75.875 
Q 29.734375 59.71875 23.359375 45.1875 
Q 17 30.671875 17 17.1875 
Q 17 9.46875 18.84375 1.875 
Q 20.703125 -5.71875 24.421875 -13.1875 
L 16.609375 -13.1875 
Q 12.109375 -4.78125 9.90625 3.140625 
Q 7.71875 11.078125 7.71875 18.703125 
Q 7.71875 33.203125 14.421875 47.4375 
Q 21.140625 61.671875 34.71875 75.875 
z
" id="DejaVuSans-Oblique-28"/>
     <path d="M 38.1875 74.21875 
Q 48.09375 74.21875 53.34375 67.625 
Q 58.59375 61.03125 58.59375 48.6875 
Q 58.59375 39.3125 56.125 30.046875 
Q 53.65625 20.796875 49.21875 13.484375 
Q 44.671875 6.15625 38.546875 2.359375 
Q 32.421875 -1.421875 25 -1.421875 
Q 15.4375 -1.421875 10.203125 5.21875 
Q 4.984375 11.859375 4.984375 24.125 
Q 4.984375 33.40625 7.5 42.703125 
Q 10.015625 52 14.5 59.28125 
Q 19 66.609375 25.03125 70.40625 
Q 31.0625 74.21875 38.1875 74.21875 
z
M 37.59375 66.40625 
Q 33.890625 66.40625 30.546875 64.421875 
Q 27.203125 62.453125 24.515625 58.59375 
Q 20.015625 52.15625 17.359375 42.5 
Q 14.703125 32.859375 14.703125 22.703125 
Q 14.703125 14.65625 17.546875 10.515625 
Q 20.40625 6.390625 25.984375 6.390625 
Q 29.890625 6.390625 33.203125 8.375 
Q 36.53125 10.359375 39.203125 14.203125 
Q 43.65625 20.609375 46.265625 30.25 
Q 48.875 39.890625 48.875 50.09375 
Q 48.875 58.15625 46.015625 62.28125 
Q 43.171875 66.40625 37.59375 66.40625 
z
" id="DejaVuSans-Oblique-30"/>
     <path d="M 8.203125 12.40625 
L 18.5 12.40625 
L 16.109375 0 
L 5.8125 0 
z
" id="DejaVuSans-Oblique-2e"/>
     <path d="M 6.5 8.296875 
L 22.609375 8.296875 
L 33.5 64.40625 
L 15.28125 60.890625 
L 17 69.390625 
L 35.109375 72.90625 
L 45.015625 72.90625 
L 32.421875 8.296875 
L 48.484375 8.296875 
L 46.921875 0 
L 4.890625 0 
z
" id="DejaVuSans-Oblique-31"/>
     <path id="DejaVuSans-Oblique-20"/>
     <path d="M 6.109375 31.390625 
L 32.421875 31.390625 
L 30.90625 23.390625 
L 4.5 23.390625 
z
" id="DejaVuSans-Oblique-2d"/>
     <path d="M 58.109375 72.90625 
L 56.59375 64.703125 
L 26.421875 64.703125 
L 22.90625 46.6875 
Q 25.140625 47.40625 27.453125 47.75 
Q 29.78125 48.09375 32.171875 48.09375 
Q 42.28125 48.09375 48.140625 42.671875 
Q 54 37.25 54 27.984375 
Q 54 21.484375 51 15.53125 
Q 48 9.578125 42.484375 5.078125 
Q 38.578125 1.953125 32.9375 0.265625 
Q 27.296875 -1.421875 20.609375 -1.421875 
Q 16.21875 -1.421875 11.625 -0.640625 
Q 7.03125 0.140625 2 1.703125 
L 3.8125 10.890625 
Q 8.296875 8.6875 12.8125 7.59375 
Q 17.328125 6.5 21.921875 6.5 
Q 31.453125 6.5 37.671875 12.203125 
Q 43.890625 17.921875 43.890625 26.515625 
Q 43.890625 32.859375 39.8125 36.375 
Q 35.75 39.890625 28.421875 39.890625 
Q 24.5625 39.890625 20.390625 38.984375 
Q 16.21875 38.09375 11.8125 36.28125 
L 18.890625 72.90625 
z
" id="DejaVuSans-Oblique-35"/>
     <path d="M -6.203125 -13.1875 
Q 6.78125 2.984375 13.125 17.5 
Q 19.484375 32.03125 19.484375 45.515625 
Q 19.484375 53.21875 17.65625 60.8125 
Q 15.828125 68.40625 12.109375 75.875 
L 19.921875 75.875 
Q 24.421875 67.4375 26.609375 59.5625 
Q 28.8125 51.703125 28.8125 44.09375 
Q 28.8125 29.546875 22.046875 15.203125 
Q 15.28125 0.875 1.8125 -13.1875 
z
" id="DejaVuSans-Oblique-29"/>
    </defs>
    <g style="fill:#262626;" transform="translate(2063.845179 136.910267)scale(0.14 -0.14)">
     <use xlink:href="#DejaVuSans-Oblique-28"/>
     <use x="39.013672" xlink:href="#DejaVuSans-Oblique-30"/>
     <use x="102.636719" xlink:href="#DejaVuSans-Oblique-2e"/>
     <use x="134.423828" xlink:href="#DejaVuSans-Oblique-31"/>
     <use x="198.046875" xlink:href="#DejaVuSans-Oblique-31"/>
     <use x="261.669922" xlink:href="#DejaVuSans-Oblique-30"/>
     <use x="325.292969" xlink:href="#DejaVuSans-Oblique-20"/>
     <use x="357.080078" xlink:href="#DejaVuSans-Oblique-2d"/>
     <use x="393.164062" xlink:href="#DejaVuSans-Oblique-20"/>
     <use x="424.951172" xlink:href="#DejaVuSans-Oblique-30"/>
     <use x="488.574219" xlink:href="#DejaVuSans-Oblique-2e"/>
     <use x="520.361328" xlink:href="#DejaVuSans-Oblique-31"/>
     <use x="583.984375" xlink:href="#DejaVuSans-Oblique-31"/>
     <use x="647.607422" xlink:href="#DejaVuSans-Oblique-35"/>
     <use x="711.230469" xlink:href="#DejaVuSans-Oblique-29"/>
    </g>
   </g>
   <g id="text_5">
    <g id="patch_10">
     <path d="M 2060.739926 78.475413 
L 2173.892738 78.475413 
L 2173.892738 56.806038 
L 2060.739926 56.806038 
z
" style="fill:#ffffff;stroke:#000000;stroke-linejoin:miter;"/>
    </g>
    <!-- (0.119 - 0.125) -->
    <defs>
     <path d="M 4.390625 1.609375 
L 6.203125 10.59375 
Q 9.03125 8.734375 12.640625 7.75 
Q 16.265625 6.78125 20.40625 6.78125 
Q 30.515625 6.78125 36.6875 13.171875 
Q 42.875 19.578125 45.90625 33.109375 
Q 42.28125 28.953125 37.515625 26.78125 
Q 32.765625 24.609375 27.296875 24.609375 
Q 18.40625 24.609375 13.15625 29.75 
Q 7.90625 34.90625 7.90625 43.609375 
Q 7.90625 50.734375 10.5 56.859375 
Q 13.09375 62.984375 18.109375 67.578125 
Q 21.53125 70.796875 26.015625 72.5 
Q 30.515625 74.21875 35.59375 74.21875 
Q 45.703125 74.21875 51.5625 67.796875 
Q 57.421875 61.375 57.421875 50.296875 
Q 57.421875 39.984375 54.703125 30.359375 
Q 52 20.75 47.21875 13.71875 
Q 42.140625 6.296875 35 2.4375 
Q 27.875 -1.421875 19.1875 -1.421875 
Q 15.4375 -1.421875 11.6875 -0.65625 
Q 7.953125 0.09375 4.390625 1.609375 
z
M 17.671875 45.90625 
Q 17.671875 39.703125 20.890625 36.0625 
Q 24.125 32.421875 29.59375 32.421875 
Q 37.15625 32.421875 42.28125 38.234375 
Q 47.40625 44.046875 47.40625 52.6875 
Q 47.40625 59.125 44.234375 62.765625 
Q 41.0625 66.40625 35.5 66.40625 
Q 27.9375 66.40625 22.796875 60.46875 
Q 17.671875 54.546875 17.671875 45.90625 
z
" id="DejaVuSans-Oblique-39"/>
     <path d="M 46.09375 35.203125 
L 14.59375 8.203125 
L 49.421875 8.203125 
L 47.703125 0 
L 0.390625 0 
L 2 8.296875 
L 34.90625 36.53125 
Q 41.5 42.234375 44.25 46.546875 
Q 47.015625 50.875 47.015625 55.421875 
Q 47.015625 60.15625 43.6875 63.125 
Q 40.375 66.109375 35.015625 66.109375 
Q 30.375 66.109375 24.703125 64.453125 
Q 19.046875 62.796875 12.59375 59.625 
L 14.40625 69.390625 
Q 20.453125 71.78125 25.96875 73 
Q 31.5 74.21875 36.1875 74.21875 
Q 45.75 74.21875 51.578125 69.140625 
Q 57.421875 64.0625 57.421875 55.8125 
Q 57.421875 50.25 54.640625 45.1875 
Q 51.859375 40.140625 46.09375 35.203125 
z
" id="DejaVuSans-Oblique-32"/>
    </defs>
    <g style="fill:#262626;" transform="translate(2064.799926 71.50385)scale(0.14 -0.14)">
     <use xlink:href="#DejaVuSans-Oblique-28"/>
     <use x="39.013672" xlink:href="#DejaVuSans-Oblique-30"/>
     <use x="102.636719" xlink:href="#DejaVuSans-Oblique-2e"/>
     <use x="134.423828" xlink:href="#DejaVuSans-Oblique-31"/>
     <use x="198.046875" xlink:href="#DejaVuSans-Oblique-31"/>
     <use x="261.669922" xlink:href="#DejaVuSans-Oblique-39"/>
     <use x="325.292969" xlink:href="#DejaVuSans-Oblique-20"/>
     <use x="357.080078" xlink:href="#DejaVuSans-Oblique-2d"/>
     <use x="393.164062" xlink:href="#DejaVuSans-Oblique-20"/>
     <use x="424.951172" xlink:href="#DejaVuSans-Oblique-30"/>
     <use x="488.574219" xlink:href="#DejaVuSans-Oblique-2e"/>
     <use x="520.361328" xlink:href="#DejaVuSans-Oblique-31"/>
     <use x="583.984375" xlink:href="#DejaVuSans-Oblique-32"/>
     <use x="647.607422" xlink:href="#DejaVuSans-Oblique-35"/>
     <use x="711.230469" xlink:href="#DejaVuSans-Oblique-29"/>
    </g>
   </g>
   <g id="text_6">
    <!-- Data Substitution, Last Year vs. Next Year: (Perturbed - Original) -->
    <defs>
     <path d="M 19.671875 64.796875 
L 19.671875 8.109375 
L 31.59375 8.109375 
Q 46.6875 8.109375 53.6875 14.9375 
Q 60.6875 21.78125 60.6875 36.53125 
Q 60.6875 51.171875 53.6875 57.984375 
Q 46.6875 64.796875 31.59375 64.796875 
z
M 9.8125 72.90625 
L 30.078125 72.90625 
Q 51.265625 72.90625 61.171875 64.09375 
Q 71.09375 55.28125 71.09375 36.53125 
Q 71.09375 17.671875 61.125 8.828125 
Q 51.171875 0 30.078125 0 
L 9.8125 0 
z
" id="DejaVuSans-44"/>
     <path d="M 53.515625 70.515625 
L 53.515625 60.890625 
Q 47.90625 63.578125 42.921875 64.890625 
Q 37.9375 66.21875 33.296875 66.21875 
Q 25.25 66.21875 20.875 63.09375 
Q 16.5 59.96875 16.5 54.203125 
Q 16.5 49.359375 19.40625 46.890625 
Q 22.3125 44.4375 30.421875 42.921875 
L 36.375 41.703125 
Q 47.40625 39.59375 52.65625 34.296875 
Q 57.90625 29 57.90625 20.125 
Q 57.90625 9.515625 50.796875 4.046875 
Q 43.703125 -1.421875 29.984375 -1.421875 
Q 24.8125 -1.421875 18.96875 -0.25 
Q 13.140625 0.921875 6.890625 3.21875 
L 6.890625 13.375 
Q 12.890625 10.015625 18.65625 8.296875 
Q 24.421875 6.59375 29.984375 6.59375 
Q 38.421875 6.59375 43.015625 9.90625 
Q 47.609375 13.234375 47.609375 19.390625 
Q 47.609375 24.75 44.3125 27.78125 
Q 41.015625 30.8125 33.5 32.328125 
L 27.484375 33.5 
Q 16.453125 35.6875 11.515625 40.375 
Q 6.59375 45.0625 6.59375 53.421875 
Q 6.59375 63.09375 13.40625 68.65625 
Q 20.21875 74.21875 32.171875 74.21875 
Q 37.3125 74.21875 42.625 73.28125 
Q 47.953125 72.359375 53.515625 70.515625 
z
" id="DejaVuSans-53"/>
     <path d="M 48.6875 27.296875 
Q 48.6875 37.203125 44.609375 42.84375 
Q 40.53125 48.484375 33.40625 48.484375 
Q 26.265625 48.484375 22.1875 42.84375 
Q 18.109375 37.203125 18.109375 27.296875 
Q 18.109375 17.390625 22.1875 11.75 
Q 26.265625 6.109375 33.40625 6.109375 
Q 40.53125 6.109375 44.609375 11.75 
Q 48.6875 17.390625 48.6875 27.296875 
z
M 18.109375 46.390625 
Q 20.953125 51.265625 25.265625 53.625 
Q 29.59375 56 35.59375 56 
Q 45.5625 56 51.78125 48.09375 
Q 58.015625 40.1875 58.015625 27.296875 
Q 58.015625 14.40625 51.78125 6.484375 
Q 45.5625 -1.421875 35.59375 -1.421875 
Q 29.59375 -1.421875 25.265625 0.953125 
Q 20.953125 3.328125 18.109375 8.203125 
L 18.109375 0 
L 9.078125 0 
L 9.078125 75.984375 
L 18.109375 75.984375 
z
" id="DejaVuSans-62"/>
     <path d="M 54.890625 33.015625 
L 54.890625 0 
L 45.90625 0 
L 45.90625 32.71875 
Q 45.90625 40.484375 42.875 44.328125 
Q 39.84375 48.1875 33.796875 48.1875 
Q 26.515625 48.1875 22.3125 43.546875 
Q 18.109375 38.921875 18.109375 30.90625 
L 18.109375 0 
L 9.078125 0 
L 9.078125 54.6875 
L 18.109375 54.6875 
L 18.109375 46.1875 
Q 21.34375 51.125 25.703125 53.5625 
Q 30.078125 56 35.796875 56 
Q 45.21875 56 50.046875 50.171875 
Q 54.890625 44.34375 54.890625 33.015625 
z
" id="DejaVuSans-6e"/>
     <path d="M 11.71875 12.40625 
L 22.015625 12.40625 
L 22.015625 4 
L 14.015625 -11.625 
L 7.71875 -11.625 
L 11.71875 4 
z
" id="DejaVuSans-2c"/>
     <path d="M 9.8125 72.90625 
L 19.671875 72.90625 
L 19.671875 8.296875 
L 55.171875 8.296875 
L 55.171875 0 
L 9.8125 0 
z
" id="DejaVuSans-4c"/>
     <path d="M -0.203125 72.90625 
L 10.40625 72.90625 
L 30.609375 42.921875 
L 50.6875 72.90625 
L 61.28125 72.90625 
L 35.5 34.71875 
L 35.5 0 
L 25.59375 0 
L 25.59375 34.71875 
z
" id="DejaVuSans-59"/>
     <path d="M 2.984375 54.6875 
L 12.5 54.6875 
L 29.59375 8.796875 
L 46.6875 54.6875 
L 56.203125 54.6875 
L 35.6875 0 
L 23.484375 0 
z
" id="DejaVuSans-76"/>
     <path d="M 9.8125 72.90625 
L 23.09375 72.90625 
L 55.421875 11.921875 
L 55.421875 72.90625 
L 64.984375 72.90625 
L 64.984375 0 
L 51.703125 0 
L 19.390625 60.984375 
L 19.390625 0 
L 9.8125 0 
z
" id="DejaVuSans-4e"/>
     <path d="M 54.890625 54.6875 
L 35.109375 28.078125 
L 55.90625 0 
L 45.3125 0 
L 29.390625 21.484375 
L 13.484375 0 
L 2.875 0 
L 24.125 28.609375 
L 4.6875 54.6875 
L 15.28125 54.6875 
L 29.78125 35.203125 
L 44.28125 54.6875 
z
" id="DejaVuSans-78"/>
     <path d="M 11.71875 12.40625 
L 22.015625 12.40625 
L 22.015625 0 
L 11.71875 0 
z
M 11.71875 51.703125 
L 22.015625 51.703125 
L 22.015625 39.3125 
L 11.71875 39.3125 
z
" id="DejaVuSans-3a"/>
     <path d="M 31 75.875 
Q 24.46875 64.65625 21.28125 53.65625 
Q 18.109375 42.671875 18.109375 31.390625 
Q 18.109375 20.125 21.3125 9.0625 
Q 24.515625 -2 31 -13.1875 
L 23.1875 -13.1875 
Q 15.875 -1.703125 12.234375 9.375 
Q 8.59375 20.453125 8.59375 31.390625 
Q 8.59375 42.28125 12.203125 53.3125 
Q 15.828125 64.359375 23.1875 75.875 
z
" id="DejaVuSans-28"/>
     <path d="M 19.671875 64.796875 
L 19.671875 37.40625 
L 32.078125 37.40625 
Q 38.96875 37.40625 42.71875 40.96875 
Q 46.484375 44.53125 46.484375 51.125 
Q 46.484375 57.671875 42.71875 61.234375 
Q 38.96875 64.796875 32.078125 64.796875 
z
M 9.8125 72.90625 
L 32.078125 72.90625 
Q 44.34375 72.90625 50.609375 67.359375 
Q 56.890625 61.8125 56.890625 51.125 
Q 56.890625 40.328125 50.609375 34.8125 
Q 44.34375 29.296875 32.078125 29.296875 
L 19.671875 29.296875 
L 19.671875 0 
L 9.8125 0 
z
" id="DejaVuSans-50"/>
     <path d="M 39.40625 66.21875 
Q 28.65625 66.21875 22.328125 58.203125 
Q 16.015625 50.203125 16.015625 36.375 
Q 16.015625 22.609375 22.328125 14.59375 
Q 28.65625 6.59375 39.40625 6.59375 
Q 50.140625 6.59375 56.421875 14.59375 
Q 62.703125 22.609375 62.703125 36.375 
Q 62.703125 50.203125 56.421875 58.203125 
Q 50.140625 66.21875 39.40625 66.21875 
z
M 39.40625 74.21875 
Q 54.734375 74.21875 63.90625 63.9375 
Q 73.09375 53.65625 73.09375 36.375 
Q 73.09375 19.140625 63.90625 8.859375 
Q 54.734375 -1.421875 39.40625 -1.421875 
Q 24.03125 -1.421875 14.8125 8.828125 
Q 5.609375 19.09375 5.609375 36.375 
Q 5.609375 53.65625 14.8125 63.9375 
Q 24.03125 74.21875 39.40625 74.21875 
z
" id="DejaVuSans-4f"/>
     <path d="M 45.40625 27.984375 
Q 45.40625 37.75 41.375 43.109375 
Q 37.359375 48.484375 30.078125 48.484375 
Q 22.859375 48.484375 18.828125 43.109375 
Q 14.796875 37.75 14.796875 27.984375 
Q 14.796875 18.265625 18.828125 12.890625 
Q 22.859375 7.515625 30.078125 7.515625 
Q 37.359375 7.515625 41.375 12.890625 
Q 45.40625 18.265625 45.40625 27.984375 
z
M 54.390625 6.78125 
Q 54.390625 -7.171875 48.1875 -13.984375 
Q 42 -20.796875 29.203125 -20.796875 
Q 24.46875 -20.796875 20.265625 -20.09375 
Q 16.0625 -19.390625 12.109375 -17.921875 
L 12.109375 -9.1875 
Q 16.0625 -11.328125 19.921875 -12.34375 
Q 23.78125 -13.375 27.78125 -13.375 
Q 36.625 -13.375 41.015625 -8.765625 
Q 45.40625 -4.15625 45.40625 5.171875 
L 45.40625 9.625 
Q 42.625 4.78125 38.28125 2.390625 
Q 33.9375 0 27.875 0 
Q 17.828125 0 11.671875 7.65625 
Q 5.515625 15.328125 5.515625 27.984375 
Q 5.515625 40.671875 11.671875 48.328125 
Q 17.828125 56 27.875 56 
Q 33.9375 56 38.28125 53.609375 
Q 42.625 51.21875 45.40625 46.390625 
L 45.40625 54.6875 
L 54.390625 54.6875 
z
" id="DejaVuSans-67"/>
     <path d="M 8.015625 75.875 
L 15.828125 75.875 
Q 23.140625 64.359375 26.78125 53.3125 
Q 30.421875 42.28125 30.421875 31.390625 
Q 30.421875 20.453125 26.78125 9.375 
Q 23.140625 -1.703125 15.828125 -13.1875 
L 8.015625 -13.1875 
Q 14.5 -2 17.703125 9.0625 
Q 20.90625 20.125 20.90625 31.390625 
Q 20.90625 42.671875 17.703125 53.65625 
Q 14.5 64.65625 8.015625 75.875 
z
" id="DejaVuSans-29"/>
    </defs>
    <g style="fill:#262626;" transform="translate(86.886562 22.396875)scale(0.2 -0.2)">
     <use xlink:href="#DejaVuSans-44"/>
     <use x="77.001953" xlink:href="#DejaVuSans-61"/>
     <use x="138.28125" xlink:href="#DejaVuSans-74"/>
     <use x="177.490234" xlink:href="#DejaVuSans-61"/>
     <use x="238.769531" xlink:href="#DejaVuSans-20"/>
     <use x="270.556641" xlink:href="#DejaVuSans-53"/>
     <use x="334.033203" xlink:href="#DejaVuSans-75"/>
     <use x="397.412109" xlink:href="#DejaVuSans-62"/>
     <use x="460.888672" xlink:href="#DejaVuSans-73"/>
     <use x="512.988281" xlink:href="#DejaVuSans-74"/>
     <use x="552.197266" xlink:href="#DejaVuSans-69"/>
     <use x="579.980469" xlink:href="#DejaVuSans-74"/>
     <use x="619.189453" xlink:href="#DejaVuSans-75"/>
     <use x="682.568359" xlink:href="#DejaVuSans-74"/>
     <use x="721.777344" xlink:href="#DejaVuSans-69"/>
     <use x="749.560547" xlink:href="#DejaVuSans-6f"/>
     <use x="810.742188" xlink:href="#DejaVuSans-6e"/>
     <use x="874.121094" xlink:href="#DejaVuSans-2c"/>
     <use x="905.908203" xlink:href="#DejaVuSans-20"/>
     <use x="937.695312" xlink:href="#DejaVuSans-4c"/>
     <use x="993.408203" xlink:href="#DejaVuSans-61"/>
     <use x="1054.6875" xlink:href="#DejaVuSans-73"/>
     <use x="1106.787109" xlink:href="#DejaVuSans-74"/>
     <use x="1145.996094" xlink:href="#DejaVuSans-20"/>
     <use x="1177.783203" xlink:href="#DejaVuSans-59"/>
     <use x="1238.664062" xlink:href="#DejaVuSans-65"/>
     <use x="1300.1875" xlink:href="#DejaVuSans-61"/>
     <use x="1361.466797" xlink:href="#DejaVuSans-72"/>
     <use x="1402.580078" xlink:href="#DejaVuSans-20"/>
     <use x="1434.367188" xlink:href="#DejaVuSans-76"/>
     <use x="1493.546875" xlink:href="#DejaVuSans-73"/>
     <use x="1545.646484" xlink:href="#DejaVuSans-2e"/>
     <use x="1577.433594" xlink:href="#DejaVuSans-20"/>
     <use x="1609.220703" xlink:href="#DejaVuSans-4e"/>
     <use x="1684.025391" xlink:href="#DejaVuSans-65"/>
     <use x="1745.533203" xlink:href="#DejaVuSans-78"/>
     <use x="1804.712891" xlink:href="#DejaVuSans-74"/>
     <use x="1843.921875" xlink:href="#DejaVuSans-20"/>
     <use x="1875.708984" xlink:href="#DejaVuSans-59"/>
     <use x="1936.589844" xlink:href="#DejaVuSans-65"/>
     <use x="1998.113281" xlink:href="#DejaVuSans-61"/>
     <use x="2059.392578" xlink:href="#DejaVuSans-72"/>
     <use x="2100.490234" xlink:href="#DejaVuSans-3a"/>
     <use x="2134.181641" xlink:href="#DejaVuSans-20"/>
     <use x="2165.96875" xlink:href="#DejaVuSans-28"/>
     <use x="2204.982422" xlink:href="#DejaVuSans-50"/>
     <use x="2265.238281" xlink:href="#DejaVuSans-65"/>
     <use x="2326.761719" xlink:href="#DejaVuSans-72"/>
     <use x="2367.875" xlink:href="#DejaVuSans-74"/>
     <use x="2407.083984" xlink:href="#DejaVuSans-75"/>
     <use x="2470.462891" xlink:href="#DejaVuSans-72"/>
     <use x="2511.576172" xlink:href="#DejaVuSans-62"/>
     <use x="2575.052734" xlink:href="#DejaVuSans-65"/>
     <use x="2636.576172" xlink:href="#DejaVuSans-64"/>
     <use x="2700.052734" xlink:href="#DejaVuSans-20"/>
     <use x="2731.839844" xlink:href="#DejaVuSans-2d"/>
     <use x="2767.923828" xlink:href="#DejaVuSans-20"/>
     <use x="2799.710938" xlink:href="#DejaVuSans-4f"/>
     <use x="2878.421875" xlink:href="#DejaVuSans-72"/>
     <use x="2919.535156" xlink:href="#DejaVuSans-69"/>
     <use x="2947.318359" xlink:href="#DejaVuSans-67"/>
     <use x="3010.794922" xlink:href="#DejaVuSans-69"/>
     <use x="3038.578125" xlink:href="#DejaVuSans-6e"/>
     <use x="3101.957031" xlink:href="#DejaVuSans-61"/>
     <use x="3163.236328" xlink:href="#DejaVuSans-6c"/>
     <use x="3191.019531" xlink:href="#DejaVuSans-29"/>
    </g>
   </g>
  </g>
  <g id="axes_2">
   <g id="patch_11">
    <path d="M 242.483438 344.963934 
L 577.283437 344.963934 
L 577.283437 201.069816 
L 242.483438 201.069816 
z
" style="fill:#ffffff;"/>
   </g>
   <g id="matplotlib.axis_3">
    <g id="xtick_6">
     <g id="line2d_18">
      <path clip-path="url(#pbcd9013bf9)" d="M 262.657242 344.963934 
L 262.657242 201.069816 
" style="fill:none;stroke:#262626;stroke-dasharray:5.12,1.28,0.8,1.28;stroke-dashoffset:0;stroke-width:0.8;"/>
     </g>
     <g id="line2d_19"/>
    </g>
    <g id="xtick_7">
     <g id="line2d_20">
      <path clip-path="url(#pbcd9013bf9)" d="M 327.610723 344.963934 
L 327.610723 201.069816 
" style="fill:none;stroke:#262626;stroke-dasharray:5.12,1.28,0.8,1.28;stroke-dashoffset:0;stroke-width:0.8;"/>
     </g>
     <g id="line2d_21"/>
    </g>
    <g id="xtick_8">
     <g id="line2d_22">
      <path clip-path="url(#pbcd9013bf9)" d="M 392.564205 344.963934 
L 392.564205 201.069816 
" style="fill:none;stroke:#262626;stroke-dasharray:5.12,1.28,0.8,1.28;stroke-dashoffset:0;stroke-width:0.8;"/>
     </g>
     <g id="line2d_23"/>
    </g>
    <g id="xtick_9">
     <g id="line2d_24">
      <path clip-path="url(#pbcd9013bf9)" d="M 457.517686 344.963934 
L 457.517686 201.069816 
" style="fill:none;stroke:#262626;stroke-dasharray:5.12,1.28,0.8,1.28;stroke-dashoffset:0;stroke-width:0.8;"/>
     </g>
     <g id="line2d_25"/>
    </g>
    <g id="xtick_10">
     <g id="line2d_26">
      <path clip-path="url(#pbcd9013bf9)" d="M 522.471168 344.963934 
L 522.471168 201.069816 
" style="fill:none;stroke:#262626;stroke-dasharray:5.12,1.28,0.8,1.28;stroke-dashoffset:0;stroke-width:0.8;"/>
     </g>
     <g id="line2d_27"/>
    </g>
   </g>
   <g id="matplotlib.axis_4">
    <g id="ytick_3">
     <g id="line2d_28">
      <path clip-path="url(#pbcd9013bf9)" d="M 242.483438 305.720084 
L 577.283437 305.720084 
" style="fill:none;stroke:#262626;stroke-dasharray:5.12,1.28,0.8,1.28;stroke-dashoffset:0;stroke-width:0.8;"/>
     </g>
     <g id="line2d_29"/>
     <g id="text_7">
      <!-- Standard. Size of Coeff's -->
      <defs>
       <path d="M 5.515625 54.6875 
L 48.1875 54.6875 
L 48.1875 46.484375 
L 14.40625 7.171875 
L 48.1875 7.171875 
L 48.1875 0 
L 4.296875 0 
L 4.296875 8.203125 
L 38.09375 47.515625 
L 5.515625 47.515625 
z
" id="DejaVuSans-7a"/>
       <path d="M 37.109375 75.984375 
L 37.109375 68.5 
L 28.515625 68.5 
Q 23.6875 68.5 21.796875 66.546875 
Q 19.921875 64.59375 19.921875 59.515625 
L 19.921875 54.6875 
L 34.71875 54.6875 
L 34.71875 47.703125 
L 19.921875 47.703125 
L 19.921875 0 
L 10.890625 0 
L 10.890625 47.703125 
L 2.296875 47.703125 
L 2.296875 54.6875 
L 10.890625 54.6875 
L 10.890625 58.5 
Q 10.890625 67.625 15.140625 71.796875 
Q 19.390625 75.984375 28.609375 75.984375 
z
" id="DejaVuSans-66"/>
       <path d="M 64.40625 67.28125 
L 64.40625 56.890625 
Q 59.421875 61.53125 53.78125 63.8125 
Q 48.140625 66.109375 41.796875 66.109375 
Q 29.296875 66.109375 22.65625 58.46875 
Q 16.015625 50.828125 16.015625 36.375 
Q 16.015625 21.96875 22.65625 14.328125 
Q 29.296875 6.6875 41.796875 6.6875 
Q 48.140625 6.6875 53.78125 8.984375 
Q 59.421875 11.28125 64.40625 15.921875 
L 64.40625 5.609375 
Q 59.234375 2.09375 53.4375 0.328125 
Q 47.65625 -1.421875 41.21875 -1.421875 
Q 24.65625 -1.421875 15.125 8.703125 
Q 5.609375 18.84375 5.609375 36.375 
Q 5.609375 53.953125 15.125 64.078125 
Q 24.65625 74.21875 41.21875 74.21875 
Q 47.75 74.21875 53.53125 72.484375 
Q 59.328125 70.75 64.40625 67.28125 
z
" id="DejaVuSans-43"/>
       <path d="M 17.921875 72.90625 
L 17.921875 45.796875 
L 9.625 45.796875 
L 9.625 72.90625 
z
" id="DejaVuSans-27"/>
      </defs>
      <g style="fill:#262626;" transform="translate(42.500938 311.798834)scale(0.16 -0.16)">
       <use xlink:href="#DejaVuSans-53"/>
       <use x="63.476562" xlink:href="#DejaVuSans-74"/>
       <use x="102.685547" xlink:href="#DejaVuSans-61"/>
       <use x="163.964844" xlink:href="#DejaVuSans-6e"/>
       <use x="227.34375" xlink:href="#DejaVuSans-64"/>
       <use x="290.820312" xlink:href="#DejaVuSans-61"/>
       <use x="352.099609" xlink:href="#DejaVuSans-72"/>
       <use x="393.197266" xlink:href="#DejaVuSans-64"/>
       <use x="456.673828" xlink:href="#DejaVuSans-2e"/>
       <use x="488.460938" xlink:href="#DejaVuSans-20"/>
       <use x="520.248047" xlink:href="#DejaVuSans-53"/>
       <use x="583.724609" xlink:href="#DejaVuSans-69"/>
       <use x="611.507812" xlink:href="#DejaVuSans-7a"/>
       <use x="663.998047" xlink:href="#DejaVuSans-65"/>
       <use x="725.521484" xlink:href="#DejaVuSans-20"/>
       <use x="757.308594" xlink:href="#DejaVuSans-6f"/>
       <use x="818.490234" xlink:href="#DejaVuSans-66"/>
       <use x="853.695312" xlink:href="#DejaVuSans-20"/>
       <use x="885.482422" xlink:href="#DejaVuSans-43"/>
       <use x="955.306641" xlink:href="#DejaVuSans-6f"/>
       <use x="1016.488281" xlink:href="#DejaVuSans-65"/>
       <use x="1078.011719" xlink:href="#DejaVuSans-66"/>
       <use x="1113.216797" xlink:href="#DejaVuSans-66"/>
       <use x="1148.421875" xlink:href="#DejaVuSans-27"/>
       <use x="1175.912109" xlink:href="#DejaVuSans-73"/>
      </g>
     </g>
    </g>
    <g id="ytick_4">
     <g id="line2d_30">
      <path clip-path="url(#pbcd9013bf9)" d="M 242.483438 240.313666 
L 577.283437 240.313666 
" style="fill:none;stroke:#262626;stroke-dasharray:5.12,1.28,0.8,1.28;stroke-dashoffset:0;stroke-width:0.8;"/>
     </g>
     <g id="line2d_31"/>
     <g id="text_8">
      <!-- Prop. of Stat. Sign. Coeff's -->
      <defs>
       <path d="M 18.109375 8.203125 
L 18.109375 -20.796875 
L 9.078125 -20.796875 
L 9.078125 54.6875 
L 18.109375 54.6875 
L 18.109375 46.390625 
Q 20.953125 51.265625 25.265625 53.625 
Q 29.59375 56 35.59375 56 
Q 45.5625 56 51.78125 48.09375 
Q 58.015625 40.1875 58.015625 27.296875 
Q 58.015625 14.40625 51.78125 6.484375 
Q 45.5625 -1.421875 35.59375 -1.421875 
Q 29.59375 -1.421875 25.265625 0.953125 
Q 20.953125 3.328125 18.109375 8.203125 
z
M 48.6875 27.296875 
Q 48.6875 37.203125 44.609375 42.84375 
Q 40.53125 48.484375 33.40625 48.484375 
Q 26.265625 48.484375 22.1875 42.84375 
Q 18.109375 37.203125 18.109375 27.296875 
Q 18.109375 17.390625 22.1875 11.75 
Q 26.265625 6.109375 33.40625 6.109375 
Q 40.53125 6.109375 44.609375 11.75 
Q 48.6875 17.390625 48.6875 27.296875 
z
" id="DejaVuSans-70"/>
      </defs>
      <g style="fill:#262626;" transform="translate(29.588438 246.392416)scale(0.16 -0.16)">
       <use xlink:href="#DejaVuSans-50"/>
       <use x="60.287109" xlink:href="#DejaVuSans-72"/>
       <use x="101.369141" xlink:href="#DejaVuSans-6f"/>
       <use x="162.550781" xlink:href="#DejaVuSans-70"/>
       <use x="226.027344" xlink:href="#DejaVuSans-2e"/>
       <use x="257.814453" xlink:href="#DejaVuSans-20"/>
       <use x="289.601562" xlink:href="#DejaVuSans-6f"/>
       <use x="350.783203" xlink:href="#DejaVuSans-66"/>
       <use x="385.988281" xlink:href="#DejaVuSans-20"/>
       <use x="417.775391" xlink:href="#DejaVuSans-53"/>
       <use x="481.251953" xlink:href="#DejaVuSans-74"/>
       <use x="520.460938" xlink:href="#DejaVuSans-61"/>
       <use x="581.740234" xlink:href="#DejaVuSans-74"/>
       <use x="620.949219" xlink:href="#DejaVuSans-2e"/>
       <use x="652.736328" xlink:href="#DejaVuSans-20"/>
       <use x="684.523438" xlink:href="#DejaVuSans-53"/>
       <use x="748" xlink:href="#DejaVuSans-69"/>
       <use x="775.783203" xlink:href="#DejaVuSans-67"/>
       <use x="839.259766" xlink:href="#DejaVuSans-6e"/>
       <use x="902.638672" xlink:href="#DejaVuSans-2e"/>
       <use x="934.425781" xlink:href="#DejaVuSans-20"/>
       <use x="966.212891" xlink:href="#DejaVuSans-43"/>
       <use x="1036.037109" xlink:href="#DejaVuSans-6f"/>
       <use x="1097.21875" xlink:href="#DejaVuSans-65"/>
       <use x="1158.742188" xlink:href="#DejaVuSans-66"/>
       <use x="1193.947266" xlink:href="#DejaVuSans-66"/>
       <use x="1229.152344" xlink:href="#DejaVuSans-27"/>
       <use x="1256.642578" xlink:href="#DejaVuSans-73"/>
      </g>
     </g>
    </g>
    <g id="text_9">
     <!-- Central IVs -->
     <defs>
      <path d="M 9.8125 72.90625 
L 19.671875 72.90625 
L 19.671875 0 
L 9.8125 0 
z
" id="DejaVuSans-49"/>
      <path d="M 28.609375 0 
L 0.78125 72.90625 
L 11.078125 72.90625 
L 34.1875 11.53125 
L 57.328125 72.90625 
L 67.578125 72.90625 
L 39.796875 0 
z
" id="DejaVuSans-56"/>
     </defs>
     <g style="fill:#262626;" transform="translate(21.637031 324.876484)rotate(-90)scale(0.19 -0.19)">
      <use xlink:href="#DejaVuSans-43"/>
      <use x="69.824219" xlink:href="#DejaVuSans-65"/>
      <use x="131.347656" xlink:href="#DejaVuSans-6e"/>
      <use x="194.726562" xlink:href="#DejaVuSans-74"/>
      <use x="233.935547" xlink:href="#DejaVuSans-72"/>
      <use x="275.048828" xlink:href="#DejaVuSans-61"/>
      <use x="336.328125" xlink:href="#DejaVuSans-6c"/>
      <use x="364.111328" xlink:href="#DejaVuSans-20"/>
      <use x="395.898438" xlink:href="#DejaVuSans-49"/>
      <use x="425.390625" xlink:href="#DejaVuSans-56"/>
      <use x="493.798828" xlink:href="#DejaVuSans-73"/>
     </g>
    </g>
   </g>
   <g id="patch_12">
    <path clip-path="url(#pbcd9013bf9)" d="M 457.517686 331.88265 
L 431.64649 331.88265 
L 431.64649 279.557517 
L 457.517686 279.557517 
z
" style="fill:#808080;"/>
   </g>
   <g id="patch_13">
    <path clip-path="url(#pbcd9013bf9)" d="M 457.517686 266.476233 
L 352.824882 266.476233 
L 352.824882 214.1511 
L 457.517686 214.1511 
z
" style="fill:#808080;"/>
   </g>
   <g id="LineCollection_2">
    <path clip-path="url(#pbcd9013bf9)" d="M 401.511457 305.720084 
L 461.781523 305.720084 
" style="fill:none;stroke:#000000;stroke-width:2;"/>
    <path clip-path="url(#pbcd9013bf9)" d="M 257.701619 240.313666 
L 447.948145 240.313666 
" style="fill:none;stroke:#000000;stroke-width:2;"/>
   </g>
   <g id="line2d_32">
    <g clip-path="url(#pbcd9013bf9)">
     <use style="stroke:#000000;stroke-width:2;" x="401.511457" xlink:href="#mb00fcdc855" y="305.720084"/>
     <use style="stroke:#000000;stroke-width:2;" x="257.701619" xlink:href="#mb00fcdc855" y="240.313666"/>
    </g>
   </g>
   <g id="line2d_33">
    <g clip-path="url(#pbcd9013bf9)">
     <use style="stroke:#000000;stroke-width:2;" x="461.781523" xlink:href="#mb00fcdc855" y="305.720084"/>
     <use style="stroke:#000000;stroke-width:2;" x="447.948145" xlink:href="#mb00fcdc855" y="240.313666"/>
    </g>
   </g>
   <g id="line2d_34">
    <path clip-path="url(#pbcd9013bf9)" d="M 457.517686 338.423292 
L 457.517686 207.610458 
" style="fill:none;opacity:0.75;stroke:#000000;stroke-linecap:round;stroke-width:2;"/>
   </g>
   <g id="patch_14">
    <path d="M 242.483438 344.963934 
L 242.483438 201.069816 
" style="fill:none;"/>
   </g>
   <g id="patch_15">
    <path d="M 577.283437 344.963934 
L 577.283437 201.069816 
" style="fill:none;"/>
   </g>
   <g id="patch_16">
    <path d="M 242.483438 344.963934 
L 577.283437 344.963934 
" style="fill:none;"/>
   </g>
   <g id="patch_17">
    <path d="M 242.483438 201.069816 
L 577.283437 201.069816 
" style="fill:none;"/>
   </g>
   <g id="text_10">
    <g id="patch_18">
     <path d="M 2051.423529 316.554771 
L 2164.576342 316.554771 
L 2164.576342 294.885396 
L 2051.423529 294.885396 
z
" style="fill:#ffffff;stroke:#000000;stroke-linejoin:miter;"/>
    </g>
    <!-- (0.177 - 0.185) -->
    <defs>
     <path d="M 12.796875 72.90625 
L 62.703125 72.90625 
L 61.8125 68.703125 
L 20.125 0 
L 9.28125 0 
L 48.6875 64.59375 
L 11.1875 64.59375 
z
" id="DejaVuSans-Oblique-37"/>
     <path d="M 44.484375 22.125 
Q 44.484375 27.640625 40.625 31.125 
Q 36.765625 34.625 30.515625 34.625 
Q 22.90625 34.625 17.9375 30.046875 
Q 12.984375 25.484375 12.984375 18.5 
Q 12.984375 12.9375 16.765625 9.65625 
Q 20.5625 6.390625 27 6.390625 
Q 34.671875 6.390625 39.578125 10.828125 
Q 44.484375 15.28125 44.484375 22.125 
z
M 49.515625 56.109375 
Q 49.515625 60.75 46.09375 63.578125 
Q 42.671875 66.40625 37.015625 66.40625 
Q 30.328125 66.40625 26 62.640625 
Q 21.6875 58.890625 21.6875 53.21875 
Q 21.6875 48.34375 25.078125 45.359375 
Q 28.46875 42.390625 34.078125 42.390625 
Q 40.828125 42.390625 45.171875 46.265625 
Q 49.515625 50.140625 49.515625 56.109375 
z
M 42.828125 38.375 
Q 48.34375 36.28125 51.265625 32.03125 
Q 54.203125 27.78125 54.203125 21.78125 
Q 54.203125 11.671875 46.390625 5.125 
Q 38.578125 -1.421875 26.21875 -1.421875 
Q 15.71875 -1.421875 9.515625 3.734375 
Q 3.328125 8.890625 3.328125 17.484375 
Q 3.328125 25.296875 8.640625 31.375 
Q 13.96875 37.453125 22.515625 39.109375 
Q 17.390625 40.875 14.703125 44.5625 
Q 12.015625 48.25 12.015625 53.515625 
Q 12.015625 62.359375 19.359375 68.28125 
Q 26.703125 74.21875 37.984375 74.21875 
Q 47.40625 74.21875 53.34375 69.40625 
Q 59.28125 64.59375 59.28125 57.171875 
Q 59.28125 50.734375 54.859375 45.671875 
Q 50.4375 40.625 42.828125 38.375 
z
" id="DejaVuSans-Oblique-38"/>
    </defs>
    <g style="fill:#262626;" transform="translate(2055.483529 309.583209)scale(0.14 -0.14)">
     <use xlink:href="#DejaVuSans-Oblique-28"/>
     <use x="39.013672" xlink:href="#DejaVuSans-Oblique-30"/>
     <use x="102.636719" xlink:href="#DejaVuSans-Oblique-2e"/>
     <use x="134.423828" xlink:href="#DejaVuSans-Oblique-31"/>
     <use x="198.046875" xlink:href="#DejaVuSans-Oblique-37"/>
     <use x="261.669922" xlink:href="#DejaVuSans-Oblique-37"/>
     <use x="325.292969" xlink:href="#DejaVuSans-Oblique-20"/>
     <use x="357.080078" xlink:href="#DejaVuSans-Oblique-2d"/>
     <use x="393.164062" xlink:href="#DejaVuSans-Oblique-20"/>
     <use x="424.951172" xlink:href="#DejaVuSans-Oblique-30"/>
     <use x="488.574219" xlink:href="#DejaVuSans-Oblique-2e"/>
     <use x="520.361328" xlink:href="#DejaVuSans-Oblique-31"/>
     <use x="583.984375" xlink:href="#DejaVuSans-Oblique-38"/>
     <use x="647.607422" xlink:href="#DejaVuSans-Oblique-35"/>
     <use x="711.230469" xlink:href="#DejaVuSans-Oblique-29"/>
    </g>
   </g>
   <g id="text_11">
    <g id="patch_19">
     <path d="M 1972.601922 251.148354 
L 2085.754734 251.148354 
L 2085.754734 229.478979 
L 1972.601922 229.478979 
z
" style="fill:#ffffff;stroke:#000000;stroke-linejoin:miter;"/>
    </g>
    <!-- (0.420 - 0.453) -->
    <defs>
     <path d="M 43.015625 72.90625 
L 55.421875 72.90625 
L 46.09375 25.390625 
L 56.5 25.390625 
L 54.890625 17.1875 
L 44.484375 17.1875 
L 41.21875 0 
L 31.390625 0 
L 34.71875 17.1875 
L 1.8125 17.1875 
L 3.71875 26.703125 
z
M 43.890625 64.3125 
L 11.375 25.390625 
L 36.28125 25.390625 
z
" id="DejaVuSans-Oblique-34"/>
     <path d="M 15.828125 71.09375 
Q 21.1875 72.65625 26.234375 73.4375 
Q 31.296875 74.21875 36.1875 74.21875 
Q 45.84375 74.21875 51.5 69.921875 
Q 57.171875 65.625 57.171875 58.40625 
Q 57.171875 51.3125 52.703125 46.234375 
Q 48.25 41.15625 40.375 39.3125 
Q 46.53125 37.546875 49.40625 33.828125 
Q 52.296875 30.125 52.296875 24.03125 
Q 52.296875 18.171875 49.484375 13.03125 
Q 46.6875 7.90625 41.40625 4.203125 
Q 37.40625 1.375 31.828125 -0.015625 
Q 26.265625 -1.421875 19 -1.421875 
Q 14.40625 -1.421875 9.71875 -0.515625 
Q 5.03125 0.390625 0.203125 2.203125 
L 2 11.53125 
Q 6.59375 8.984375 11.25 7.734375 
Q 15.921875 6.5 20.796875 6.5 
Q 30.421875 6.5 36.40625 11.453125 
Q 42.390625 16.40625 42.390625 24.3125 
Q 42.390625 29.390625 38.578125 32.140625 
Q 34.765625 34.90625 27.6875 34.90625 
L 19.1875 34.90625 
L 20.703125 42.921875 
L 29.6875 42.921875 
Q 37.796875 42.921875 42.453125 46.625 
Q 47.125 50.34375 47.125 56.6875 
Q 47.125 61.28125 43.703125 63.796875 
Q 40.28125 66.3125 34.078125 66.3125 
Q 29.390625 66.3125 24.484375 65.3125 
Q 19.578125 64.3125 14.3125 62.3125 
z
" id="DejaVuSans-Oblique-33"/>
    </defs>
    <g style="fill:#262626;" transform="translate(1976.661922 244.176791)scale(0.14 -0.14)">
     <use xlink:href="#DejaVuSans-Oblique-28"/>
     <use x="39.013672" xlink:href="#DejaVuSans-Oblique-30"/>
     <use x="102.636719" xlink:href="#DejaVuSans-Oblique-2e"/>
     <use x="134.423828" xlink:href="#DejaVuSans-Oblique-34"/>
     <use x="198.046875" xlink:href="#DejaVuSans-Oblique-32"/>
     <use x="261.669922" xlink:href="#DejaVuSans-Oblique-30"/>
     <use x="325.292969" xlink:href="#DejaVuSans-Oblique-20"/>
     <use x="357.080078" xlink:href="#DejaVuSans-Oblique-2d"/>
     <use x="393.164062" xlink:href="#DejaVuSans-Oblique-20"/>
     <use x="424.951172" xlink:href="#DejaVuSans-Oblique-30"/>
     <use x="488.574219" xlink:href="#DejaVuSans-Oblique-2e"/>
     <use x="520.361328" xlink:href="#DejaVuSans-Oblique-34"/>
     <use x="583.984375" xlink:href="#DejaVuSans-Oblique-35"/>
     <use x="647.607422" xlink:href="#DejaVuSans-Oblique-33"/>
     <use x="711.230469" xlink:href="#DejaVuSans-Oblique-29"/>
    </g>
   </g>
  </g>
  <g id="axes_3">
   <g id="patch_20">
    <path d="M 242.483438 517.636875 
L 577.283437 517.636875 
L 577.283437 373.742757 
L 242.483438 373.742757 
z
" style="fill:#ffffff;"/>
   </g>
   <g id="matplotlib.axis_5">
    <g id="xtick_11">
     <g id="line2d_35">
      <path clip-path="url(#p936cf7803b)" d="M 262.657242 517.636875 
L 262.657242 373.742757 
" style="fill:none;stroke:#262626;stroke-dasharray:5.12,1.28,0.8,1.28;stroke-dashoffset:0;stroke-width:0.8;"/>
     </g>
     <g id="line2d_36"/>
     <g id="text_12">
      <!-- 0.06 -->
      <defs>
       <path d="M 10.59375 35.5 
L 73.1875 35.5 
L 73.1875 27.203125 
L 10.59375 27.203125 
z
" id="DejaVuSans-2212"/>
       <path d="M 31.78125 66.40625 
Q 24.171875 66.40625 20.328125 58.90625 
Q 16.5 51.421875 16.5 36.375 
Q 16.5 21.390625 20.328125 13.890625 
Q 24.171875 6.390625 31.78125 6.390625 
Q 39.453125 6.390625 43.28125 13.890625 
Q 47.125 21.390625 47.125 36.375 
Q 47.125 51.421875 43.28125 58.90625 
Q 39.453125 66.40625 31.78125 66.40625 
z
M 31.78125 74.21875 
Q 44.046875 74.21875 50.515625 64.515625 
Q 56.984375 54.828125 56.984375 36.375 
Q 56.984375 17.96875 50.515625 8.265625 
Q 44.046875 -1.421875 31.78125 -1.421875 
Q 19.53125 -1.421875 13.0625 8.265625 
Q 6.59375 17.96875 6.59375 36.375 
Q 6.59375 54.828125 13.0625 64.515625 
Q 19.53125 74.21875 31.78125 74.21875 
z
" id="DejaVuSans-30"/>
       <path d="M 33.015625 40.375 
Q 26.375 40.375 22.484375 35.828125 
Q 18.609375 31.296875 18.609375 23.390625 
Q 18.609375 15.53125 22.484375 10.953125 
Q 26.375 6.390625 33.015625 6.390625 
Q 39.65625 6.390625 43.53125 10.953125 
Q 47.40625 15.53125 47.40625 23.390625 
Q 47.40625 31.296875 43.53125 35.828125 
Q 39.65625 40.375 33.015625 40.375 
z
M 52.59375 71.296875 
L 52.59375 62.3125 
Q 48.875 64.0625 45.09375 64.984375 
Q 41.3125 65.921875 37.59375 65.921875 
Q 27.828125 65.921875 22.671875 59.328125 
Q 17.53125 52.734375 16.796875 39.40625 
Q 19.671875 43.65625 24.015625 45.921875 
Q 28.375 48.1875 33.59375 48.1875 
Q 44.578125 48.1875 50.953125 41.515625 
Q 57.328125 34.859375 57.328125 23.390625 
Q 57.328125 12.15625 50.6875 5.359375 
Q 44.046875 -1.421875 33.015625 -1.421875 
Q 20.359375 -1.421875 13.671875 8.265625 
Q 6.984375 17.96875 6.984375 36.375 
Q 6.984375 53.65625 15.1875 63.9375 
Q 23.390625 74.21875 37.203125 74.21875 
Q 40.921875 74.21875 44.703125 73.484375 
Q 48.484375 72.75 52.59375 71.296875 
z
" id="DejaVuSans-36"/>
      </defs>
      <g style="fill:#262626;" transform="translate(238.140992 533.294375)scale(0.16 -0.16)">
       <use xlink:href="#DejaVuSans-2212"/>
       <use x="83.789062" xlink:href="#DejaVuSans-30"/>
       <use x="147.412109" xlink:href="#DejaVuSans-2e"/>
       <use x="179.199219" xlink:href="#DejaVuSans-30"/>
       <use x="242.822266" xlink:href="#DejaVuSans-36"/>
      </g>
     </g>
    </g>
    <g id="xtick_12">
     <g id="line2d_37">
      <path clip-path="url(#p936cf7803b)" d="M 327.610723 517.636875 
L 327.610723 373.742757 
" style="fill:none;stroke:#262626;stroke-dasharray:5.12,1.28,0.8,1.28;stroke-dashoffset:0;stroke-width:0.8;"/>
     </g>
     <g id="line2d_38"/>
     <g id="text_13">
      <!-- 0.04 -->
      <defs>
       <path d="M 37.796875 64.3125 
L 12.890625 25.390625 
L 37.796875 25.390625 
z
M 35.203125 72.90625 
L 47.609375 72.90625 
L 47.609375 25.390625 
L 58.015625 25.390625 
L 58.015625 17.1875 
L 47.609375 17.1875 
L 47.609375 0 
L 37.796875 0 
L 37.796875 17.1875 
L 4.890625 17.1875 
L 4.890625 26.703125 
z
" id="DejaVuSans-34"/>
      </defs>
      <g style="fill:#262626;" transform="translate(303.094473 533.294375)scale(0.16 -0.16)">
       <use xlink:href="#DejaVuSans-2212"/>
       <use x="83.789062" xlink:href="#DejaVuSans-30"/>
       <use x="147.412109" xlink:href="#DejaVuSans-2e"/>
       <use x="179.199219" xlink:href="#DejaVuSans-30"/>
       <use x="242.822266" xlink:href="#DejaVuSans-34"/>
      </g>
     </g>
    </g>
    <g id="xtick_13">
     <g id="line2d_39">
      <path clip-path="url(#p936cf7803b)" d="M 392.564205 517.636875 
L 392.564205 373.742757 
" style="fill:none;stroke:#262626;stroke-dasharray:5.12,1.28,0.8,1.28;stroke-dashoffset:0;stroke-width:0.8;"/>
     </g>
     <g id="line2d_40"/>
     <g id="text_14">
      <!-- 0.02 -->
      <defs>
       <path d="M 19.1875 8.296875 
L 53.609375 8.296875 
L 53.609375 0 
L 7.328125 0 
L 7.328125 8.296875 
Q 12.9375 14.109375 22.625 23.890625 
Q 32.328125 33.6875 34.8125 36.53125 
Q 39.546875 41.84375 41.421875 45.53125 
Q 43.3125 49.21875 43.3125 52.78125 
Q 43.3125 58.59375 39.234375 62.25 
Q 35.15625 65.921875 28.609375 65.921875 
Q 23.96875 65.921875 18.8125 64.3125 
Q 13.671875 62.703125 7.8125 59.421875 
L 7.8125 69.390625 
Q 13.765625 71.78125 18.9375 73 
Q 24.125 74.21875 28.421875 74.21875 
Q 39.75 74.21875 46.484375 68.546875 
Q 53.21875 62.890625 53.21875 53.421875 
Q 53.21875 48.921875 51.53125 44.890625 
Q 49.859375 40.875 45.40625 35.40625 
Q 44.1875 33.984375 37.640625 27.21875 
Q 31.109375 20.453125 19.1875 8.296875 
z
" id="DejaVuSans-32"/>
      </defs>
      <g style="fill:#262626;" transform="translate(368.047955 533.294375)scale(0.16 -0.16)">
       <use xlink:href="#DejaVuSans-2212"/>
       <use x="83.789062" xlink:href="#DejaVuSans-30"/>
       <use x="147.412109" xlink:href="#DejaVuSans-2e"/>
       <use x="179.199219" xlink:href="#DejaVuSans-30"/>
       <use x="242.822266" xlink:href="#DejaVuSans-32"/>
      </g>
     </g>
    </g>
    <g id="xtick_14">
     <g id="line2d_41">
      <path clip-path="url(#p936cf7803b)" d="M 457.517686 517.636875 
L 457.517686 373.742757 
" style="fill:none;stroke:#262626;stroke-dasharray:5.12,1.28,0.8,1.28;stroke-dashoffset:0;stroke-width:0.8;"/>
     </g>
     <g id="line2d_42"/>
     <g id="text_15">
      <!-- 0.00 -->
      <g style="fill:#262626;" transform="translate(439.705186 533.294375)scale(0.16 -0.16)">
       <use xlink:href="#DejaVuSans-30"/>
       <use x="63.623047" xlink:href="#DejaVuSans-2e"/>
       <use x="95.410156" xlink:href="#DejaVuSans-30"/>
       <use x="159.033203" xlink:href="#DejaVuSans-30"/>
      </g>
     </g>
    </g>
    <g id="xtick_15">
     <g id="line2d_43">
      <path clip-path="url(#p936cf7803b)" d="M 522.471168 517.636875 
L 522.471168 373.742757 
" style="fill:none;stroke:#262626;stroke-dasharray:5.12,1.28,0.8,1.28;stroke-dashoffset:0;stroke-width:0.8;"/>
     </g>
     <g id="line2d_44"/>
     <g id="text_16">
      <!-- 0.02 -->
      <g style="fill:#262626;" transform="translate(504.658668 533.294375)scale(0.16 -0.16)">
       <use xlink:href="#DejaVuSans-30"/>
       <use x="63.623047" xlink:href="#DejaVuSans-2e"/>
       <use x="95.410156" xlink:href="#DejaVuSans-30"/>
       <use x="159.033203" xlink:href="#DejaVuSans-32"/>
      </g>
     </g>
    </g>
    <g id="text_17">
     <!-- Percent Change -->
     <defs>
      <path d="M 48.78125 52.59375 
L 48.78125 44.1875 
Q 44.96875 46.296875 41.140625 47.34375 
Q 37.3125 48.390625 33.40625 48.390625 
Q 24.65625 48.390625 19.8125 42.84375 
Q 14.984375 37.3125 14.984375 27.296875 
Q 14.984375 17.28125 19.8125 11.734375 
Q 24.65625 6.203125 33.40625 6.203125 
Q 37.3125 6.203125 41.140625 7.25 
Q 44.96875 8.296875 48.78125 10.40625 
L 48.78125 2.09375 
Q 45.015625 0.34375 40.984375 -0.53125 
Q 36.96875 -1.421875 32.421875 -1.421875 
Q 20.0625 -1.421875 12.78125 6.34375 
Q 5.515625 14.109375 5.515625 27.296875 
Q 5.515625 40.671875 12.859375 48.328125 
Q 20.21875 56 33.015625 56 
Q 37.15625 56 41.109375 55.140625 
Q 45.0625 54.296875 48.78125 52.59375 
z
" id="DejaVuSans-63"/>
      <path d="M 54.890625 33.015625 
L 54.890625 0 
L 45.90625 0 
L 45.90625 32.71875 
Q 45.90625 40.484375 42.875 44.328125 
Q 39.84375 48.1875 33.796875 48.1875 
Q 26.515625 48.1875 22.3125 43.546875 
Q 18.109375 38.921875 18.109375 30.90625 
L 18.109375 0 
L 9.078125 0 
L 9.078125 75.984375 
L 18.109375 75.984375 
L 18.109375 46.1875 
Q 21.34375 51.125 25.703125 53.5625 
Q 30.078125 56 35.796875 56 
Q 45.21875 56 50.046875 50.171875 
Q 54.890625 44.34375 54.890625 33.015625 
z
" id="DejaVuSans-68"/>
     </defs>
     <g style="fill:#262626;" transform="translate(338.188594 554.299062)scale(0.18 -0.18)">
      <use xlink:href="#DejaVuSans-50"/>
      <use x="60.255859" xlink:href="#DejaVuSans-65"/>
      <use x="121.779297" xlink:href="#DejaVuSans-72"/>
      <use x="162.861328" xlink:href="#DejaVuSans-63"/>
      <use x="217.841797" xlink:href="#DejaVuSans-65"/>
      <use x="279.365234" xlink:href="#DejaVuSans-6e"/>
      <use x="342.744141" xlink:href="#DejaVuSans-74"/>
      <use x="381.953125" xlink:href="#DejaVuSans-20"/>
      <use x="413.740234" xlink:href="#DejaVuSans-43"/>
      <use x="483.564453" xlink:href="#DejaVuSans-68"/>
      <use x="546.943359" xlink:href="#DejaVuSans-61"/>
      <use x="608.222656" xlink:href="#DejaVuSans-6e"/>
      <use x="671.601562" xlink:href="#DejaVuSans-67"/>
      <use x="735.078125" xlink:href="#DejaVuSans-65"/>
     </g>
    </g>
   </g>
   <g id="matplotlib.axis_6">
    <g id="ytick_5">
     <g id="line2d_45">
      <path clip-path="url(#p936cf7803b)" d="M 242.483438 478.393025 
L 577.283437 478.393025 
" style="fill:none;stroke:#262626;stroke-dasharray:5.12,1.28,0.8,1.28;stroke-dashoffset:0;stroke-width:0.8;"/>
     </g>
     <g id="line2d_46"/>
     <g id="text_18">
      <!-- Standard. Size of Coeff's -->
      <g style="fill:#262626;" transform="translate(42.500938 484.471775)scale(0.16 -0.16)">
       <use xlink:href="#DejaVuSans-53"/>
       <use x="63.476562" xlink:href="#DejaVuSans-74"/>
       <use x="102.685547" xlink:href="#DejaVuSans-61"/>
       <use x="163.964844" xlink:href="#DejaVuSans-6e"/>
       <use x="227.34375" xlink:href="#DejaVuSans-64"/>
       <use x="290.820312" xlink:href="#DejaVuSans-61"/>
       <use x="352.099609" xlink:href="#DejaVuSans-72"/>
       <use x="393.197266" xlink:href="#DejaVuSans-64"/>
       <use x="456.673828" xlink:href="#DejaVuSans-2e"/>
       <use x="488.460938" xlink:href="#DejaVuSans-20"/>
       <use x="520.248047" xlink:href="#DejaVuSans-53"/>
       <use x="583.724609" xlink:href="#DejaVuSans-69"/>
       <use x="611.507812" xlink:href="#DejaVuSans-7a"/>
       <use x="663.998047" xlink:href="#DejaVuSans-65"/>
       <use x="725.521484" xlink:href="#DejaVuSans-20"/>
       <use x="757.308594" xlink:href="#DejaVuSans-6f"/>
       <use x="818.490234" xlink:href="#DejaVuSans-66"/>
       <use x="853.695312" xlink:href="#DejaVuSans-20"/>
       <use x="885.482422" xlink:href="#DejaVuSans-43"/>
       <use x="955.306641" xlink:href="#DejaVuSans-6f"/>
       <use x="1016.488281" xlink:href="#DejaVuSans-65"/>
       <use x="1078.011719" xlink:href="#DejaVuSans-66"/>
       <use x="1113.216797" xlink:href="#DejaVuSans-66"/>
       <use x="1148.421875" xlink:href="#DejaVuSans-27"/>
       <use x="1175.912109" xlink:href="#DejaVuSans-73"/>
      </g>
     </g>
    </g>
    <g id="ytick_6">
     <g id="line2d_47">
      <path clip-path="url(#p936cf7803b)" d="M 242.483438 412.986608 
L 577.283437 412.986608 
" style="fill:none;stroke:#262626;stroke-dasharray:5.12,1.28,0.8,1.28;stroke-dashoffset:0;stroke-width:0.8;"/>
     </g>
     <g id="line2d_48"/>
     <g id="text_19">
      <!-- Prop. of Stat. Sign. Coeff's -->
      <g style="fill:#262626;" transform="translate(29.588438 419.065358)scale(0.16 -0.16)">
       <use xlink:href="#DejaVuSans-50"/>
       <use x="60.287109" xlink:href="#DejaVuSans-72"/>
       <use x="101.369141" xlink:href="#DejaVuSans-6f"/>
       <use x="162.550781" xlink:href="#DejaVuSans-70"/>
       <use x="226.027344" xlink:href="#DejaVuSans-2e"/>
       <use x="257.814453" xlink:href="#DejaVuSans-20"/>
       <use x="289.601562" xlink:href="#DejaVuSans-6f"/>
       <use x="350.783203" xlink:href="#DejaVuSans-66"/>
       <use x="385.988281" xlink:href="#DejaVuSans-20"/>
       <use x="417.775391" xlink:href="#DejaVuSans-53"/>
       <use x="481.251953" xlink:href="#DejaVuSans-74"/>
       <use x="520.460938" xlink:href="#DejaVuSans-61"/>
       <use x="581.740234" xlink:href="#DejaVuSans-74"/>
       <use x="620.949219" xlink:href="#DejaVuSans-2e"/>
       <use x="652.736328" xlink:href="#DejaVuSans-20"/>
       <use x="684.523438" xlink:href="#DejaVuSans-53"/>
       <use x="748" xlink:href="#DejaVuSans-69"/>
       <use x="775.783203" xlink:href="#DejaVuSans-67"/>
       <use x="839.259766" xlink:href="#DejaVuSans-6e"/>
       <use x="902.638672" xlink:href="#DejaVuSans-2e"/>
       <use x="934.425781" xlink:href="#DejaVuSans-20"/>
       <use x="966.212891" xlink:href="#DejaVuSans-43"/>
       <use x="1036.037109" xlink:href="#DejaVuSans-6f"/>
       <use x="1097.21875" xlink:href="#DejaVuSans-65"/>
       <use x="1158.742188" xlink:href="#DejaVuSans-66"/>
       <use x="1193.947266" xlink:href="#DejaVuSans-66"/>
       <use x="1229.152344" xlink:href="#DejaVuSans-27"/>
       <use x="1256.642578" xlink:href="#DejaVuSans-73"/>
      </g>
     </g>
    </g>
    <g id="text_20">
     <!-- All IVs -->
     <g style="fill:#262626;" transform="translate(21.637031 474.736066)rotate(-90)scale(0.19 -0.19)">
      <use xlink:href="#DejaVuSans-41"/>
      <use x="68.408203" xlink:href="#DejaVuSans-6c"/>
      <use x="96.191406" xlink:href="#DejaVuSans-6c"/>
      <use x="123.974609" xlink:href="#DejaVuSans-20"/>
      <use x="155.761719" xlink:href="#DejaVuSans-49"/>
      <use x="185.253906" xlink:href="#DejaVuSans-56"/>
      <use x="253.662109" xlink:href="#DejaVuSans-73"/>
     </g>
    </g>
   </g>
   <g id="patch_21">
    <path clip-path="url(#p936cf7803b)" d="M 457.517686 504.555592 
L 451.329252 504.555592 
L 451.329252 452.230458 
L 457.517686 452.230458 
z
" style="fill:#808080;"/>
   </g>
   <g id="patch_22">
    <path clip-path="url(#p936cf7803b)" d="M 457.517686 439.149174 
L 457.423574 439.149174 
L 457.423574 386.824041 
L 457.517686 386.824041 
z
" style="fill:#808080;"/>
   </g>
   <g id="LineCollection_3">
    <path clip-path="url(#p936cf7803b)" d="M 428.36951 478.393025 
L 474.288993 478.393025 
" style="fill:none;stroke:#000000;stroke-width:2;"/>
    <path clip-path="url(#p936cf7803b)" d="M 352.781892 412.986608 
L 562.065256 412.986608 
" style="fill:none;stroke:#000000;stroke-width:2;"/>
   </g>
   <g id="line2d_49">
    <g clip-path="url(#p936cf7803b)">
     <use style="stroke:#000000;stroke-width:2;" x="428.36951" xlink:href="#mb00fcdc855" y="478.393025"/>
     <use style="stroke:#000000;stroke-width:2;" x="352.781892" xlink:href="#mb00fcdc855" y="412.986608"/>
    </g>
   </g>
   <g id="line2d_50">
    <g clip-path="url(#p936cf7803b)">
     <use style="stroke:#000000;stroke-width:2;" x="474.288993" xlink:href="#mb00fcdc855" y="478.393025"/>
     <use style="stroke:#000000;stroke-width:2;" x="562.065256" xlink:href="#mb00fcdc855" y="412.986608"/>
    </g>
   </g>
   <g id="line2d_51">
    <path clip-path="url(#p936cf7803b)" d="M 457.517686 511.096233 
L 457.517686 380.283399 
" style="fill:none;opacity:0.75;stroke:#000000;stroke-linecap:round;stroke-width:2;"/>
   </g>
   <g id="patch_23">
    <path d="M 242.483438 517.636875 
L 242.483438 373.742757 
" style="fill:none;"/>
   </g>
   <g id="patch_24">
    <path d="M 577.283437 517.636875 
L 577.283437 373.742757 
" style="fill:none;"/>
   </g>
   <g id="patch_25">
    <path d="M 242.483438 517.636875 
L 577.283437 517.636875 
" style="fill:none;"/>
   </g>
   <g id="patch_26">
    <path d="M 242.483438 373.742757 
L 577.283437 373.742757 
" style="fill:none;"/>
   </g>
   <g id="text_21">
    <g id="patch_27">
     <path d="M 2071.106291 489.227712 
L 2184.259103 489.227712 
L 2184.259103 467.558337 
L 2071.106291 467.558337 
z
" style="fill:#ffffff;stroke:#000000;stroke-linejoin:miter;"/>
    </g>
    <!-- (0.150 - 0.152) -->
    <g style="fill:#262626;" transform="translate(2075.166291 482.25615)scale(0.14 -0.14)">
     <use xlink:href="#DejaVuSans-Oblique-28"/>
     <use x="39.013672" xlink:href="#DejaVuSans-Oblique-30"/>
     <use x="102.636719" xlink:href="#DejaVuSans-Oblique-2e"/>
     <use x="134.423828" xlink:href="#DejaVuSans-Oblique-31"/>
     <use x="198.046875" xlink:href="#DejaVuSans-Oblique-35"/>
     <use x="261.669922" xlink:href="#DejaVuSans-Oblique-30"/>
     <use x="325.292969" xlink:href="#DejaVuSans-Oblique-20"/>
     <use x="357.080078" xlink:href="#DejaVuSans-Oblique-2d"/>
     <use x="393.164062" xlink:href="#DejaVuSans-Oblique-20"/>
     <use x="424.951172" xlink:href="#DejaVuSans-Oblique-30"/>
     <use x="488.574219" xlink:href="#DejaVuSans-Oblique-2e"/>
     <use x="520.361328" xlink:href="#DejaVuSans-Oblique-31"/>
     <use x="583.984375" xlink:href="#DejaVuSans-Oblique-35"/>
     <use x="647.607422" xlink:href="#DejaVuSans-Oblique-32"/>
     <use x="711.230469" xlink:href="#DejaVuSans-Oblique-29"/>
    </g>
   </g>
   <g id="text_22">
    <g id="patch_28">
     <path d="M 2077.200613 423.821295 
L 2190.353425 423.821295 
L 2190.353425 402.15192 
L 2077.200613 402.15192 
z
" style="fill:#ffffff;stroke:#000000;stroke-linejoin:miter;"/>
    </g>
    <!-- (0.407 - 0.408) -->
    <g style="fill:#262626;" transform="translate(2081.260613 416.849733)scale(0.14 -0.14)">
     <use xlink:href="#DejaVuSans-Oblique-28"/>
     <use x="39.013672" xlink:href="#DejaVuSans-Oblique-30"/>
     <use x="102.636719" xlink:href="#DejaVuSans-Oblique-2e"/>
     <use x="134.423828" xlink:href="#DejaVuSans-Oblique-34"/>
     <use x="198.046875" xlink:href="#DejaVuSans-Oblique-30"/>
     <use x="261.669922" xlink:href="#DejaVuSans-Oblique-37"/>
     <use x="325.292969" xlink:href="#DejaVuSans-Oblique-20"/>
     <use x="357.080078" xlink:href="#DejaVuSans-Oblique-2d"/>
     <use x="393.164062" xlink:href="#DejaVuSans-Oblique-20"/>
     <use x="424.951172" xlink:href="#DejaVuSans-Oblique-30"/>
     <use x="488.574219" xlink:href="#DejaVuSans-Oblique-2e"/>
     <use x="520.361328" xlink:href="#DejaVuSans-Oblique-34"/>
     <use x="583.984375" xlink:href="#DejaVuSans-Oblique-30"/>
     <use x="647.607422" xlink:href="#DejaVuSans-Oblique-38"/>
     <use x="711.230469" xlink:href="#DejaVuSans-Oblique-29"/>
    </g>
   </g>
  </g>
 </g>
 <defs>
  <clipPath id="pbb0472d6b6">
   <rect height="143.894118" width="334.8" x="242.483438" y="28.396875"/>
  </clipPath>
  <clipPath id="pbcd9013bf9">
   <rect height="143.894118" width="334.8" x="242.483438" y="201.069816"/>
  </clipPath>
  <clipPath id="p936cf7803b">
   <rect height="143.894118" width="334.8" x="242.483438" y="373.742757"/>
  </clipPath>
 </defs>
</svg>
